<?xml version="1.0" standalone="no"?>
<!DOCTYPE svg PUBLIC "-//W3C//DTD SVG 1.1//EN" "http://www.w3.org/Graphics/SVG/1.1/DTD/svg11.dtd" >
<!--
2013-9-30: Created.
-->
<svg>
<metadata>
Created by iconfont
</metadata>
<defs>

<font id="iconfont" horiz-adv-x="1024" >
  <font-face
    font-family="iconfont"
    font-weight="500"
    font-stretch="normal"
    units-per-em="1024"
    ascent="896"
    descent="-128"
  />
    <missing-glyph />
    
    <glyph glyph-name="yangshengqi" unicode="&#983121;" d="M830.450526 42.240001q-11.722105-8.791579-27.351579-8.791579-19.536842 0-33.701053 14.164211t-14.164211 33.701053q0 21.490526 16.606316 36.143158 0.976842 0.976842 1.953684 1.465263t1.953684 1.465263l0.976842 0.976842q27.351579 18.56 50.795789 43.957895t41.027368 55.191579 27.351579 63.494737 9.768421 69.84421q0 73.263158-37.12 133.827368t-92.8 99.637895q-20.513684 14.652632-20.513684 39.073684 0 19.536842 14.164211 33.701053t33.701053 14.164211q16.606316 0 29.305263-10.745263 36.143158-25.397895 67.402105-59.098947t53.726316-73.263158 35.166316-84.496842 12.698947-92.8q0-48.842105-12.698947-93.776842t-35.654737-84.985263-54.214737-73.751579-68.378947-59.098947zM775.747368 480.842106q20.513684-28.328421 32.72421-57.145263t12.210526-69.84421q0-39.073684-12.698947-70.332632t-32.235789-56.656842q-7.814737-10.745263-16.606316-19.048421t-22.467368-8.303158q-17.583158 0-29.793684 12.698947t-12.210526 30.282105q0 7.814737 2.930526 15.629474l-0.976842 0q4.884211 10.745263 11.722105 20.513684t13.187368 20.025263 10.745263 23.444211 4.395789 31.747368q0 17.583158-4.395789 30.770526t-10.745263 23.932632-13.187368 20.513684-10.745263 20.513684q-2.930526 6.837895-2.930526 15.629474 0 17.583158 12.210526 30.282105t29.793684 12.698947q13.675789 0 22.467368-8.303158t16.606316-19.048421zM460.227368-99.402104q-49.818947 44.934737-105.498947 93.776842t-103.545263 89.869474q-55.68 46.888421-111.36 92.8-10.745263-0.976842-21.490526-0.976842-8.791579-0.976842-18.56-0.976842l-16.606316 0q-26.374737 0-42.981053 16.117895t-16.606316 38.585263l0 246.16421 0.976842 0-0.976842 0.976842q0 27.351579 17.094737 44.934737t42.492632 17.583158l55.68 0q89.869474 76.193684 163.132631 136.757895 31.258947 26.374737 61.541053 51.28421t54.703158 45.423158 41.027368 34.189474 20.513684 16.606316q29.305263 21.490526 47.376842 19.536842t28.328421-17.583158 14.164211-38.096842 3.907368-41.027368l0-788.311578 0-2.930526q0-18.56-6.837895-39.562105t-21.002105-33.212632-35.654737-10.256842-49.818947 28.328421z"  horiz-adv-x="1024" />

    
    <glyph glyph-name="ttpodicon" unicode="&#58916;" d="M805.330754 378.277808c-15.350237-5.021364-23.719187-21.457708-18.683285-36.734646 10.637714-32.321126 16.033834-66.098417 16.033834-100.368942 0-181.046403-151.318545-328.32984-337.31737-328.32984-186.008035 0-337.32658 147.283438-337.32658 328.32984 0 181.044356 151.318545 328.347237 337.32658 328.347237 30.448731 0 60.62218-3.941775 89.679156-11.733229 15.626542-4.15053 31.650143 5.02341 35.848944 20.546965 4.197778 15.526625-5.035901 31.504528-20.632766 35.675524-34.018172 9.117658-69.314508 13.743002-104.895335 13.743002-218.255813 0-395.825311-173.426865-395.825311-386.579499 0-213.155704 177.569498-386.562103 395.825311-386.562103s395.815078 173.406398 395.815078 386.562103c0 40.450271-6.369325 80.314187-18.946286 118.491695C837.20501 374.960249 820.696341 383.283822 805.330754 378.277808zM891.704492 660.205828c-71.016338 78.227666-162.448491 87.799672-166.305494 88.178295-15.327724 1.537006-29.019112-9.020444-31.618419-24.034393l-17.966941-103.781668c-2.743599-15.84692 7.928909-30.915104 23.848129-33.646308 15.920243-2.653433 31.058647 7.886621 33.792012 23.750937l12.813355 73.981968c26.146571-7.674796 67.165475-25.076118 102.042237-63.500243 31.190659-34.367739 45.965774-103.383602 42.740177-155.699108-84.416071 74.703399-200.137417 87.11815-205.820074 87.668689-15.29293 1.837858-28.991481-8.834202-31.69824-23.808242l-41.884657-231.753271c-1.218809 2.12643-2.730296 4.133134-4.53139 5.953595-36.542775 36.923958-88.719255 59.028395-146.750315 62.213947-112.721909 7.144724-211.56311-60.318784-220.074305-149.561317-3.578652-37.095873 8.911324-74.322729 35.162277-104.823394 35.619714-41.397852 92.412522-67.252707 155.815142-70.930469 3.399566-0.208754 6.824715-0.302899 10.264192-0.302899 69.64812 0 144.151008 40.281425 184.16089 100.558254 10.100456 15.20019 23.181928 38.214347 28.305837 62.420655l51.967717 287.4989c43.263109-9.269108 128.830448-35.407418 176.967768-102.510722 6.000919-8.340969 15.94992-12.872169 26.240719-12.094456 10.274425 0.853437 19.339252 7.033184 23.853245 16.264429C964.88726 457.286256 952.081068 593.709345 891.704492 660.205828zM596.596181 214.27457c-2.342446-11.04966-9.520217-26.157753-19.700494-41.475624-30.573579-46.043662-90.412897-76.958766-142.215855-74.268494-46.923629 2.730181-89.835728 21.685905-114.801354 50.706869-11.187253 13.004175-23.97093 34.195823-21.354227 61.396325 5.207824 54.516638 70.886372 97.320513 146.456614 97.320513 3.978781 0 7.986217-0.11461 12.015142-0.363274 42.988851-2.347464 82.508549-18.724457 108.436123-44.941562 10.768703-10.877745 27.991669-11.58178 39.559608-1.932002L596.596181 214.27457z"  horiz-adv-x="1024" />

    
    <glyph glyph-name="zanting" unicode="&#58948;" d="M306.050418 728.193269c-6.579859 7.529487-16.234753 12.310374-27.033703 12.310374-7.885598 0-15.165398-2.569522-21.076014-6.863315-1.726318-1.214664-3.367701-2.544963-4.901637-4.092201-8.859785-8.872065-10.111289-19.585057-9.964956-32.682353l0-704.344726c-0.469698-10.70276 1.105171-23.801079 9.964956-32.685423 14.143115-14.2127 37.096896-14.2127 51.240011 0l466.700281 358.577748c7.231705 7.243985 10.750855 16.782222 10.607592 26.285666 0.143263 9.502421-3.37691 19.041682-10.607592 26.285666L306.050418 728.193269 306.050418 728.193269z"  horiz-adv-x="1024" />

    
    <glyph glyph-name="ttpodicon1" unicode="&#59060;" d="M380.171556 590.803155c0.104377 0.023536 0.205685 0.016373 0.310062 0.040932 44.314275 10.410094 90.497107 12.115945 135.24424 4.958942 12.428054-1.987261 24.116257 6.476505 26.104541 18.905582 1.987261 12.429077-6.476505 24.11728-18.905582 26.104541-26.847461 4.294816-54.127781 5.683443-81.304747 4.366448-1.340531 0.164752-2.700505 0.257873-4.096295 0.178055-160.454412-9.155521-302.896588-118.369921-353.49908-270.976598C31.667234 216.417373 86.002746 38.276137 217.520105-63.816053c126.845966-98.442056 304.959573-109.144816 442.806081-28.730345 1.638313 0.529049 3.251044 1.199315 4.790096 2.12643 1.153266 0.695848 2.082428 1.264806 4.033873 2.467191 1.350764 0.832971 2.581802 1.786693 3.693112 2.834558 1.083681 0.688685 2.222621 1.258667 3.301186 1.959631 10.555403 6.857175 13.554714 20.972661 6.697539 31.527041-6.857175 10.555403-20.972661 13.554714-31.527041 6.697539-123.501802-80.224136-289.455461-73.203232-405.846308 17.125029C129.197524 62.447652 81.014128 220.42157 127.289058 360.036351 165.578106 475.507246 263.754103 562.917038 380.171556 590.803155zM785.354761 63.353278c-10.496052 6.947226-24.63712 4.071735-31.584346-6.424316-1.214664-1.835811-1.720178-2.594081-2.365884-3.549849-7.049556-10.42749-4.311189-24.595164 6.116301-31.644721 10.428513-7.049556 24.595164-4.311189 31.644721 6.117324 0.757247 1.118474 1.356904 2.020006 2.613524 3.918239C798.726304 42.266008 795.84979 56.406053 785.354761 63.353278zM807.15937 108.104505c11.922541-4.033873 24.859177 2.360767 28.894074 14.283308 10.023284 29.625738 16.501836 60.471256 19.258623 91.657536 1.108241 12.538571-8.157797 23.600511-20.695345 24.708751-12.538571 1.108241-23.601534-8.157797-24.708751-20.696368-2.437515-27.581172-8.169053-54.867632-17.030885-81.060177C788.841166 125.073992 795.236829 112.138378 807.15937 108.104505zM735.560682 735.487396c-13.443174 4.078899-27.161616 7.254218-41.044812 9.505491-14.300704 2.313695-25.13547-5.724375-30.113855-17.243733-2.201132-5.094018-3.165086-10.17678-3.791349-16.796548-0.165776-1.760087-0.146333-1.493004-0.472767-6.077416-0.134053-1.901303-0.224104-2.877537-0.284479-3.275603-0.750083-4.979408-1.347694-8.9263-2.695389-17.816784-1.348718-8.897647-1.947352-12.859889-2.694365-17.813714-5.29561-34.941813-5.29561-34.941813-10.594289-69.90307-0.408299-2.690272-0.408299-2.690272-0.815575-5.378497-4.891404-32.273031-4.891404-32.273031-9.782807-64.546062-5.064342-33.434483-8.093329-53.41863-18.627243-122.913401-5.385661-35.529191-9.252735-61.046355-12.67774-83.651188-46.285163 30.869055-106.127086 45.163619-163.939793 39.071877C309.584917 345.143153 211.443713 240.175473 266.702248 124.644203c10.260691-21.439288 25.755594-40.249703 44.982494-54.931077 84.409458-64.422242 202.832592-68.75185 291.127544-10.460236 38.280862 25.279756 64.100924 61.192687 71.954799 103.904465 0.234337 1.52575 0.234337 1.52575 0.344854 2.252297 1.950422 14.4542-6.815219 25.917276-19.291368 27.580149s-23.939225-7.101745-25.603121-19.577894c-0.294712-1.984191-0.294712-1.984191-0.449231-3.070942-5.316076-28.7723-23.662933-54.29151-52.070936-73.05076-72.074525-47.582715-169.328523-44.026726-238.353596 8.653077-13.571087 10.361999-24.423249 23.535019-31.522947 38.371936-38.734186 80.980359 33.596166 158.340261 134.978181 169.001065 59.395762 6.257517 121.735575-13.447267 159.387104-52.294017 13.123902-13.540388 36.074613-6.195096 38.898939 12.449543 5.259794 34.734082 9.993608 65.968457 18.627243 122.923634 10.533914 69.496817 13.5629 89.481987 18.627243 122.916471 4.89038 32.270984 4.89038 32.270984 9.782807 64.542992 0.407276 2.689249 0.407276 2.689249 0.815575 5.378497 5.298679 34.96228 5.298679 34.96228 10.597359 69.923536 0.747014 4.956895 1.343601 8.903787 2.691295 17.795295 1.347694 8.898671 1.947352 12.859889 2.694365 17.813714 0.083911 0.554632 0.14224 1.134847 0.209778 1.695618 5.782703-1.343601 11.522428-2.871397 17.200754-4.593622 110.471021-33.503045 187.03786-136.604214 191.807491-249.558799-48.131207 36.274158-107.287515 56.785308-168.115905 56.785308-12.586666 0-22.791076-10.203386-22.791076-22.791076 0-12.585643 10.203386-22.791076 22.791076-22.791076 64.925708 0 127.992069-27.721365 171.959443-75.570139 13.078877-14.232143 36.82265-6.746658 39.373753 12.412704C977.600227 542.388493 882.287441 690.989949 735.560682 735.487396z"  horiz-adv-x="1024" />

    
    <glyph glyph-name="bendiyinle" unicode="&#58945;" d="M645.581 511.292c-18.631 11.077-38.724 19.16-59.736 24.017-3.853 0.895-7.748 1.731-11.642 2.483-2.827 0.555-8.693 1.698-14.103-2.169-5.3-3.793-6.139-9.397-6.72-13.423l-42.287-281.769c-28.306 20.451-64.651 30.984-103.169 29.355-38.843-1.642-90.503-17.725-119.012-57.957-27.597-38.934-23.020-95.703 10.434-129.235 28.343-28.428 71.337-44.984 115.072-44.984 5.256 0 10.536 0.236 15.786 0.73 36.832 3.413 71.72 18.638 95.716 41.779 27.339 26.36 31.897 60.128 36.305 92.789 0.636 4.63 1.258 9.289 1.947 13.927 1.095 7.192-3.813 13.912-10.939 15.002-7.153 1.102-13.792-3.854-14.873-11.047-0.703-4.78-1.353-9.56-2.002-14.318-4.151-30.747-7.734-57.295-28.469-77.3-19.819-19.099-49-31.707-80.068-34.594-41.513-3.874-83.662 10.222-110.075 36.716-24.202 24.257-27.617 66.97-7.609 95.202 23.057 32.512 66.196 45.579 98.876 46.966 40.215 1.703 77.422-12.027 102.101-37.649 3.461-3.597 8.613-4.889 13.344-3.367 4.719 1.528 8.181 5.625 8.924 10.58l44.593 297.062c0.676-0.149 1.365-0.308 2.042-0.463 18.388-4.252 35.993-11.341 52.326-21.038 57.735-34.289 93.634-97.855 94.634-163.898-24.379 19.615-53.652 33.109-86.076 39.472-19.267 3.786-46.999 7.375-65.143-5.054-8.397-5.753-13.873-14.373-15.861-24.95-0.068-0.392-0.068-0.791-0.096-1.183-0.040-0.186-0.148-0.335-0.176-0.521-0.919-7.011 3.8-13.517 10.709-14.731 0.758-0.122 1.514-0.192 2.245-0.192 6.043 0 11.438 4.252 12.751 10.408 0.068 0.284 0.040 0.571 0.095 0.855 0.026 0.166 0.095 0.314 0.136 0.484 0.689 3.722 2.19 6.199 4.853 8.028 7.464 5.104 22.784 5.446 45.499 0.99 36.846-7.237 68.958-24.946 92.849-51.203 3.421-3.779 8.708-5.199 13.535-3.665 4.827 1.548 8.343 5.773 9.019 10.84 11.247 85.569-31.25 172.787-105.738 217.028zM511.993-161.983c-248.118 0-449.974 201.863-449.974 449.984s201.856 449.981 449.974 449.981c248.126 0 449.989-201.86 449.989-449.981s-201.863-449.984-449.989-449.984zM511.993 710.291c-232.846 0-422.283-189.437-422.283-422.29 0-232.856 189.437-422.293 422.283-422.293 232.853 0 422.298 189.437 422.298 422.293 0 232.853-189.444 422.29-422.298 422.29z"  horiz-adv-x="1024" />

    
    <glyph glyph-name="bendiyinle1" unicode="&#58974;" d="M511.575328-147.427332c-247.185752 0-447.569572 200.382796-447.569572 447.568549 0 247.185752 200.38382 447.568549 447.569572 447.568549s447.569572-200.382796 447.569572-447.568549C959.1449 52.955464 758.76108-147.427332 511.575328-147.427332zM511.575328 691.764592c-216.288045 0-391.621329-175.337377-391.621329-391.624399 0-216.285998 175.332261-391.621329 391.621329-391.621329s391.621329 175.335331 391.621329 391.621329C903.196657 516.427214 727.864396 691.764592 511.575328 691.764592zM581.508074 509.939453l0-321.69063c0-0.034792-0.010233-0.067538-0.010233-0.102331 3.051499-55.954383-48.027853-112.579031-123.117039-132.093481-83.324754-21.655206-164.625408 10.582009-181.593871 72.005964-16.96744 61.422931 36.82265 128.771829 120.147404 150.427034 47.345308 12.304234 94.02035 7.192819 128.628566-10.769274L525.5629 565.88565c0 7.724938 6.263657 13.985526 13.985526 13.985526l27.974122 0c3.400446 0 6.475482-1.261737 8.899694-3.278673 15.372106-0.240477 35.255968-6.940063 61.033052-24.694425 85.668125-59.004859 111.892393-41.958624 111.892393-41.958624l0-55.946196C749.34564 453.993257 682.909531 438.257877 581.508074 509.939453zM418.052305 231.278849c-46.651506-12.916171-88.300069-55.165414-79.134315-90.51655 9.166777-35.351136 67.053162-54.623062 112.331391-37.502126 38.781258 14.662955 75.608002 49.634444 74.314543 84.98251 0 0.002047-0.001023 0.004093-0.001023 0.00614l0 0.00921C524.21009 224.748109 464.698694 244.193996 418.052305 231.278849z"  horiz-adv-x="1024" />

    
    <glyph glyph-name="icon" unicode="&#58890;" d="M511.788687 750.069509c-247.266593 0-447.717951-200.438055-447.717951-447.728184 0-247.249197 200.452381-447.716928 447.717951-447.716928 247.26864 0 447.718975 200.466708 447.718975 447.716928C959.507662 549.631454 759.057327 750.069509 511.788687 750.069509zM654.575718 126.466712 403.216923 126.466712c-63.803141 0-116.021433 56.059783-116.021433 124.596739 0 60.242036 38.968523 109.562325 93.074815 122.437563 17.832134 60.570517 73.2677 104.754832 138.952702 104.754832 79.357396 0 143.753031-64.459081 144.924717-144.385435 47.517223-5.145184 87.100754-50.265824 87.100754-103.561657C751.248478 172.158357 708.712709 126.466712 654.575718 126.466712zM495.791341 238.366268c-35.260062 0-63.952544 28.670993-63.952544 63.896262l-31.979342 0c0-52.934606 42.964534-95.846952 95.932909-95.846952 52.989865 0 95.948259 42.912345 95.948259 95.846952l-31.981389 0C559.759235 267.037261 531.073916 238.366268 495.791341 238.366268zM527.79422 302.451842 575.750441 302.451842 623.719966 302.451842 575.750441 366.349127Z"  horiz-adv-x="1024" />

    
    <glyph glyph-name="bendiyinle2" unicode="&#59464;" d="M916.736021 725.708682c-3.108804 16.897855-22.298865 26.323529-42.843784 21.022803L629.744681 672.643092c-20.140713-5.176906-34.091446-22.570042-31.723515-39.191604l0-398.654512c-62.825884 57.570183-166.943197 80.755232-272.476765 52.481282C176.707584 247.404108 81.47564 120.289012 112.802112 3.355813c31.325449-116.952642 177.37171-179.403996 326.207503-139.529847 126.809127 33.972742 214.685547 131.275859 218.550575 231.652987l0.243547 0L657.803737 616.530097l227.329519 68.985164C905.677151 690.796544 919.825382 708.79036 916.736021 725.708682zM423.545412-78.424772c-116.952642-31.344892-230.218312 12.195763-252.995061 97.244788-22.796192 85.049025 53.524031 179.384553 170.45723 210.710003 116.952642 31.344892 230.218312-12.195763 252.995061-97.244788C616.799858 47.236206 540.478612-47.099323 423.545412-78.424772z"  horiz-adv-x="1024" />

    
    <glyph glyph-name="551488821353490553221" unicode="&#58882;" d="M206.825 677.975c-38.4-17.92-74.88-58.24-88.32-98.56-15.36-43.52-15.36-547.84 0-591.36 14.080-41.6 49.92-81.28 90.24-98.56l34.56-15.36h552.96l32.64 15.36c38.4 17.92 74.88 58.24 88.32 98.56 15.36 43.52 15.36 547.84 0 591.36-13.44 40.32-49.92 80.64-88.32 98.56l-32.64 15.36h-556.8l-32.64-15.36zM663.145 608.855c26.24-10.88 53.12-37.76 53.12-52.48s-17.28-35.84-29.44-35.84c-4.48 0-19.84 5.76-33.92 13.44-31.36 16-45.44 14.080-57.6-7.68-7.68-14.080-8.32-21.76-1.92-42.88 7.040-23.68 10.24-26.24 38.4-33.28 72.32-17.28 120.96-60.8 149.76-133.76 18.56-47.36 20.48-147.84 3.2-195.84-22.4-64-84.48-124.8-158.080-152.96-39.040-15.36-117.76-20.48-160.64-10.24-192.64 44.8-291.2 288.64-188.16 464.64 33.92 58.24 126.080 136.96 160 136.96 7.68 0 19.2-5.76 24.96-12.16 20.48-22.4 10.24-39.040-44.8-78.080-78.080-55.68-112-118.4-112-206.72 0-71.68 26.88-133.12 80.64-182.4 44.16-40.32 79.36-54.4 140.8-55.040 85.76 0 147.2 36.48 183.040 108.8 19.2 39.040 19.84 44.16 17.28 98.56-2.56 49.28-5.12 61.44-21.76 87.68-17.92 28.8-72.96 68.48-82.56 59.52-1.92-2.56 1.92-26.88 9.6-54.4 7.040-27.52 12.8-55.68 12.8-62.72 0-51.84-40.32-105.6-88.96-119.040-82.56-22.4-149.76 40.96-149.76 141.44 0 69.76 34.56 122.24 98.56 151.040l23.040 10.24-2.56 55.040c-3.2 49.92-1.92 56.96 10.88 73.6 31.36 39.040 82.56 53.12 126.080 34.56zM514.025 361.175c-20.48-12.8-40.96-52.48-40.96-81.28 0-24.32 16.64-58.24 32-66.56 28.16-15.36 70.4 10.88 70.4 43.52 0 9.6-5.12 39.68-10.88 67.2-12.8 54.4-17.28 57.6-50.56 37.12z"  horiz-adv-x="1028" />

    
    <glyph glyph-name="wodeshoucang" unicode="&#59009;" d="M703.127973 798.929634c-79.706073 0-142.466406-39.711302-191.219052-105.186596-48.80586 65.530556-111.453624 105.186596-191.215982 105.186596-143.712853 0-260.647568-126.93392-260.647568-282.959783 0-93.0977 41.917656-158.401071 75.525667-210.821423 97.842999-152.410349 332.38989-317.025234 342.728849-325.046293 10.054466-7.680281 21.858869-11.524004 33.495442-11.524004 11.753235 0 23.446093 3.843722 33.501582 11.524004 10.450504 8.021059 244.941111 172.635943 342.780017 325.046293 33.613128 52.420351 75.586045 117.723722 75.586045 210.821423C963.72028 671.995715 846.729281 798.929634 703.127973 798.929634L703.127973 798.929634 703.127973 798.929634 703.127973 798.929634zM846.729281 340.566755c-95.132131-148.227896-335.441536-315.778787-335.441536-315.778787S270.979363 192.338859 175.795041 340.566755c-35.13895 54.684013-66.491486 106.712419-66.491486 178.566287 0 124.051128 92.644354 224.660256 206.924486 224.660256 84.512773 0 145.010467-55.019674 177.268673-133.764816l0 0.336684 0.056285 0c2.371114-8.188889 9.434312-14.179611 17.679486-14.179611 8.304528 0 15.308372 5.990722 17.682556 14.179611l0.224115 0c32.254112 78.576289 92.756923 133.428132 177.040465 133.428132 114.336416 0 206.981793-100.609128 206.981793-224.660256C913.272958 447.279174 881.867208 395.250768 846.729281 340.566755L846.729281 340.566755 846.729281 340.566755 846.729281 340.566755zM846.729281 340.566755"  horiz-adv-x="1024" />

    
    <glyph glyph-name="zanting1" unicode="&#58988;" d="M327.650743 808.316343 273.642057 808.316343C201.815771 808.316343 175.542857 750.006857 175.542857 678.122057l0-615.570286c0-71.8848 26.272914-130.165029 98.0992-130.165029l54.008686 0c71.797029 0 81.627429 58.280229 81.627429 130.165029L409.278171 678.122057C409.278171 750.006857 399.447771 808.316343 327.650743 808.316343zM750.357943 808.316343l-54.008686 0c-71.797029 0-83.470629-58.280229-83.470629-130.165029l0-615.570286c0-71.8848 11.6736-130.165029 83.470629-130.165029l54.008686 0c71.797029 0 98.0992 58.280229 98.0992 130.165029L848.457143 678.122057C848.457143 750.006857 822.154971 808.316343 750.357943 808.316343z"  horiz-adv-x="1024" />

    
    <glyph glyph-name="icon1460191668718" unicode="&#58964;" d="M692.396 173.516l-0.022 0.031c-6.111 8.751-4.467 20.737 3.789 27.501 56.615 46.385 89.907 115.976 89.907 189.68 0 74.82-34.098 145.075-92.073 191.446-8.332 6.663-10.098 18.633-4.089 27.449l0.023 0.034c6.674 9.792 20.299 11.944 29.556 4.546 67.696-54.104 107.515-136.119 107.515-223.475 0-85.958-38.791-167.117-104.769-221.236C712.979 161.902 699.248 163.703 692.396 173.516zM553.384 392.39M553.384 392.39M403.452 169.812 403.452 169.812 403.452 169.812zM808.949 2.075l-0.007 0.011c-6.68 8.668-5.374 21.088 3.02 28.11 107.68 90.082 169.039 220.953 169.039 362.068 0 141.946-61.949 273.312-170.66 363.422-8.424 6.983-9.781 19.396-3.142 28.095l0.007 0.009c7.048 9.232 20.38 10.771 29.308 3.343 53.985-44.912 98.836-101.073 130.433-163.53 36.486-72.124 54.986-149.958 54.986-231.339 0-80.978-18.325-158.464-54.466-230.307-31.279-62.18-75.704-118.188-129.198-163.096C829.373-8.605 816.036-7.124 808.949 2.075zM553.384 392.39M345.363 83.58M211.597 173.798 86.761 173.798c-44.647 0-80.841 36.194-80.841 80.841L5.92 526.817c0 44.647 36.194 80.841 80.841 80.841l128.93 0c11.304 0 10.233-9.163 10.233-20.466l10.233 0c0-11.303-9.163-20.466-20.466-20.466L86.761 566.726c-22.041 0-39.909-17.868-39.909-39.909l0-272.179c0-22.041 17.868-39.909 39.909-39.909l129.844 0.084c11.303 0 20.466-9.162 20.466-20.466l-13.194-0.084C223.877 182.96 222.901 173.798 211.597 173.798zM530.025-88.304c-20.751 0-41.259 6.915-58.062 20.284l-0.277 0.225L206.413 178.158c-8.721 7.19-9.961 20.089-2.77 28.81l0 0c7.191 8.721 20.089 9.961 28.81 2.771l265.131-245.835c15.304-12.098 35.188-14.717 53.223-6.999 17.67 7.563 29.239 23.395 30.95 42.352 0.171 1.889 0.257 3.809 0.257 5.709L582.014 778.026c0 0.624-0.009 1.246-0.026 1.866-0.578 19.778-11.798 36.533-30.015 44.82-18.73 8.521-39.346 5.86-55.144-7.118L231.498 571.342c-8.734-7.175-21.631-5.91-28.805 2.823l12.486 9.959c-7.174 8.733-17.958 11.501-9.224 18.676L470.847 849.222c27.721 22.773 65.303 27.657 98.074 12.748 32.268-14.678 52.951-45.67 53.979-80.881 0.03-1.017 0.046-2.039 0.046-3.063l0-773.061c0-3.127-0.143-6.287-0.423-9.391-3.086-34.193-23.875-62.718-55.612-76.301C555.029-85.812 542.483-88.304 530.025-88.304z"  horiz-adv-x="1024" />

    
    <glyph glyph-name="yangshengqi1" unicode="&#59401;" d="M384 481.7408l0-196.608L318.4128 285.1328c-18.0736 0-32.7168 14.7968-32.7168 32.4608L285.696 449.28c0 17.92 14.4896 32.4608 32.7168 32.4608L384 481.7408 384 481.7408zM488.8576 560.384c14.4896 10.8544 26.2144 4.7104 26.2144-13.2096L515.072 219.648c0-18.1248-11.6224-24.1152-26.2144-13.2096L384 285.1328l0 196.608L488.8576 560.384 488.8576 560.384zM673.4848 227.0208c86.3744 86.3744 86.3744 226.4064 0 312.7808-9.5744 9.5744-25.1392 9.5744-34.7648 0-9.5744-9.5744-9.5744-25.1392 0-34.7648 67.1744-67.1744 67.1744-176.128 0-243.3024-9.5744-9.6256-9.5744-25.1392 0-34.7648C648.2944 217.4464 663.8592 217.4464 673.4848 227.0208L673.4848 227.0208 673.4848 227.0208zM603.9552 296.5504c47.9744 47.9744 47.9744 125.7984 0 173.7728-9.6256 9.5744-25.1392 9.5744-34.7648 0-9.5744-9.5744-9.5744-25.1392 0-34.7648 28.7744-28.7744 28.7744-75.4688 0-104.2432-9.5744-9.5744-9.5744-25.1392 0-34.7648C578.816 286.9248 594.3296 286.9248 603.9552 296.5504L603.9552 296.5504 603.9552 296.5504zM603.9552 296.5504"  horiz-adv-x="1024" />

    
    <glyph glyph-name="wodeshoucang1" unicode="&#58902;" d="M839.864236 468.029812c-5.733585 17.027815-20.402679 29.500894-38.075177 32.203446l-171.888835 26.373671-74.723865 160.137187c-7.864108 16.812921-24.671912 27.576055-43.173289 27.576055-18.503423 0-35.33067-10.763135-43.194778-27.576055l-74.713632-160.137187L222.184335 500.233258c-17.658172-2.703575-32.333406-15.175631-38.033221-32.203446-5.668093-17.071817-1.382487-35.876092 11.093662-48.691979l125.962853-129.818671-29.209252-180.108031c-2.967588-18.145266 4.646833-36.337603 19.571754-46.952358 8.205892-5.824659 17.851577-8.777921 27.484981-8.777921 7.919367 0 15.874549 1.995447 23.089881 5.989411l149.8591 83.290985 149.864216-83.290985c7.223518-3.993964 15.170514-5.989411 23.072485-5.989411 9.631358 0 19.271926 2.953262 27.499307 8.777921 14.927991 10.614755 22.500457 28.807093 19.557428 46.952358l-29.230742 180.108031 126.000716 129.818671C841.232396 432.176233 845.50163 450.982554 839.864236 468.029812zM664.367223 324.464045c-10.284227-10.592242-14.941294-25.536606-12.593829-40.197514l28.443819-175.708837-145.779178 81.217766c-6.997368 3.897773-14.713097 5.847172-22.467711 5.847172-7.707542 0-15.439644-1.976004-22.433942-5.847172l-145.765875-81.217766 28.426423 175.708837c2.381234 14.660908-2.295276 29.605272-12.5662 40.197514L237.104139 451.134003l167.183673 25.77913c15.272845 2.350534 28.427446 12.248975 34.991955 26.362414l72.723302 156.187225 72.690556-156.211784c6.587022-14.110369 19.700691-23.987321 34.961256-26.362414l167.223582-25.770943L664.367223 324.464045z"  horiz-adv-x="1024" />

    
    <glyph glyph-name="ai11" unicode="&#59007;" d="M809.999556 384.804319c0 79.284741-44.049239 145.359622-110.146633 176.25119l0-352.479867C765.950318 239.381252 809.999556 305.483762 809.999556 384.804319M215.197712 516.97864l0-264.378319 176.253236 0 220.302475-220.276892 0 704.95871L391.450948 516.97864 215.197712 516.97864z"  horiz-adv-x="1024" />

    
    <glyph glyph-name="pengyou" unicode="&#58949;" d="M401.30892-64.182765c-226.542584 0-336.631614 52.980346-336.631614 162.209306 0 76.718293 114.389384 127.118428 229.982866 144.663867l0 6.536536c-86.351083 66.053418-97.876029 184.055098-97.876029 281.071057 0 132.106837 77.750378 211.061314 208.137074 211.061314l6.880564 0c130.386696 0 208.137074-78.954477 208.137074-211.061314 0-97.015958-11.524945-214.845624-97.876029-281.071057l0-6.536536c115.593482-17.545439 229.982866-67.77356 229.982866-144.663867C752.045691 23.88846 691.152696-64.182765 401.30892-64.182765zM404.921216 677.198051c-95.639845 0-144.147825-49.540064-144.147825-147.072065 0-91.339493 9.804804-190.763649 83.082815-237.379473 9.288762-5.84848 14.793214-15.997312 14.793214-27.006215l0-51.260205c0-16.341341-12.385016-30.102469-28.554342-31.82261-121.097934-12.729044-201.428523-59.344868-201.428523-84.630942 0-65.193348 91.683521-98.220057 272.642365-98.220057 182.162943 0 286.747522 35.778935 286.747522 98.220057 0 25.286074-80.33059 71.901898-201.428523 84.630942-16.341341 1.720141-28.554342 15.48127-28.554342 31.82261l0 51.260205c0 11.008903 5.676466 21.157736 14.793214 27.006215 73.105997 46.615824 83.082815 146.211994 83.082815 237.379473 0 97.532001-48.507979 147.072065-144.147825 147.072065L404.921216 677.198051 404.921216 677.198051zM899.117756 132.257349c-17.717453 0-31.994625 14.277171-31.994625 31.994625 0 24.426004-91.167479 83.942886-196.956157 95.123803-16.341341 1.720141-28.726356 15.48127-28.726356 31.82261L641.440618 357.595834c0 11.008903 5.676466 21.157736 14.793214 27.006215 82.738787 52.636318 91.683521 169.777927 91.683521 217.769864 0 110.433059-74.654124 133.654964-137.26726 133.654964-17.717453 0-31.994625 14.277171-31.994625 31.994625s14.277171 31.994625 31.994625 31.994625c124.194188 0 201.256509-75.686209 201.256509-197.644213 0-55.732572-10.664875-188.699479-106.476734-261.289434l0-22.18982c102.176382-18.577524 225.682513-79.986561 225.682513-154.640685C931.284394 146.53452 916.835209 132.257349 899.117756 132.257349z"  horiz-adv-x="1024" />

    
    <glyph glyph-name="xiayishou" unicode="&#58886;" d="M512 833.610044c-248.312412 0-449.610044-201.297632-449.610044-449.610044s201.297632-449.610044 449.610044-449.610044 449.610044 201.297632 449.610044 449.610044S760.312412 833.610044 512 833.610044zM786.507004 109.492996c-35.672454-35.672454-77.196173-63.672158-123.416867-83.222423-47.821145-20.22667-98.655927-30.482245-151.09116-30.482245-52.435233 0-103.270015 10.255575-151.09116 30.482245-46.220694 19.549242-87.744413 47.549969-123.416867 83.222423-35.672454 35.672454-63.672158 77.196173-83.222423 123.416867-20.22667 47.821145-30.482245 98.655927-30.482245 151.090137 0 52.435233 10.255575 103.270015 30.482245 151.09116 19.549242 46.220694 47.549969 87.744413 83.222423 123.416867 35.672454 35.672454 77.196173 63.672158 123.416867 83.222423 47.821145 20.22667 98.654904 30.482245 151.09116 30.482245 52.435233 0 103.268992-10.255575 151.09116-30.482245 46.220694-19.549242 87.744413-47.549969 123.416867-83.222423 35.672454-35.672454 63.672158-77.196173 83.222423-123.416867 20.22667-47.821145 30.482245-98.655927 30.482245-151.09116 0-52.435233-10.255575-103.268992-30.482245-151.090137C850.179163 186.689169 822.179458 145.16545 786.507004 109.492996zM575.653739 388.019547 308.169685 590.332299c-3.094478 1.786693-6.961552-0.446162-6.961552-4.019547l0-404.625504c0-3.572362 3.868097-5.806239 6.961552-4.019547l267.484054 202.312752C578.747193 381.767146 578.747193 386.232854 575.653739 388.019547zM718.151174 589.950605l-92.229564 0c-2.563382 0-4.640694-2.365884-4.640694-5.28333l0-401.334551c0-2.917446 2.078335-5.28333 4.640694-5.28333l92.229564 0c2.563382 0 4.640694 2.365884 4.640694 5.28333L722.791867 584.667276C722.791867 587.584722 720.714556 589.950605 718.151174 589.950605z"  horiz-adv-x="1024" />

    
    <glyph glyph-name="wangyiyunyinlezizhi-copy" unicode="&#58881;" d="M812.688 452.365c-53.338 53.338-122.877 84.571-197.517 89.152-4.864 13.476-9.237 28.122-12.955 44.445-5.406 23.756-9.41 51.082-11.482 83.564-0.506 7.925-0.895 16.16-1.163 24.724-0.258 8.306-0.402 16.927-0.421 25.875-0.031 0.003-0.059 0.006-0.090 0.013 0.023 0.226 0.061 0.45 0.087 0.678 5.899 51.69 50.605 91.766 104.187 90.233 37.757-1.079 70.706-23.047 87.364-54.811l50.365 9.678c-19.821 49.354-64.973 85.924-119.381 93.387-87.442 11.994-163.263-51.161-172.043-134.026-0.073-0.693-0.119-2.478-0.146-3.174l-0.001-6.676c0.018-5.903 0.16-15.092 0.539-25.67 0.183-5.153 0.419-10.23 0.693-15.251 2.775-50.809 10.176-94.917 22.415-133.85 0.030-0.090 0.057-0.177 0.086-0.268-27.769-2.932-54.72-9.59-80.274-19.713l-0.018-0.002-0.034-0.017c-38.362-15.204-73.57-38.233-103.627-68.291l9.538 8.534c-40.682-39.699-65.986-95.088-65.986-156.285 0-29.763 5.99-58.148 16.817-84.031 25.825-61.738 79.205-109.18 144.684-126.881 17.221-5.375 35.525-8.272 54.494-8.272 10.11 0 20.029 0.837 29.698 2.419 86.973 14.235 153.556 89.901 153.556 180.838 0 20.773-3.481 40.749-9.879 59.378-13.142 54.395-34.294 91.456-54.922 127.561-6.288 11.010-12.514 21.913-18.499 33.241 10.198-1.718 20.194-4.039 29.951-6.925 106.276-31.444 184.048-129.946 184.048-246.284 0-59.882-20.607-115.040-55.097-158.762-24.484-27.394-53.099-51.013-84.861-69.881-53.554-31.809-116.031-50.11-182.708-50.11-27.403 0-54.094 3.1-79.754 8.944-159.635 36.365-279.132 179.455-279.132 349.94 0 177.598 129.68 325.454 299.316 353.913l-6.546 49.329c-83.813-13.561-161.087-52.819-222.371-113.935-76.53-76.319-119.827-180.26-120.076-288.341-0.253-109.839 42.541-213.123 120.404-290.601 77.532-77.148 183.19-120.052 292.559-118.903 72.921 0.765 142.794 20.532 203.967 56.93 27.007 14.218 52.015 32.573 74.211 54.769 8.033 8.033 15.546 16.446 22.559 25.174 43.538 54.177 67.203 121.031 67.203 191.533 0 31.259-4.661 61.796-13.632 90.835-14.522 47.012-40.351 90.090-76.132 125.871zM403.266 473.834c0.771 0.633 1.557 1.249 2.338 1.872-0.835-0.662-1.665-1.331-2.491-2.006l0.151 0.134zM664.427 314.149c3.326-14.137 6.031-29.586 7.954-46.765-0.627-65.317-48.367-119.567-110.8-130.331-6.657-0.801-13.428-1.225-20.295-1.225-14.779 0-29.116 1.916-42.786 5.5-72.415 18.99-125.996 84.994-125.996 163.282 0 22.391 4.393 43.772 12.346 63.341 10.096 24.843 25.936 46.761 45.873 64.083 3.514 2.963 7.102 5.837 10.773 8.609 39.492 29.837 87.838 48.543 140.336 51.408 4.418-9.674 8.997-18.804 13.654-27.585 4.962-9.356 10.011-18.32 15.036-27.143 1.209-2.122 2.416-4.235 3.62-6.343 19.814-34.679 38.772-67.897 50.285-116.832z"  horiz-adv-x="1024" />

    
    <glyph glyph-name="yangshengqi2" unicode="&#58917;" d="M217.967852 636.63322 155.620068 636.63322c-13.965904 0-24.939113-10.97321-24.939113-24.939113l0-437.930833c0-13.965904 10.97321-24.939113 24.939113-24.939113l62.846566 0c13.965904 0 24.939113 10.97321 24.939113 24.939113L243.405748 611.694106C242.906965 625.66001 231.933755 636.63322 217.967852 636.63322zM212.980029 178.751096 160.607891 178.751096 160.607891 606.706283l52.870921 0L213.478811 178.751096zM640.935217 793.749635c-12.469557 7.481734-27.433025 8.479299-39.902582 1.995129L290.790063 643.117389c-14.963468-7.481734-24.440331-23.442767-24.440331-40.401364l0-419.475889c0-17.457379 9.476863-33.418412 24.440331-40.401364l309.74379-152.627375c5.985387-2.992694 11.970774-4.48904 18.454944-4.48904 7.481734 0 14.963468 1.995129 21.94642 6.48417 12.968339 7.980516 20.948855 22.445202 20.948855 38.406235L661.884072 755.3434C661.884072 771.304433 654.402338 785.769118 640.935217 793.749635zM631.957136 30.11398c0-5.486605-2.493911-10.474428-6.982952-12.968339-1.995129-1.496347-5.985387-2.992694-10.97321-0.498782L304.257185 169.274233c-4.987823 2.493911-7.980516 7.980516-7.980516 13.965904L296.276668 602.716025c0 5.985387 2.992694 11.471992 7.980516 13.965904l309.74379 152.627375c1.995129 0.997565 3.491476 0.997565 4.987823 0.997565 2.493911 0 4.987823-0.997565 5.985387-1.995129 4.48904-2.493911 6.982952-7.481734 6.982952-12.968339L631.957136 30.11398zM856.409157 639.625913c-5.985387 5.985387-15.46225 5.985387-20.948855 0-5.985387-5.985387-5.985387-15.46225 0-20.948855 124.695567-124.695567 124.695567-327.201169 0-451.896736-5.985387-5.985387-5.985387-15.46225 0-20.948855 2.992694-2.992694 6.982952-4.48904 10.474428-4.48904s7.481734 1.496347 10.474428 4.48904C992.576717 281.999026 992.576717 503.458354 856.409157 639.625913zM742.188018 549.845105c-5.985387-5.985387-5.985387-15.46225 0-20.948855 36.411106-36.411106 56.362396-84.792986 56.362396-136.16756s-19.951291-99.756454-56.362396-136.16756c-5.985387-5.985387-5.985387-15.46225 0-20.948855 2.992694-2.992694 6.982952-4.48904 10.474428-4.48904 3.990258 0 7.481734 1.496347 10.474428 4.48904 41.897711 41.897711 65.340477 97.761325 65.340477 157.116415s-22.943984 115.218704-65.340477 157.116415C757.151486 555.830492 747.674623 555.830492 742.188018 549.845105z"  horiz-adv-x="1024" />

    
    <glyph glyph-name="shangyishou" unicode="&#58960;" d="M511.389598 891.513826c-280.978393 0-508.74998-227.771587-508.74998-508.751003 0-280.96509 227.771587-508.748956 508.74998-508.748956 280.97123 0 508.74998 227.783867 508.749979 508.748956 0 280.979416-227.77875 508.751003-508.749979 508.751003z m-0.284479-961.882244c-250.877841 0-454.251761 203.381084-454.251762 454.257901 0 250.865561 203.37392 454.245621 454.251762 454.245621s454.251761-203.381084 454.251761-454.245621c0-250.876818-203.37392-454.257901-454.251761-454.257901z m155.439188 692.113147c-9.136078 0.049119-17.178241-4.473895-21.998013-11.414981L396.011824 406.228257a26.303063 26.303063 0 0 1-5.874801-4.465708c-10.273994-10.386558-10.273994-27.212782 0-37.586037l0.464581-0.376576c0.040932-0.040932 0.077771-0.084934 0.118704-0.125867a26.804483 26.804483 0 0 1 4.693905-3.776L645.392568 157.200554c4.930289-6.630001 12.806677-10.952446 21.662369-10.991332 0.538259-0.00307 1.072425 0.014326 1.602497 0.040932a26.063609 26.063609 0 0 1 19.084661 9.100262c3.829212 4.325515 6.227842 9.901511 6.443759 16.10377 0.032746 0.656963 0.035816 1.313925 0.021489 1.971911l-0.22615 421.305395c-0.077771 14.836917-12.596899 26.934442-27.436886 27.013237zM451.272405 382.3535L639.841132 537.205311l0.169869-307.884183-188.738596 153.032372z m-96.760764 211.728193c-14.84408 0.079818-26.814716-11.897981-26.735921-26.735921l0.232291-367.189894c0.072655-14.851243 12.169157-26.947745 27.013237-27.013237 14.838963-0.079818 27.232225 11.461029 27.160593 26.29897l-0.232291 367.625821c-0.078795 14.83794-12.598946 26.935466-27.437909 27.014261z"  horiz-adv-x="1024" />

    
    <glyph glyph-name="shoucang" unicode="&#59005;" d="M669.37 654.374c80.204 0 148.921-59.161 159.833-137.619 7.603-54.509-7.565-100.429-46.297-140.41-81.504-84.108-227.693-230.591-256.173-259.103-2.925-2.932-6.26-3.546-8.531-3.546-2.279 0-5.607 0.614-8.519 3.546-64.096 64.345-180.454 181.344-247.731 249.152-30.22 30.444-48 63.142-54.349 99.916-11.366 65.818 19.879 132.525 77.754 165.99 24.864 14.388 52.832 21.991 80.89 21.991 40.902 0 80.313-15.897 110.956-44.774 13.517-12.743 26.944-16.615 38.279-16.615 14.572 0 25.683 6.407 29.03 8.576 7.168 4.672 14.08 9.485 20.915 14.24 12.32 8.55 23.917 16.634 34.931 22.176 21.677 10.932 44.91 16.48 69.012 16.48m0 53.14c-31.053 0-62.637-6.99-92.621-22.1-21.03-10.604-39.898-25.612-60.915-39.334 0 0-1.37 1.069-2.618 2.246-41.376 38.99-93.875 59.11-146.976 59.11-36.576 0-73.44-9.548-107.149-29.042-77.446-44.794-118.662-133.088-103.443-221.19 8.742-50.625 33.389-92.468 69.011-128.398 67.303-67.808 183.687-184.844 247.789-249.222 12.66-12.691 29.197-19.027 45.747-19.027 16.538 0 33.05 6.31 45.69 18.97 65.824 65.887 186.899 187.596 256.742 259.654 49.274 50.854 70.74 113.645 60.82 184.94-15.188 109.07-110.785 183.393-212.077 183.393z"  horiz-adv-x="1024" />

    
    <glyph glyph-name="pengyou1" unicode="&#58976;" d="M697.344 221.184s-1.024 0 0 0c-8.192 5.12-17.408 9.216-26.624 11.264-67.584 28.672-147.456 66.56-147.456 106.496 0 8.192 13.312 44.032 36.864 77.824 24.576 35.84 28.672 72.704 24.576 114.688-6.144 81.92-63.488 148.48-141.312 148.48-77.824 0-134.144-66.56-141.312-148.48-3.072-40.96 1.024-78.848 24.576-114.688 23.552-34.816 36.864-69.632 36.864-77.824 0-40.96-79.872-77.824-147.456-106.496-9.216-2.048-17.408-6.144-25.6-11.264h-1.024c-26.624-17.408-45.056-47.104-45.056-80.896v-34.816c0-11.264 9.216-20.48 20.48-20.48h557.056c11.264 0 20.48 9.216 20.48 20.48v34.816c0 33.792-18.432 63.488-45.056 80.896zM711.68 115.712h-536.576v24.576c0 22.528 11.264 43.008 29.696 55.296l1.024 1.024c5.12 3.072 11.264 6.144 17.408 7.168l4.096 2.048c88.064 37.888 165.888 76.8 165.888 135.168 0 23.552-25.6 70.656-41.984 95.232-17.408 25.6-23.552 53.248-19.456 95.232 5.12 68.608 51.2 118.784 109.568 119.808h2.048c58.368-1.024 103.424-51.2 109.568-119.808 3.072-41.984-2.048-68.608-19.456-95.232-16.384-24.576-41.984-71.68-41.984-95.232 0-58.368 78.848-97.28 165.888-135.168l4.096-2.048c6.144-2.048 12.288-4.096 17.408-7.168l1.024-1.024c18.432-12.288 29.696-32.768 29.696-55.296v-24.576zM835.584 247.808c-1.024 0-1.024 0 0 0-8.192 5.12-17.408 8.192-25.6 11.264-65.536 27.648-131.072 62.464-131.072 101.376 0 8.192 13.312 41.984 35.84 73.728 23.552 33.792 27.648 69.632 24.576 108.544-6.144 77.824-61.44 140.288-138.24 140.288-14.336 0-46.080-6.144-59.392-11.264l27.648-24.576c10.24 3.072 20.48 5.12 30.72 5.12h2.048c56.32-1.024 101.376-48.128 106.496-112.64 3.072-38.912-2.048-64.512-19.456-89.088-17.408-24.576-41.984-68.608-41.984-91.136 0-58.368 75.776-98.304 150.528-130.048l4.096-2.048c6.144-1.024 11.264-4.096 16.384-7.168l1.024-1.024c18.432-11.264 28.672-30.72 28.672-51.2 0-12.288-10.24-21.504-21.504-21.504l-55.296-1.024v-30.72l55.296 1.024c28.672 0 52.224 23.552 52.224 53.248 1.024 34.816-17.408 62.464-43.008 78.848z"  horiz-adv-x="1024" />

    
    <glyph glyph-name="fenxiang" unicode="&#58633;" d="M737 280.154c-62.377 0-115.961-37.107-140.815-90.277l-254.907 117.623c19.939 26.1 32.261 58.431 32.261 93.807 0 35.515-12.461 67.915-32.539 94.154l251.377 125.723c22.846-57.669 78.923-98.723 144.623-98.723 85.846 0 155.769 69.923 155.769 155.769s-69.923 155.769-155.769 155.769-155.769-69.923-155.769-155.769c0-7.823 1.246-15.3 2.285-22.777l-267.923-133.961c-26.793 21.877-60.577 35.585-97.823 35.585-85.915 0-155.769-69.923-155.769-155.769s69.854-155.769 155.769-155.769c37.315 0 71.1 13.707 97.961 35.654l269.1-124.061c-2.215-10.593-3.6-21.531-3.6-32.746 0-85.846 69.923-155.769 155.769-155.769s155.769 69.923 155.769 155.769-69.923 155.769-155.769 155.769zM737 799.385c66.807 0 121.154-54.346 121.154-121.154s-54.346-121.154-121.154-121.154-121.154 54.346-121.154 121.154 54.346 121.154 121.154 121.154zM217.769 280.154c-66.807 0-121.154 54.346-121.154 121.154s54.346 121.154 121.154 121.154 121.154-54.346 121.154-121.154-54.346-121.154-121.154-121.154zM737 3.231c-66.807 0-121.154 54.346-121.154 121.154s54.346 121.154 121.154 121.154 121.154-54.346 121.154-121.154-54.346-121.154-121.154-121.154z"  horiz-adv-x="1024" />

    
    <glyph glyph-name="xindong" unicode="&#58931;" d="M899.3024 151.04c-123.13088-105.68192-269.55776-211.2-307.3024-238.08-37.7344 26.88-184.1664 132.39808-307.3024 238.08h-48.896c145.152-128.768 336.5888-263.4752 347.0336-270.80192a15.872 15.872 0 0 1 18.3296 0c10.4448 7.32672 201.88672 142.0288 347.0848 270.80192h-48.9472zM1183.9744 576c0-94.6176-23.35744-173.3632-76.44672-252.5696h-39.16288c58.2656 79.9232 83.6608 157.8496 83.6608 252.5696 0 158.8224-129.22368 288-288.0512 288-71.2192 0-139.83744-26.5216-193.024-74.752a288.1024 288.1024 0 0 1-64.6144-85.1968c-5.4272-10.9056-23.2448-10.9056-28.672 0-16.0768 32.256-37.8368 60.928-64.6144 85.248-53.1968 48.1792-121.8048 74.7008-193.024 74.7008-158.8224 0-288.0512-129.1776-288.0512-288 0-94.72 25.3952-172.6464 83.6608-252.5696h-39.1168C23.3728 402.6368 0.0256 481.3824 0.0256 576c0 176.4352 143.5136 320 320 320 79.2064 0 155.392-29.4912 214.4768-82.9952a320.3584 320.3584 0 0 0 57.4976-68.9664c15.7696 25.4976 35.0208 48.5888 57.45152 68.9152C708.62848 866.5088 784.768 896 863.9744 896c176.4864 0 320-143.5648 320-320zM457.83552 88.34048L378.61888 305.8176l-46.00832-73.3184H42.41408v30.72h273.20832l70.35904 112.13824 69.14048-189.80864 93.80864 310.38976 100.91008-232.71936h478.64832v-30.72h-498.81088l-75.58656 174.32576z"  horiz-adv-x="1184" />

    
    <glyph glyph-name="wodeshoucang2" unicode="&#58884;" d="M703.127973 798.929634c-79.706073 0-142.466406-39.711302-191.219052-105.186596-48.80586 65.530556-111.453624 105.186596-191.215982 105.186596-143.712853 0-260.647568-126.93392-260.647568-282.959783 0-93.0977 41.917656-158.401071 75.525667-210.821423 97.842999-152.410349 332.38989-317.025234 342.728849-325.046293 10.054466-7.680281 21.858869-11.524004 33.495442-11.524004 11.753235 0 23.446093 3.843722 33.501582 11.524004 10.450504 8.021059 244.941111 172.635943 342.780017 325.046293 33.613128 52.420351 75.586045 117.723722 75.586045 210.821423C963.72028 671.995715 846.729281 798.929634 703.127973 798.929634L703.127973 798.929634 703.127973 798.929634 703.127973 798.929634zM846.729281 340.566755c-95.132131-148.227896-335.441536-315.778787-335.441536-315.778787S270.979363 192.338859 175.795041 340.566755c-35.13895 54.684013-66.491486 106.712419-66.491486 178.566287 0 124.051128 92.644354 224.660256 206.924486 224.660256 84.512773 0 145.010467-55.019674 177.268673-133.764816l0 0.336684 0.056285 0c2.371114-8.188889 9.434312-14.179611 17.679486-14.179611 8.304528 0 15.308372 5.990722 17.682556 14.179611l0.224115 0c32.254112 78.576289 92.756923 133.428132 177.040465 133.428132 114.336416 0 206.981793-100.609128 206.981793-224.660256C913.272958 447.279174 881.867208 395.250768 846.729281 340.566755L846.729281 340.566755 846.729281 340.566755 846.729281 340.566755zM846.729281 340.566755"  horiz-adv-x="1024" />

    
    <glyph glyph-name="xindong1" unicode="&#58883;" d="M511.998 541.571c37.405 82.332 82.292 119.755 164.583 119.755 97.254 0 172.063-74.847 172.063-157.178 0-52.393-14.962-104.786-44.886-157.179h-37.405c29.924 52.393 52.367 104.786 52.367 149.694 0 74.847-67.329 127.24-149.62 127.24-59.849 0-97.254-37.423-134.658-89.816-37.406-52.393-22.444-44.908-52.368 7.484-37.405 44.908-82.292 89.816-134.659 89.816-82.288 0-149.617-59.877-149.617-134.725 0-44.908 22.443-97.301 59.848-149.694h-37.405c-29.924 52.393-52.367 104.786-52.367 157.179 0 82.332 74.81 157.178 172.063 157.178 82.288 0.001 127.175-37.423 172.061-119.754zM295.051 332l44.886 89.816 52.364-82.332 59.848 164.663L549.402 332H901.01c7.481 0 14.963-7.484 14.963-14.969v-7.485c0-7.485-7.481-14.97-14.963-14.97H556.883s-29.924 0-37.404 22.455L459.63 436.786l-52.367-127.24c-14.962-22.454-29.924 14.97-37.401 22.454-14.962 14.969-22.447 37.424-22.447 37.424l-29.924-59.878c0-7.485-7.477-14.97-7.477-14.97H115.507s-7.481 7.484-7.481 14.97v7.485c0 7.484 7.481 14.969 7.481 14.969h179.544z m463.821-44.908c-67.329-89.816-157.102-172.146-246.875-261.963-97.253 89.816-187.022 172.146-254.351 261.963h44.886c59.844-74.846 134.654-149.693 209.465-217.055 67.329 67.361 149.621 142.209 209.469 217.055h37.406z"  horiz-adv-x="1024" />

    
    <glyph glyph-name="yangshengqi3" unicode="&#58975;" d="M682.193217 566.436052c-12.267395 12.405541-32.245402 12.465916-44.572148 0.182149-12.388145-12.282744-12.44852-32.289404-0.183172-44.632523 37.164435-37.579897 57.627489-87.382163 57.627489-140.223649 0-51.807946-19.856233-100.94097-55.806004-138.276296-12.084223-12.527314-11.718903-32.531927 0.789993-44.633547 6.132674-5.89936 14.026458-8.878205 21.921265-8.878204 8.258081 0 16.516162 3.222391 22.711258 9.667173 47.425126 49.194422 73.53683 113.89398 73.53683 182.181249-0.119727 69.564355-27.081799 135.116327-76.025511 184.613648zM776.315898 703.314513c-13.116739 11.492752-33.034371 10.093892-44.511773-3.040243-11.417027-13.134135-10.079566-33.079396 3.036149-44.572148 79.18548-69.199035 124.546597-169.107489 124.546598-274.182616 0-103.677291-44.388976-202.672956-121.751948-271.751241-12.994965-11.614525-14.148231-31.559786-2.55008-44.572148 6.253424-6.993275 14.876826-10.580986 23.559579-10.580986 7.470135 0 14.939247 2.615571 20.950148 8.027837 90.782609 80.995709 142.884244 197.199291 142.884244 318.876538a427.279457 427.279457 0 0 1-146.162917 321.795007zM490.877937 736.711134L219.255633 525.700279h-109.268636V233.273137h110.164029l270.883477-211.010855c31.816636-24.784476 57.591673-12.276604 57.591672 27.92091V708.790224c0 40.263006-25.854854 52.697199-57.748238 27.92091z"  horiz-adv-x="1024" />

    
    <glyph glyph-name="yangshengqi4" unicode="&#58903;" d="M803.929 404.11c0 77.758-43.236 142.612-108.093 172.946v-345.891c64.854 30.163 108.093 95.021 108.093 172.946zM220.405 533.818v-259.419h172.946l216.181-216.181v691.615l-216.181-216.181h-172.946z"  horiz-adv-x="1024" />

    
    <glyph glyph-name="shangyishou1" unicode="&#58627;" d="M163.7 787.9l643.9-371.8c27.8-16 27.8-56.1 0-72.099l-643.9-371.8c-27.8-16-62.5 4-62.5 36.1v743.5c0 32.1 34.7 52.1 62.5 36.1zM875.6 831.799c26.099 0 47.199-21.1 47.2-47.2v-801.2c0-26.099-21.1-47.199-47.2-47.2s-47.199 21.1-47.2 47.2v801.3c0 26 21.2 47.1 47.2 47.1z"  horiz-adv-x="1024" />

    
    <glyph glyph-name="wangyiyunyinlezizhi-copy1" unicode="&#58629;" d="M812.688 452.365c-53.338 53.338-122.877 84.571-197.517 89.152-4.864 13.476-9.237 28.122-12.955 44.445-5.406 23.756-9.41 51.082-11.482 83.564-0.506 7.925-0.895 16.16-1.163 24.724-0.258 8.306-0.402 16.927-0.421 25.875-0.031 0.003-0.059 0.006-0.090 0.013 0.023 0.226 0.061 0.45 0.087 0.678 5.899 51.69 50.605 91.766 104.187 90.233 37.757-1.079 70.706-23.047 87.364-54.811l50.365 9.678c-19.821 49.354-64.973 85.924-119.381 93.387-87.442 11.994-163.263-51.161-172.043-134.026-0.073-0.693-0.119-2.478-0.146-3.174l-0.001-6.676c0.018-5.903 0.16-15.092 0.539-25.67 0.183-5.153 0.419-10.23 0.693-15.251 2.775-50.809 10.176-94.917 22.415-133.85 0.030-0.090 0.057-0.177 0.086-0.268-27.769-2.932-54.72-9.59-80.274-19.713l-0.018-0.002-0.034-0.017c-38.362-15.204-73.57-38.233-103.627-68.291l9.538 8.534c-40.682-39.699-65.986-95.088-65.986-156.285 0-29.763 5.99-58.148 16.817-84.031 25.825-61.738 79.205-109.18 144.684-126.881 17.221-5.375 35.525-8.272 54.494-8.272 10.11 0 20.029 0.837 29.698 2.419 86.973 14.235 153.556 89.901 153.556 180.838 0 20.773-3.481 40.749-9.879 59.378-13.142 54.395-34.294 91.456-54.922 127.561-6.288 11.010-12.514 21.913-18.499 33.241 10.198-1.718 20.194-4.039 29.951-6.925 106.276-31.444 184.048-129.946 184.048-246.284 0-59.882-20.607-115.040-55.097-158.762-24.484-27.394-53.099-51.013-84.861-69.881-53.554-31.809-116.031-50.11-182.708-50.11-27.403 0-54.094 3.1-79.754 8.944-159.635 36.365-279.132 179.455-279.132 349.94 0 177.598 129.68 325.454 299.316 353.913l-6.546 49.329c-83.813-13.561-161.087-52.819-222.371-113.935-76.53-76.319-119.827-180.26-120.076-288.341-0.253-109.839 42.541-213.123 120.404-290.601 77.532-77.148 183.19-120.052 292.559-118.903 72.921 0.765 142.794 20.532 203.967 56.93 27.007 14.218 52.015 32.573 74.211 54.769 8.033 8.033 15.546 16.446 22.559 25.174 43.538 54.177 67.203 121.031 67.203 191.533 0 31.259-4.661 61.796-13.632 90.835-14.522 47.012-40.351 90.090-76.132 125.871zM403.266 473.834c0.771 0.633 1.557 1.249 2.338 1.872-0.835-0.662-1.665-1.331-2.491-2.006l0.151 0.134zM664.427 314.149c3.326-14.137 6.031-29.586 7.954-46.765-0.627-65.317-48.367-119.567-110.8-130.331-6.657-0.801-13.428-1.225-20.295-1.225-14.779 0-29.116 1.916-42.786 5.5-72.415 18.99-125.996 84.994-125.996 163.282 0 22.391 4.393 43.772 12.346 63.341 10.096 24.843 25.936 46.761 45.873 64.083 3.514 2.963 7.102 5.837 10.773 8.609 39.492 29.837 87.838 48.543 140.336 51.408 4.418-9.674 8.997-18.804 13.654-27.585 4.962-9.356 10.011-18.32 15.036-27.143 1.209-2.122 2.416-4.235 3.62-6.343 19.814-34.679 38.772-67.897 50.285-116.832z"  horiz-adv-x="1024" />

    
    <glyph glyph-name="yangshengqi5" unicode="&#59016;" d="M851.2 44.8l-60.672 66.304a441.024 441.024 0 0 1 84.16 261.248 441.152 441.152 0 0 1-84.16 261.312l60.736 66.24C919.04 611.136 960 497.024 960 372.352c0-124.608-40.896-238.72-108.8-327.552z m-253.888-44.8a59.968 59.968 0 0 0-37.504 13.504l-0.128-0.128-217.856 172.8h-213.76C92.608 186.176 64 217.472 64 256V488.704c0 38.528 28.544 69.76 63.808 69.824V558.72h212.224L556.8 752.192l0.192-0.256A60.416 60.416 0 0 0 597.312 768c35.392 0 64-31.296 64-69.824v-628.352c0-38.528-28.608-69.824-64-69.824z"  horiz-adv-x="1024" />

    
    <glyph glyph-name="bofang" unicode="&#59051;" d="M512 896C228.072727 896 0 667.927273 0 384s228.072727-512 512-512 512 228.072727 512 512S795.927273 896 512 896z m165.236364-546.909091l-232.727273-174.545454c-25.6-18.618182-60.509091 0-60.509091 30.254545v349.090909c0 30.254545 34.909091 48.872727 60.509091 30.254546l232.727273-174.545455c18.618182-16.290909 18.618182-46.545455 0-60.509091z"  horiz-adv-x="1024" />

    
    <glyph glyph-name="yunpan" unicode="&#59071;" d="M856.064 421.376c1.536 12.288 2.56 24.064 2.56 36.352 0 68.096-25.6 132.096-71.168 180.224-46.592 48.64-108.032 75.264-174.08 75.264-48.128 0-94.208-14.336-134.144-41.472-29.696-19.968-54.784-47.104-73.728-78.336-22.016 9.216-45.568 13.824-69.632 13.824-101.376 0-183.808-82.432-183.808-183.808v-6.144c-31.744-10.752-60.416-29.696-82.432-55.296C41.472 327.68 25.6 285.184 25.6 240.64c0-102.4 83.456-185.856 185.856-185.856h601.088c102.4 0 185.856 83.456 185.856 185.856 0 86.016-59.392 160.768-142.336 180.736z m-43.52-305.664H211.456c-69.12 0-125.44 56.32-125.44 124.928 0 61.44 44.032 113.152 104.448 123.392l30.72 5.12-5.632 30.72c-1.536 7.68-2.048 15.872-2.048 23.04 0 67.584 55.296 122.88 122.88 122.88 23.552 0 46.08-6.656 66.048-19.456l29.696-18.944 14.336 32.256c30.208 68.096 95.744 112.64 166.912 112.64 101.888 0 184.832-87.552 184.832-194.56 0-17.92-2.56-35.84-7.168-53.76l-9.728-36.352 37.888-2.048c66.56-3.072 118.784-57.856 118.784-124.928-0.512-69.12-56.32-124.928-125.44-124.928z"  horiz-adv-x="1024" />

    
    <glyph glyph-name="yunpan1" unicode="&#58923;" d="M856.064 421.376c1.536 12.288 2.56 24.064 2.56 36.352 0 68.096-25.6 132.096-71.168 180.224-46.592 48.64-108.032 75.264-174.08 75.264-48.128 0-94.208-14.336-134.144-41.472-29.696-19.968-54.784-47.104-73.728-78.336-22.016 9.216-45.568 13.824-69.632 13.824-101.376 0-183.808-82.432-183.808-183.808v-6.144c-31.744-10.752-60.416-29.696-82.432-55.296C41.472 327.68 25.6 285.184 25.6 240.64c0-102.4 83.456-185.856 185.856-185.856h601.088c102.4 0 185.856 83.456 185.856 185.856 0 86.016-59.392 160.768-142.336 180.736z m-43.52-305.664H211.456c-69.12 0-125.44 56.32-125.44 124.928 0 61.44 44.032 113.152 104.448 123.392l30.72 5.12-5.632 30.72c-1.536 7.68-2.048 15.872-2.048 23.04 0 67.584 55.296 122.88 122.88 122.88 23.552 0 46.08-6.656 66.048-19.456l29.696-18.944 14.336 32.256c30.208 68.096 95.744 112.64 166.912 112.64 101.888 0 184.832-87.552 184.832-194.56 0-17.92-2.56-35.84-7.168-53.76l-9.728-36.352 37.888-2.048c66.56-3.072 118.784-57.856 118.784-124.928-0.512-69.12-56.32-124.928-125.44-124.928z"  horiz-adv-x="1024" />

    
    <glyph glyph-name="xindong2" unicode="&#58910;" d="M185.6 460.8c-6.4 0-12.8 6.4-12.8 12.8-6.4 12.8-6.4 32-6.4 51.2 0 57.6 32 108.8 76.8 134.4 6.4 6.4 19.2 0 19.2-6.4 6.4-6.4 6.4-12.8-6.4-19.2-38.4-25.6-64-64-64-108.8 0-12.8 0-32 6.4-44.8 6.4-6.4 6.4-12.8-12.8-19.2 6.4 0 6.4 0 0 0zM512-51.2c-25.6 0-44.8 6.4-64 25.6l-70.4 70.4C288 134.4 172.8 256 134.4 294.4 83.2 345.6 51.2 390.4 38.4 448c-19.2 83.2 0 172.8 44.8 243.2 44.8 70.4 121.6 115.2 204.8 128C371.2 832 448 812.8 512 768c51.2 38.4 115.2 57.6 172.8 57.6 166.4 0 307.2-134.4 307.2-307.2 0-76.8-32-160-89.6-217.6L576-25.6c-19.2-19.2-38.4-25.6-64-25.6zM339.2 755.2h-38.4c-64-12.8-121.6-51.2-160-102.4-38.4-57.6-51.2-128-38.4-192 12.8-44.8 32-83.2 76.8-121.6l243.2-243.2 70.4-70.4c6.4-6.4 25.6-6.4 32 0l326.4 326.4c44.8 44.8 70.4 108.8 70.4 172.8 0 134.4-108.8 243.2-243.2 243.2-51.2 0-96-12.8-140.8-44.8-19.2-12.8-51.2-12.8-70.4 0-32 19.2-83.2 32-128 32zM512 761.6z"  horiz-adv-x="1024" />

    
    <glyph glyph-name="zanting2" unicode="&#58932;" d="M396.561 221.57c0.092 0.181 0.113 0.024 0.205 0.297-0.16 0.546-0.25 0.478-0.365 0.659l0.16-0.956zM512 816.356C273.227 816.356 79.644 622.773 79.644 384S273.227-48.356 512-48.356 944.356 145.227 944.356 384 750.773 816.356 512 816.356z m0-819.2c-213.651 0-386.844 173.193-386.844 386.844S298.35 770.844 512 770.844 898.844 597.65 898.844 384 725.65-2.844 512-2.844zM440.356 218.54c0-12.567-10.189-22.755-22.756-22.755s-22.756 10.188-22.756 22.756V549.459c0 12.568 10.189 22.756 22.756 22.756s22.756-10.188 22.756-22.756v-330.918z m188.8 0c0-12.567-10.189-22.755-22.756-22.755s-22.756 10.188-22.756 22.756V549.459c0 12.568 10.189 22.756 22.756 22.756s22.756-10.188 22.756-22.756v-330.918z"  horiz-adv-x="1024" />

    
    <glyph glyph-name="shipin" unicode="&#58896;" d="M1583.9232 812.032c-34.6112 21.504-80.1792 21.504-125.0304 0L1128.448 653.312v65.4336c0 97.5872-79.872 177.152-178.0736 177.152H178.176C79.872 895.7952 0 827.4944 0 743.5264v-690.2784c0-100.9664 46.08-177.152 107.1104-177.152h71.4752v70.8608h-71.4752c-7.168 0-35.84 34.2016-35.84 106.2912V743.6288c0 44.032 48.8448 81.3056 106.8032 81.3056h772.3008c58.88 0 106.9056-47.616 106.9056-106.1888V53.248c0-58.5728-48.0256-106.2912-106.9056-106.2912H401.408v-70.8608h548.9664c98.304 0 178.176 79.4624 178.176 177.152v65.1264l330.4448-160.1536c22.528-10.9568 45.2608-16.384 66.7648-16.384 21.0944 0 40.96 5.3248 58.1632 15.9744 34.5088 21.504 54.272 62.2592 54.272 111.9232V700.0064c0 49.664-19.7632 90.4192-54.272 112.0256z m-16.896-742.1952c0-24.576-7.68-43.52-20.8896-51.8144-13.312-8.192-33.6896-6.7584-55.9104 4.096L1128.448 197.2224V574.6688l361.472 173.568c22.2208 10.6496 42.8032 12.0832 56.1152 3.7888 13.312-8.2944 20.992-27.3408 20.992-52.0192v-630.1696zM205.9264 639.5904c0-28.3648 23.1424-51.4048 51.712-51.4048a51.5072 51.5072 0 0 1 51.712 51.4048 51.5072 51.5072 0 0 1-51.712 51.4048 51.5072 51.5072 0 0 1-51.712-51.4048z"  horiz-adv-x="1638" />

    
    <glyph glyph-name="wangyiyunyinle" unicode="&#59234;" d="M603.97 790.79c22.1 6.37 45.78 6.05 68.1 0.92 25.63-6.09 49.88-17.86 70.75-33.9 7.62-5.79 14.5-12.99 18-22.05 5.42-13.4 3.97-29.42-4.03-41.49-6.98-10.84-18.85-18.39-31.64-20.01-10.22-1.4-20.93 0.77-29.71 6.2-4.95 2.91-8.72 7.4-13.69 10.28-13.33 8.46-28.68 15.12-44.73 14.74-11.3-0.13-21.24-6.75-28.9-14.53-7.17-7.4-10.82-18.31-8.45-28.46 5.51-20.74 10.99-41.48 16.49-62.22 39.54-2.03 79.06-12.49 113.05-33.13 33.04-20.44 62.89-46.36 86.56-77.25 20.09-26.18 35.32-56.08 44.64-87.74 10.09-34.12 13.36-70.1 10.73-105.54-2.19-29.24-7.94-58.31-17.86-85.94-25.65-67.28-73.16-126.27-134.31-164.5-44.85-28.33-96.36-45.42-148.89-51.94-36.26-4.53-73.21-4.55-109.29 1.63-74.14 12.25-143.62 49.2-196.35 102.57-52.4 52.5-88.87 120.64-103.62 193.33-10.88 53.01-10.39 108.36 1.68 161.13 14.75 65.07 47.35 125.94 93.18 174.41 37.38 39.8 83.55 71.29 134.23 91.62 5.22 1.99 10.36 4.35 15.92 5.23 11.87 2.08 24.55-0.73 34.27-7.89 13.16-9.29 20.4-26.14 18.21-42.08-1.81-16.27-13.36-30.94-28.75-36.51-51.2-19.14-96.6-53.34-129.28-97.13-29.21-38.86-48.27-85.28-54.66-133.49-6.45-47.72-0.71-97 16.39-142 24.7-65.79 73.81-122.4 136.42-154.62 37.7-19.53 80.14-29.73 122.59-29.44 34.92 0.45 69.95 6.06 102.77 18.2 28.86 10.72 55.91 26.55 78.91 47.07 21.44 19 39.28 41.96 52.89 67.15 6.82 12.85 13.12 26.08 16.97 40.15 11.36 40.22 13.33 83.81 1.18 124.09-10.05 33.78-30.73 63.89-57.14 87.02-11.68 10.22-24.16 19.59-37.54 27.47-11.82 6.64-24.73 11.16-37.9 14.25 9.18-35.9 19-71.65 28.31-107.52 1.58-8.6 3.16-17.2 4.64-25.82 1.36-37.01-11.62-74.29-35.49-102.6-22.24-26.68-53.82-45.45-87.98-51.9-36.82-7.34-76.41-0.41-108.03 20-30.19 19.14-52.49 49.45-64.25 83-6.66 18.77-9.98 38.62-10.64 58.5-2.02 43.25 9.29 87.44 34.03 123.21 29.07 42.69 74.9 72.04 124.04 86.36-3.62 13.84-7.32 27.66-10.98 41.5-9.49 29.87-7.47 63.41 6.69 91.49 7.64 15.67 19 29.32 32.14 40.67 14.63 12.51 31.71 22.39 50.33 27.51M486.64 465.44c-13.18-13.84-22.42-31.34-26.4-50.02-3.58-16.96-3.6-34.64-0.38-51.65 3.93-18.79 13.63-37.17 29.71-48.26 12.48-8.86 28.73-11.55 43.62-8.64 27.55 4.84 50.03 30.19 50.8 58.24-1.05 6.95-2.2 13.9-4.16 20.66-10.29 38.92-20.67 77.81-30.9 116.75-23.28-7.18-45.44-19.28-62.29-37.08z"  horiz-adv-x="1024" />

    
    <glyph glyph-name="pengyou2" unicode="&#58905;" d="M428.864 298.048c-133.824 0-242.688 108.864-242.688 242.688S295.04 783.424 428.864 783.424 671.552 674.56 671.552 540.736 562.688 298.048 428.864 298.048z m0 453.376c-116.16 0-210.688-94.528-210.688-210.688s94.528-210.688 210.688-210.688c116.16 0 210.688 94.528 210.688 210.688s-94.528 210.688-210.688 210.688zM800.896-49.6a15.96 15.96 0 0 0-15.936 14.912c-12.736 186.56-169.216 332.736-356.096 332.736-186.944 0-343.36-146.176-356.096-332.736-0.64-8.896-8.896-15.68-17.088-14.848-8.832 0.576-15.488 8.192-14.848 17.024C54.72 170.88 225.152 330.112 428.864 330.112s374.08-159.232 387.968-362.624c0.64-8.832-6.08-16.448-14.848-17.024-0.384-0.064-0.704-0.064-1.088-0.064zM612.544 300.224c-32.96 0-64.704 6.912-94.464 20.608-8 3.712-11.456 13.184-7.808 21.248s13.312 11.52 21.248 7.872c25.472-11.712 52.736-17.664 81.088-17.664 107.2 0 194.432 87.232 194.432 194.496S719.744 721.28 612.544 721.28c-18.176 0-36.096-2.496-53.312-7.36-8.64-2.56-17.344 2.56-19.776 11.008-2.432 8.448 2.496 17.28 11.008 19.712a227.535 227.535 0 0 0 62.08 8.64c124.864 0 226.432-101.568 226.432-226.496s-101.568-226.56-226.432-226.56zM958.016-22.592a15.96 15.96 0 0 0-15.936 14.912c-11.84 172.608-156.544 307.904-329.472 307.904-30.656 0-60.864-4.096-89.92-12.288-8.576-2.688-17.344 2.496-19.84 11.072-2.368 8.512 2.56 17.28 11.072 19.648 31.936 9.024 65.088 13.568 98.624 13.568 189.76 0 348.416-148.352 361.344-337.728 0.64-8.832-6.08-16.448-14.848-17.024-0.32-0.064-0.64-0.064-1.024-0.064z"  horiz-adv-x="1024" />

    
    <glyph glyph-name="wangyiyunyinle1" unicode="&#58625;" d="M603.97 790.79c22.1 6.37 45.78 6.05 68.1 0.92 25.63-6.09 49.88-17.86 70.75-33.9 7.62-5.79 14.5-12.99 18-22.05 5.42-13.4 3.97-29.42-4.03-41.49-6.98-10.84-18.85-18.39-31.64-20.01-10.22-1.4-20.93 0.77-29.71 6.2-4.95 2.91-8.72 7.4-13.69 10.28-13.33 8.46-28.68 15.12-44.73 14.74-11.3-0.13-21.24-6.75-28.9-14.53-7.17-7.4-10.82-18.31-8.45-28.46 5.51-20.74 10.99-41.48 16.49-62.22 39.54-2.03 79.06-12.49 113.05-33.13 33.04-20.44 62.89-46.36 86.56-77.25 20.09-26.18 35.32-56.08 44.64-87.74 10.09-34.12 13.36-70.1 10.73-105.54-2.19-29.24-7.94-58.31-17.86-85.94-25.65-67.28-73.16-126.27-134.31-164.5-44.85-28.33-96.36-45.42-148.89-51.94-36.26-4.53-73.21-4.55-109.29 1.63-74.14 12.25-143.62 49.2-196.35 102.57-52.4 52.5-88.87 120.64-103.62 193.33-10.88 53.01-10.39 108.36 1.68 161.13 14.75 65.07 47.35 125.94 93.18 174.41 37.38 39.8 83.55 71.29 134.23 91.62 5.22 1.99 10.36 4.35 15.92 5.23 11.87 2.08 24.55-0.73 34.27-7.89 13.16-9.29 20.4-26.14 18.21-42.08-1.81-16.27-13.36-30.94-28.75-36.51-51.2-19.14-96.6-53.34-129.28-97.13-29.21-38.86-48.27-85.28-54.66-133.49-6.45-47.72-0.71-97 16.39-142 24.7-65.79 73.81-122.4 136.42-154.62 37.7-19.53 80.14-29.73 122.59-29.44 34.92 0.45 69.95 6.06 102.77 18.2 28.86 10.72 55.91 26.55 78.91 47.07 21.44 19 39.28 41.96 52.89 67.15 6.82 12.85 13.12 26.08 16.97 40.15 11.36 40.22 13.33 83.81 1.18 124.09-10.05 33.78-30.73 63.89-57.14 87.02-11.68 10.22-24.16 19.59-37.54 27.47-11.82 6.64-24.73 11.16-37.9 14.25 9.18-35.9 19-71.65 28.31-107.52 1.58-8.6 3.16-17.2 4.64-25.82 1.36-37.01-11.62-74.29-35.49-102.6-22.24-26.68-53.82-45.45-87.98-51.9-36.82-7.34-76.41-0.41-108.03 20-30.19 19.14-52.49 49.45-64.25 83-6.66 18.77-9.98 38.62-10.64 58.5-2.02 43.25 9.29 87.44 34.03 123.21 29.07 42.69 74.9 72.04 124.04 86.36-3.62 13.84-7.32 27.66-10.98 41.5-9.49 29.87-7.47 63.41 6.69 91.49 7.64 15.67 19 29.32 32.14 40.67 14.63 12.51 31.71 22.39 50.33 27.51M486.64 465.44c-13.18-13.84-22.42-31.34-26.4-50.02-3.58-16.96-3.6-34.64-0.38-51.65 3.93-18.79 13.63-37.17 29.71-48.26 12.48-8.86 28.73-11.55 43.62-8.64 27.55 4.84 50.03 30.19 50.8 58.24-1.05 6.95-2.2 13.9-4.16 20.66-10.29 38.92-20.67 77.81-30.9 116.75-23.28-7.18-45.44-19.28-62.29-37.08z"  horiz-adv-x="1024" />

    
    <glyph glyph-name="wodeshoucang3" unicode="&#58937;" d="M915.2 169.6c-6.4 22.4-28.8 41.6-51.2 44.8l-48 6.4c-6.4 0-12.8 6.4-16 9.6l-22.4 44.8c-9.6 22.4-32 35.2-57.6 35.2s-48-12.8-57.6-35.2L640 233.6c-3.2-6.4-9.6-9.6-16-9.6l-48-6.4c-25.6-3.2-44.8-19.2-51.2-44.8-6.4-22.4 0-48 16-67.2l35.2-35.2c3.2-3.2 6.4-9.6 6.4-16l-6.4-48c-3.2-25.6 6.4-48 25.6-64 19.2-16 44.8-16 67.2-6.4l38.4 19.2c9.6 3.2 19.2 3.2 25.6 0l38.4-19.2c9.6-6.4 19.2-6.4 28.8-6.4 12.8 0 25.6 3.2 38.4 12.8 19.2 16 28.8 38.4 25.6 64l-6.4 41.6c-3.2 9.6 0 19.2 9.6 25.6l32 32c16 16 22.4 41.6 16 64z m-41.6-38.4l-32-32c-16-16-22.4-35.2-19.2-57.6L832 0c3.2-9.6-3.2-22.4-12.8-28.8-9.6-6.4-19.2-6.4-28.8-3.2L752-12.8c-9.6 6.4-19.2 6.4-28.8 6.4s-19.2-3.2-28.8-6.4L652.8-32c-9.6-6.4-22.4-3.2-28.8 3.2-9.6 6.4-12.8 16-12.8 28.8l9.6 48c3.2 19.2-3.2 35.2-16 48l-35.2 35.2c-9.6 6.4-9.6 19.2-6.4 28.8 3.2 9.6 12.8 19.2 22.4 19.2l48 6.4c19.2 3.2 32 12.8 41.6 28.8l22.4 44.8c6.4 9.6 16 16 25.6 16 9.6 0 22.4-6.4 25.6-16l22.4-44.8c6.4-16 22.4-28.8 41.6-28.8l48-6.4c9.6-3.2 19.2-9.6 22.4-19.2 0-9.6-3.2-22.4-9.6-28.8zM793.6 579.2c0 150.4-121.6 272-272 272s-272-121.6-272-272c0-105.6 60.8-198.4 150.4-243.2-166.4-51.2-297.6-198.4-297.6-352 0-12.8 9.6-25.6 25.6-25.6 12.8 0 25.6 9.6 25.6 25.6 0 163.2 185.6 323.2 371.2 323.2 147.2 0 268.8 121.6 268.8 272z m-272-224c-124.8 0-224 99.2-224 224s99.2 224 224 224 224-99.2 224-224-102.4-224-224-224z"  horiz-adv-x="1024" />

    
    <glyph glyph-name="pengyou3" unicode="&#58885;" d="M697.344 221.184s-1.024 0 0 0a86.88 86.88 0 0 1-26.624 11.264c-67.584 28.672-147.456 66.56-147.456 106.496 0 8.192 13.312 44.032 36.864 77.824 24.576 35.84 28.672 72.704 24.576 114.688-6.112 81.92-63.456 148.48-141.312 148.48s-134.144-66.56-141.312-148.48c-3.072-40.96 1.024-78.848 24.576-114.688 23.552-34.816 36.864-69.632 36.864-77.824 0-40.928-79.872-77.824-147.456-106.496a80.032 80.032 0 0 1-25.6-11.264H189.44c-26.624-17.408-45.056-47.136-45.056-80.896v-34.816c0-11.296 9.216-20.48 20.48-20.48h557.088c11.264 0 20.48 9.184 20.48 20.48v34.816c-0.032 33.76-18.464 63.488-45.088 80.896zM835.552 247.808c-0.992 0-0.992 0 0 0-8.192 5.12-17.376 8.192-25.568 11.264-65.568 27.648-131.104 62.464-131.104 101.376 0 8.192 13.312 42.016 35.84 73.728 23.552 33.792 27.648 69.632 24.576 108.544-6.112 77.824-61.44 140.288-138.208 140.288-14.336 0-46.08-6.144-59.392-11.264l27.648-24.576c10.208 3.072 20.48 5.12 30.72 5.12h2.048c56.32-1.024 101.376-48.128 106.496-112.64 3.072-38.912-2.048-64.512-19.456-89.088s-41.984-68.608-41.984-91.136c0-58.368 75.744-98.304 150.496-130.048l2.048-1.024 2.048-1.024c6.112-0.992 11.264-4.064 16.384-7.168l0.992-1.024c18.432-11.264 28.672-30.688 28.672-51.2 0-12.288-10.24-21.504-21.504-21.504l-55.328-1.024v-30.72l55.328 1.024c28.672 0 52.224 23.52 52.224 53.248 1.088 34.816-17.344 62.464-42.976 78.848z"  horiz-adv-x="1024" />

    
    <glyph glyph-name="shangyishou2" unicode="&#58926;" d="M422.1 366.3l207.6-141.9c10.4-7.1 24.5-4.4 31.6 5.9 2.6 3.8 4 8.3 4 12.8V527c0 12.6-10.2 22.8-22.8 22.8-4.6 0-9.1-1.4-12.8-4L422.1 403.9c-10.4-7.1-13-21.3-5.9-31.6 1.6-2.4 3.6-4.4 5.9-6z m-80.8 142.9v-250.4c0-12.5 10.2-22.7 22.8-22.7 12.7 0 22.8 10.2 22.8 22.7V509.2c0 12.5-10.2 22.7-22.8 22.7-12.7 0-22.8-10.2-22.8-22.7zM512-128C229.2-128 0 101.2 0 384S229.2 896 512 896s512-229.2 512-512-229.2-512-512-512z"  horiz-adv-x="1024" />

    
    <glyph glyph-name="xiazai" unicode="&#59002;" d="M964.416 303.104l150.784 164.992c8 8.768 12.928 20.352 12.928 33.088 0 27.328-22.528 49.536-50.24 49.536-14.848 0-28.16-6.336-37.376-16.384l-63.168-69.12V790.016c0 27.328-22.528 49.536-50.304 49.536-27.776 0-50.24-22.144-50.24-49.536v-324.8l-63.168 69.12c-9.216 10.048-22.528 16.384-37.376 16.384-27.776 0-50.24-22.144-50.24-49.536 0-12.736 4.864-24.32 12.928-33.088l150.784-164.992c9.216-10.048 22.528-16.384 37.376-16.384s28.096 6.336 37.312 16.384z m331.328 12.096v-201.088h-737.28V315.2c0 27.328 11.008 73.664-16.768 73.664s-50.24-22.144-50.24-49.472v-247.552c0-27.328 22.528-49.472 50.24-49.472h770.816c27.776 0 50.24 22.144 50.24 49.472V339.328c0 27.328-22.528 49.472-50.24 49.472-27.776 0.064-16.768-46.272-16.768-73.6z"  horiz-adv-x="1638" />

    
    <glyph glyph-name="wodeshoucang4" unicode="&#58895;" d="M893.588038 721.486765a14.471665 14.471665 0 0 1-7.235833 12.156199 14.471665 14.471665 0 0 1-13.603365 9.551299h-636.753282A70.911161 70.911161 0 0 0 157.848564 805.132991 70.911161 70.911161 0 0 0 235.416691 866.20342h632.122349a15.339965 15.339965 0 0 1 19.392032 14.182232c0 15.339965 0 15.339965-106.511458 15.339965H235.416691A99.565059 99.565059 0 0 1 128.905233 805.132991a76.120961 76.120961 0 0 1 4.052067-23.444098 13.603366 13.603366 0 0 1-0.289434-2.315466v-770.182038a137.480822 137.480822 0 0 1 137.191389-137.191389h607.809951a26.048998 26.048998 0 0 1 16.787132 19.970898zM161.611197 9.191389V740.589363a115.773324 115.773324 0 0 1 73.805494-25.180698h629.228016v-814.465334H270.148689a108.537491 108.537491 0 0 0-108.537492 108.248058zM657.699891 332.777829H522.534535v135.165356a14.471665 14.471665 0 0 1-28.943331 0v-135.165356H358.425848a14.471665 14.471665 0 0 1 0-28.943331h135.165356v-135.165355a14.471665 14.471665 0 0 1 28.943331 0v135.165355h135.165356a14.471665 14.471665 0 0 1 0 28.943331z"  horiz-adv-x="1024" />

    
    <glyph glyph-name="yangshengqi6" unicode="&#58924;" d="M509.227 728.277L286.784 543.936c-16.704-13.867-43.179-23.403-64.896-23.403h-51.157A42.667 42.667 0 0 1 128 477.91v-187.434c0-23.467 19.179-42.624 42.73-42.624h51.137c21.802 0 48.17-9.536 64.896-23.403l222.421-184.32V728.256zM259.54 191.573c-9.045 7.51-25.77 13.59-37.674 13.59H170.73a85.419 85.419 0 0 0-85.398 85.312V477.909A85.333 85.333 0 0 0 170.73 563.2h51.136c11.776 0 28.629 6.08 37.674 13.59l259.584 215.103c18.091 14.998 32.747 8.171 32.747-15.402v-784.64c0-23.488-14.677-30.379-32.747-15.403L259.563 191.595z m436.118 4.822a21.333 21.333 0 1 0-26.027 33.834 196.608 196.608 0 0 1 77.035 156.267c0 57.408-29.27 112.32-77.483 151.637a21.333 21.333 0 1 0 26.965 33.067c57.643-46.997 93.184-113.685 93.184-184.704 0-75.37-35.05-144.981-93.653-190.08z m64-170.667a21.333 21.333 0 1 0-26.027 33.835A414.507 414.507 0 0 1 896 388.97c0 121.642-61.696 237.354-162.816 319.829a21.333 21.333 0 1 0 26.965 33.067C870.7 651.69 938.667 524.224 938.667 388.97A457.173 457.173 0 0 0 759.68 25.749z"  horiz-adv-x="1024" />

    
    <glyph glyph-name="3399ff" unicode="&#58911;" d="M504.778 414.117c-50 30.117-126.508 76.506-173.499 105.415-55.422 33.74-55.422-16.867-55.422-16.867v-235.543s0-50.604 50.604-19.882c59.638 36.144 119.283 72.291 178.316 109.046 48.199 27.714 28.314 40.364 0 57.833zM985.503 646.653c-7.83 4.818-18.071 4.818-26.505 0l-212.05-121.691v73.486c0 55.422-45.79 100.601-101.809 100.601h-518.082c-56.03 0-101.809-45.187-101.809-100.601v-428.319c0-55.422 45.79-100.601 101.809-100.601h518.082c56.03 0 101.809 45.187 101.809 100.601v73.486l212.647-121.086c7.83-4.818 18.071-4.818 26.505 0 7.83 4.818 13.258 13.258 13.258 22.901v478.923c-0.599 8.434-5.422 17.471-13.853 22.289zM946.348 190.02099999999996l-212.647 121.691c-7.83 4.818-18.071 4.818-26.505 0-7.83-4.818-13.258-13.258-13.258-22.901v-119.283c0-26.505-21.692-48.199-48.791-48.199h-518.082c-27.108 0-48.791 21.692-48.791 48.199v428.319c0 26.505 21.692 48.199 48.791 48.199h518.082c27.108 0 48.791-21.692 48.791-48.199v-119.283c0-9.041 5.422-18.071 13.258-22.901s18.071-4.818 26.505 0l212.647 121.086v-386.752z"  horiz-adv-x="1024" />

    
    <glyph glyph-name="wodeshoucang5" unicode="&#58997;" d="M876.3 436.9c8.5 10.2 11.9 23.9 8.5 35.8-3.4 11.9-13.7 22.2-27.3 23.9l-211.6 42.7-104.1 192.9C535 744.1 523 751 511.1 751s-25.6-6.8-30.7-18.8L374.6 539.3l-209.9-41c-13.7-1.7-23.9-11.9-27.3-23.9-3.4-11.9-1.7-27.3 8.5-35.8l146.8-160.4v-1.7L265.4 58c-1.7-13.7 3.4-25.6 15.4-34.1 6.8-5.1 13.7-6.8 20.5-6.8 5.1 0 10.2 1.7 15.4 3.4l194.6 93.9 194.6-93.9c11.9-5.1 25.6-5.1 35.8 3.4 10.2 8.5 17.1 20.5 15.4 34.1l-27.3 216.7v1.7l146.5 160.5zM705.7 300.4c-6.8-8.5-10.2-18.8-8.5-29l27.3-216.7c0-1.7 0-1.7-1.7-1.7l-196.3 92.2c-5.1 1.7-10.2 3.4-15.4 3.4-5.1 0-10.2-1.7-15.4-3.4L301.1 53l-1.7 1.7 27.3 216.7c1.7 10.2-1.7 20.5-8.5 29L169.8 460.8v1.7c0 1.7 1.7 1.7 1.7 1.7l209.9 41c10.2 1.7 18.8 8.5 23.9 18.8l104.1 191.1c0 1.7 1.7 1.7 3.4 0l104.1-192.9c5.1-10.2 13.7-15.4 23.9-18.8l209.9-41s1.7 0 1.7-1.7v-1.7L705.7 300.4z"  horiz-adv-x="1024" />

    
    <glyph glyph-name="yangshengqi7" unicode="&#58925;" d="M682.193 566.436c-12.267 12.406-32.245 12.466-44.572 0.182-12.388-12.283-12.448-32.29-0.183-44.632 37.164-37.58 57.627-87.382 57.627-140.224 0-51.808-19.856-100.94-55.806-138.276-12.084-12.528-11.719-32.532 0.79-44.634 6.133-5.9 14.027-8.878 21.922-8.878 8.258 0 16.516 3.222 22.71 9.667 47.426 49.195 73.538 113.894 73.538 182.181-0.12 69.565-27.082 135.117-76.026 184.614zM776.316 703.315c-13.117 11.492-33.034 10.093-44.512-3.04-11.417-13.135-10.08-33.08 3.036-44.573 79.186-69.199 124.547-169.107 124.547-274.182 0-103.678-44.39-202.673-121.752-271.752-12.995-11.614-14.148-31.56-2.55-44.572 6.253-6.993 14.877-10.58 23.56-10.58 7.47 0 14.939 2.615 20.95 8.027 90.782 80.996 142.884 197.2 142.884 318.877a427.28 427.28 0 0 1-146.163 321.795zM490.878 736.71l-271.622-211.01H109.987v-292.428h110.164l270.884-211.01c31.816-24.785 57.591-12.277 57.591 27.92V708.79c0 40.263-25.855 52.697-57.748 27.921z"  horiz-adv-x="1024" />

    
    <glyph glyph-name="shoucang1" unicode="&#58927;" d="M733.64 47.91a48.81 48.81 0 0 0-23.31 5.62L519.05 159 327.78 53.53c-14-7.71-34.09-7.46-47.73 0.6-8.74 5.16-13.74 13.19-13.74 22V667.05a24.47 24.47 0 0 0 24.57 24.32h456.35a24.47 24.47 0 0 0 24.57-24.32v-590.88c0-8.85-5-16.88-13.74-22a48.57 48.57 0 0 0-24.42-6.26z m-9.13 31.34c5.75-3.18 14.35-2 17.93-0.24V662H295.68v-583c3.59-1.71 12.2-2.94 17.93 0.24l205.44 113.25zM625.8 421.35a75.46 75.46 0 0 1-106.53 106.54l-0.52 0.52-0.25-0.25c-29.78 25.93-74.81 25-103.16-3.32S386.1 451.47 412 421.68l-0.37-0.37 103.55-103.52a5 5 0 0 1 7.13 0l97.12 97.12c1.08 1 2.29 1.68 3.32 2.71s1.75 2.24 2.71 3.32l0.36 0.36zM518.74 301.64a19.67 19.67 0 0 0-13.92 5.74L390.89 421.32l1.81 1.81c-22.18 35.13-17.79 82 12.25 112.1s77 34.45 112.11 12.26l1.44 1.44 1.91-1.82c35.17 22.67 82.41 18.43 112.74-11.88s34.53-77.32 12-112.49l1.3-1.3-10.13-10.38a37.64 37.64 0 0 0-3.15-3.78 33.48 33.48 0 0 0-3.47-2.93l-97-96.94a19.74 19.74 0 0 0-13.96-5.77zM427.7 426l91-91.05 90.3 90.31c1.18 1.08 1.94 1.7 2.65 2.24l3.08 3.52c21.27 24.15 20.21 60.79-2.41 83.4s-59.25 23.68-83.4 2.41l-9.53-8.53-0.08 0.06-0.73-0.65-9.77 9.33c-24.16 21-60.66 19.86-83.14-2.63s-23.63-59-2.62-83.13z"  horiz-adv-x="1024" />

    
    <glyph glyph-name="wodeshoucang6" unicode="&#58887;" d="M669.37 654.374c80.204 0 148.921-59.161 159.833-137.619 7.603-54.509-7.565-100.429-46.297-140.41-81.504-84.108-227.693-230.591-256.173-259.103-2.925-2.932-6.26-3.546-8.531-3.546-2.279 0-5.607 0.614-8.519 3.546-64.096 64.345-180.454 181.344-247.731 249.152-30.22 30.444-48 63.142-54.349 99.916-11.366 65.818 19.879 132.525 77.754 165.99 24.864 14.388 52.832 21.991 80.89 21.991 40.902 0 80.313-15.897 110.956-44.774 13.517-12.743 26.944-16.615 38.279-16.615 14.572 0 25.683 6.407 29.03 8.576 7.168 4.672 14.08 9.485 20.915 14.24 12.32 8.55 23.917 16.634 34.931 22.176 21.677 10.932 44.91 16.48 69.012 16.48m0 53.14c-31.053 0-62.637-6.99-92.621-22.1-21.03-10.604-39.898-25.612-60.915-39.334 0 0-1.37 1.069-2.618 2.246-41.376 38.99-93.875 59.11-146.976 59.11-36.576 0-73.44-9.548-107.149-29.042-77.446-44.794-118.662-133.088-103.443-221.19 8.742-50.625 33.389-92.468 69.011-128.398 67.303-67.808 183.687-184.844 247.789-249.222 12.66-12.691 29.197-19.027 45.747-19.027 16.538 0 33.05 6.31 45.69 18.97 65.824 65.887 186.899 187.596 256.742 259.654 49.274 50.854 70.74 113.645 60.82 184.94-15.188 109.07-110.785 183.393-212.077 183.393z"  horiz-adv-x="1024" />

    
    <glyph glyph-name="yangshengqi8" unicode="&#58912;" d="M816.295523 594.717783l187.887445 187.887445A66.358342 66.358342 0 1 1 910.27121 876.516986l-187.887445-187.887445a66.358342 66.358342 0 1 1 93.911758-93.911758zM447.744615 844.104963L255.957499 646.883879v-7.160052H128.099421a127.858078 127.858078 0 0 1-127.858077-127.858078v-255.716155a127.858078 127.858078 0 0 1 127.858077-127.858078h127.858078v-7.160052l191.787116-197.157155s127.858078-152.023254 127.858077 65.719051V778.321983C575.602692 996.064289 447.744615 844.104963 447.744615 844.104963z m0-651.884408c0-103.884688-63.929039 0-63.929039 0l-63.929039 63.929039H192.02846a63.929039 63.929039 0 0 0-63.929039 63.929039v127.858077a63.929039 63.929039 0 0 0 63.929039 63.929039h127.858077l63.929039 63.929039c0.127858 4.283246 63.545465 120.570167 62.970103 22.119447-0.191787-41.617804 0.063929-101.327526 0.383575-147.292505 0.063929-0.958936 0.575361-1.726084 0.575361-2.68502v-255.716155z m368.550908-18.922995a66.358342 66.358342 0 1 1-93.911758-93.911758l187.887445-187.887445a66.358342 66.358342 0 1 1 93.911758 93.911758l-187.887445 187.887445zM767.389809 447.93671a63.929039 63.929039 0 0 1 0-127.858077h191.787116a63.929039 63.929039 0 0 1 0 127.858077h-191.787116z"  horiz-adv-x="1024" />

    
    <glyph glyph-name="shangyishou3" unicode="&#58626;" d="M432.986328125 368.443359375l182.4609375-124.716796875c9.140625-6.240234375 21.533203125-3.8671875 27.7734375 5.185546875 2.28515625 3.33984375 3.515625 7.294921875000001 3.515625 11.25V509.68359375c0 11.07421875-8.96484375 20.0390625-20.0390625 20.0390625-4.04296875 0-7.998046875-1.23046875-11.25-3.515625L432.986328125 401.490234375c-9.140625-6.240234375-11.42578125-18.720703125-5.185546875-27.7734375 1.40625-2.109375 3.1640625-3.8671875 5.185546875-5.2734375z m-71.015625 125.595703125v-220.078125c0-10.986328125 8.96484375-19.951171875 20.0390625-19.951171875 11.162109375 0 20.0390625 8.96484375 20.0390625 19.951171875V494.0390625c0 10.986328125-8.96484375 19.951171875-20.0390625 19.951171875-11.162109375 0-20.0390625-8.96484375-20.0390625-19.951171875zM512-66C263.4453125-66 62 135.4453125 62 384S263.4453125 834 512 834s450-201.4453125 450-450-201.4453125-450-450-450z"  horiz-adv-x="1024" />

    
    <glyph glyph-name="xiayishou1" unicode="&#58628;" d="M600.505859375 368.443359375c2.021484375 1.40625 3.8671875 3.1640625 5.185546875 5.185546875 6.240234375 9.140625 3.8671875 21.533203125-5.185546875 27.7734375L418.044921875 526.119140625c-3.33984375 2.28515625-7.294921875000001 3.515625-11.25 3.515625-11.07421875 0-20.0390625-8.96484375-20.0390625-20.0390625v-249.43359375c0-4.04296875 1.23046875-7.998046875 3.515625-11.25 6.240234375-9.140625 18.720703125-11.42578125 27.7734375-5.185546875l182.4609375 124.716796875z m71.015625 125.595703125c0 10.986328125-8.876953125 19.951171875-20.0390625 19.951171875-11.07421875 0-20.0390625-8.96484375-20.0390625-19.951171875v-220.078125c0-10.986328125 8.876953125-19.951171875 20.0390625-19.951171875 11.07421875 0 20.0390625 8.96484375 20.0390625 19.951171875V494.0390625zM512-66C263.4453125-66 62 135.4453125 62 384S263.4453125 834 512 834s450-201.4453125 450-450-201.4453125-450-450-450z"  horiz-adv-x="1024" />

    
    <glyph glyph-name="shoucang2" unicode="&#58630;" d="M509.607 752.886c9.083 0 17.328-4.84 20.996-12.332l97.262-197.442c5.614-11.404 16.664-19.36 29.439-21.216l223.739-32.553c8.42-1.215 15.604-6.85 18.233-14.254 2.52-7.184 0.595-15.062-5.085-20.587L730.253 294.38800000000003c-8.95-8.751-12.995-21.171-10.916-33.37l38.011-222.06c1.326-7.738-2.165-15.427-8.905-19.978-4.089-2.742-8.862-4.156-13.813-4.156-4.023 0-8 0.972-11.425 2.74L528.149 120.33000000000004a40.193 40.193 0 0 1-18.542 4.552c-6.365 0-12.728-1.547-18.519-4.552L296.255 17.649999999999977c-3.56-1.855-7.602-2.828-11.669-2.828-4.862 0-9.723 1.46-13.546 4.022-6.962 4.685-10.476 12.42-9.128 20.156l38.011 222.016c2.079 12.199-1.988 24.62-10.939 33.37l-163.96 160.17c-5.635 5.492-7.558 13.348-5.061 20.454 2.63 7.481 9.812 13.117 18.298 14.332l223.675 32.553c12.84 1.857 23.867 9.813 29.481 21.216l97.195 197.397c3.713 7.525 11.979 12.377 20.995 12.377m0 38.21c-24.044 0-45.923-13.226-56.177-33.957l-97.24-197.441-223.674-32.543c-22.984-3.304-42.101-18.718-49.482-39.659-7.381-21.048-1.813-44.232 14.431-60.033l163.917-160.126L223.37 45.32000000000005c-3.868-22.408 6.032-44.82 25.459-57.946 10.696-7.116 23.204-10.785 35.757-10.785a65.535 65.535 0 0 1 30.056 7.337l194.988 102.72 195.032-102.719a65.268 65.268 0 0 1 29.99-7.337c12.576 0 25.083 3.669 35.78 10.785 19.426 13.127 29.305 35.538 25.46 57.946L757.88 267.33799999999997l163.937 160.126c16.222 15.812 21.811 38.985 14.408 60.033-7.402 20.941-26.519 36.354-49.503 39.66l-223.674 32.54-97.241 197.442c-10.187 20.73-32.111 33.957-56.2 33.957z"  horiz-adv-x="1024" />

    
    <glyph glyph-name="xiazai1" unicode="&#58632;" d="M494.64320000000004 242.13120000000004c4.7808-4.8 11.0976-6.816000000000001 17.3376-6.528 6.239999999999999-0.3264 12.537600000000001 1.728 17.3376 6.528l157.9392 158.976a23.136 23.136 0 0 1 0 32.5632 22.8096 22.8096 0 0 1-32.3904 0l-120.03840000000001-120.78719999999998V648.96c0 12.7296-10.2336 23.04-22.8672 23.04s-22.886400000000002-10.3104-22.886400000000002-23.04v-336.0576l-120.0192 120.78719999999998a22.7904 22.7904 0 0 1-32.3904 0 23.136 23.136 0 0 1 0-32.5632l157.97760000000002-158.99519999999998zM786.6944 142.07999999999993H237.28640000000001c-12.6336 0-22.886400000000002-10.3104-22.886400000000002-23.04s10.2528-23.04 22.886400000000002-23.04h549.408c12.6336 0 22.9056 10.3104 22.9056 23.04s-10.272 23.04-22.9056 23.04z"  horiz-adv-x="1024" />

    
    <glyph glyph-name="xiazai2" unicode="&#58977;" d="M619.008 63.488L542.72-11.264V258.56h-51.2v-269.824l-76.288 74.752-35.84-36.864 137.728-134.656 137.728 134.656zM748.544 630.784c-9.728 44.544-32.256 85.504-66.048 118.272-44.544 43.52-103.424 67.584-165.376 67.584-61.952 0-120.832-24.064-165.376-67.584-33.28-32.768-56.32-73.728-66.048-118.272-108.544-21.504-190.976-117.76-190.976-232.448 0-130.048 105.472-236.032 235.52-237.056H435.2v51.2h-104.448c-101.888 0.512-185.344 83.968-185.344 185.856s83.456 185.344 185.344 185.856c2.56 99.84 84.992 181.248 185.856 181.248 100.864 0 183.296-80.896 185.856-181.248 101.888-0.512 185.344-83.968 185.344-185.856s-83.456-185.344-185.344-185.856H599.04v-51.2h104.96c130.048 1.024 235.52 107.008 235.52 237.056 0 114.688-82.432 210.944-190.976 232.448z"  horiz-adv-x="1024" />

    
    <glyph glyph-name="icon-" unicode="&#58631;" d="M40.96 384A471.04 471.04 0 1 1 512 855.04 471.04 471.04 0 0 1 40.96 384z m40.96 0a430.08 430.08 0 1 0 430.08-430.08A430.08 430.08 0 0 0 81.92 384zM593.92 506.88h40.96v-327.68h-40.96zM593.92 588.8h40.96v-40.96h-40.96zM327.68 588.8v-409.6l286.72 204.8z m40.96-327.68V506.88l184.32-122.88z"  horiz-adv-x="1024" />

    
    <glyph glyph-name="wangyiyunyinle2" unicode="&#58634;" d="M616.64142222 846.83662222c25.14488889 7.24764445 52.08746667 6.88355555 77.48266667 1.04675556 29.16124445-6.92906667 56.75235555-20.32071111 80.49777778-38.57066667 8.66986667-6.58773333 16.49777778-14.77973333 20.48-25.088 6.16675555-15.24622222 4.51697778-33.47342222-4.58524445-47.2064-7.94168889-12.33351111-21.44711111-20.92373333-35.99928889-22.76693333-11.62808889-1.59288889-23.81368889 0.87608889-33.80337778 7.05422222-5.632 3.31093333-9.92142222 8.41955555-15.57617777 11.69635555-15.16657778 9.6256-32.63146667 17.2032-50.8928 16.77084445-12.85688889-0.14791111-24.1664-7.68-32.88177778-16.53191111-8.15786667-8.41955555-12.31075555-20.83271111-9.61422222-32.38115556 6.26915555-23.59751111 12.50417778-47.19502222 18.76195555-70.79253333 44.98773333-2.30968889 89.95271111-14.21084445 128.62577778-37.69457778 37.59217778-23.25617778 71.55484445-52.74737778 98.48604444-87.89333333 22.85795555-29.78702222 40.18631111-63.80657778 50.7904-99.82862222 11.48017778-38.82097778 15.20071111-79.75822222 12.20835556-120.08106667-2.49173333-33.26862222-9.03395555-66.34382222-20.32071111-97.78062222-29.184-76.54968889-83.23982222-143.6672-152.81493333-187.16444445-51.02933333-32.23324445-109.63626667-51.67786667-169.40373334-59.09617778-41.25582222-5.15413333-83.29671111-5.17688889-124.34773333 1.85457778-84.35484445 13.93777778-163.40764445 55.97866667-223.40266667 116.70186667-59.61955555 59.73333333-101.11431111 137.26151111-117.89653333 219.96657778-12.37902222 60.3136-11.82151111 123.2896 1.91146667 183.33013333 16.78222222 74.0352 53.87377778 143.29173333 106.01813333 198.43982222 42.53013333 45.28355555 95.06133333 81.11217778 152.72391111 104.2432 5.9392 2.26417778 11.78737778 4.94933333 18.11342222 5.95057778 13.50542222 2.36657778 27.93244445-0.83057778 38.99164445-8.97706666 14.97315555-10.56995555 23.21066667-29.74151111 20.71893333-47.8776889-2.05937778-18.51164445-15.20071111-35.20284445-32.71111111-41.54026666-58.25422222-21.77706667-109.90933333-60.68906667-147.09191111-110.51235556-33.23448889-44.21404445-54.92053333-97.02968889-62.19093334-151.88195555-7.33866667-54.29475555-0.80782222-110.36444445 18.64817778-161.56444445 28.10311111-74.8544 83.97937778-139.264 155.21564445-175.9232 42.89422222-22.2208 91.18151111-33.82613333 139.48017777-33.49617778 39.7312 0.512 79.58755555 6.89493333 116.92942223 20.70755556 32.83626667 12.19697778 63.61315555 30.208 89.78204444 53.5552 24.39395555 21.61777778 44.69191111 47.74115555 60.17706667 76.40177778 7.75964445 14.62044445 14.92764445 29.67324445 19.30808889 45.68177778 12.92515555 45.76142222 15.16657778 95.35715555 1.34257777 141.18684444-11.43466667 38.43413333-34.96391111 72.69262222-65.01262222 99.00942222-13.28924445 11.62808889-27.48871111 22.28906667-42.71217778 31.25475556-13.44853333 7.55484445-28.13724445 12.6976-43.12177777 16.21333333 10.4448-40.84622222 21.61777778-81.52177778 32.21048889-122.33386667 1.79768889-9.78488889 3.59537778-19.56977778 5.27928888-29.37742222 1.54737778-42.10915555-13.22097778-84.52551111-40.37973333-116.736-25.30417778-30.35591111-61.2352-51.712-100.10168889-59.05066666-41.89297778-8.35128889-86.9376-0.46648889-122.91413333 22.75555555-34.34951111 21.77706667-59.72195555 56.26311111-73.10222222 94.43555556-7.5776 21.35608889-11.35502222 43.94097778-12.10595556 66.56-2.29831111 49.20888889 10.56995555 99.48728889 38.71857778 140.1856 33.0752 48.57173333 85.21955555 81.96551111 141.12995555 98.25848889-4.11875555 15.74684445-8.32853333 31.47093333-12.4928 47.21777778-10.79751111 33.98542222-8.4992 72.14648889 7.61173334 104.09528888 8.69262222 17.82897778 21.61777778 33.35964445 36.56817778 46.27342222 16.64568889 14.2336 36.07893333 25.47484445 57.26435555 31.30026667M483.14595555 476.66062222c-14.99591111-15.74684445-25.50897778-35.65795555-30.03733333-56.91164444-4.07324445-19.29671111-4.096-39.41262222-0.43235555-58.76622223 4.47146667-21.37884445 15.50791111-42.2912 33.80337778-54.90915555 14.19946667-10.08071111 32.68835555-13.14133333 49.62986666-9.8304 31.34577778 5.50684445 56.92302222 34.34951111 57.79911111 66.26417778-1.19466667 7.90755555-2.50311111 15.81511111-4.73315555 23.50648889-11.70773333 44.28231111-23.51786667 88.53048889-35.15733334 132.83555555-26.48746667-8.16924445-51.70062222-21.93635555-70.87217778-42.1888z"  horiz-adv-x="1024" />

    
    <glyph glyph-name="wangyiyunyinle3" unicode="&#58904;" d="M116.93928297 888.83756247c-49.71026963-23.19812583-96.93502578-75.39390894-114.33362015-127.58969205-19.88410785-56.33830558-19.88410785-709.19984672 0-765.53815229 18.22709886-53.8527921 64.62335052-105.22007072 116.81913363-127.58969205l44.73924266-19.88410786h715.82788267l42.25372919 19.88410786c49.71026963 23.19812583 96.93502578 75.39390894 114.33362014 127.58969205 19.88410785 56.33830558 19.88410785 709.19984672 0 765.53815229-17.39859437 52.19578311-64.62335052 104.39156622-114.33362014 127.58969205l-42.25372919 19.88410784h-720.79890963l-42.25372918-19.88410784z m590.72370409-89.47848533c33.96868425-14.08457639 68.76587298-48.88176514 68.76587299-67.9373685s-22.36962133-46.39625165-38.11120672-46.39625166c-5.79953147 0-25.68363931 7.45654045-43.91073816 17.39859438-40.59672019 20.71261235-58.82381906 18.22709886-74.56540445-9.94205393-9.94205392-18.22709886-10.77055842-28.1691528-2.48551348-55.50980108 9.11354943-30.65466627 13.2560719-33.96868425 49.71026962-43.08223368 93.62100781-22.36962133 156.58734933-78.70792691 193.87005156-173.1574392 24.02663031-61.30933253 26.51214381-191.38453808 4.14252247-253.52237512-28.99765728-82.85044939-109.36259318-161.5583763-204.64060998-198.01257404-50.53877413-19.88410785-152.44482686-26.51214381-207.95462794-13.25607189-249.37985264 57.99531457-376.96954469 373.65552672-243.58032119 601.49426252 43.91073817 75.39390894 163.21538528 177.29996169 207.12612346 177.29996167 9.94205392 0 24.85513482-7.45654045 32.31167526-15.74158537 26.51214381-28.99765728 13.2560719-50.53877413-57.99531458-101.07754826-101.07754825-72.07989097-144.98828642-153.27333136-144.98828642-267.6069515 0-92.79250331 34.79718875-172.32893472 104.39156623-236.12378073 57.16681008-52.19578311 102.73455724-70.42288197 182.27098864-71.25138648 111.01960217 0 190.55603358 47.22475615 236.95228524 140.84576395 24.85513482 50.53877413 25.68363931 57.16681008 22.36962133 127.58969205-3.31401797 63.79484603-6.62803595 79.53643141-28.16915279 113.50511565-23.19812583 37.28270222-94.4495123 88.64998083-106.8770797 77.05091793-2.48551348-3.31401797 2.48551348-34.79718875 12.4275674-70.42288198 9.11354943-35.62569324 16.57008987-72.07989097 16.57008988-81.19344039 0-67.108864-52.19578311-136.70324148-115.16212464-154.10183585-106.8770797-28.99765728-193.87005155 53.02428761-193.87005156 183.09949313 0 90.30698983 44.73924267 158.24435831 127.58969205 195.52706055l29.82616178 13.25607189-3.31401797 71.25138649c-4.14252247 64.62335052-2.48551348 73.73689995 14.08457639 95.27801678 40.59672019 50.53877413 106.8770797 68.76587298 163.21538528 44.73924267zM514.62144 478.72783803c-26.51214381-16.57008987-53.02428761-67.9373685-53.02428761-105.22007072 0-31.48317076 21.54111683-75.39390894 41.4252247-86.16446736 36.45419773-19.88410785 91.13549431 14.08457639 91.13549432 56.33830558 0 12.42756741-6.62803595 51.36727861-14.08457639 86.99297186-16.57008987 70.42288197-22.36962133 74.56540445-65.45185502 48.05326064z"  horiz-adv-x="1028" />

    
    <glyph glyph-name="zantingtingzhi" unicode="&#58635;" d="M512 896c-281.6 0-512-230.4-512-512s230.4-512 512-512c117.76 0 227.84 38.4 320 110.08 10.24 7.68 12.8 23.04 5.12 35.84-7.68 10.24-23.04 12.8-35.84 5.12-81.92-66.56-184.32-99.84-289.28-99.84-256 0-460.8 204.8-460.8 460.8s204.8 460.8 460.8 460.8 460.8-204.8 460.8-460.8c0-87.04-25.6-171.52-69.12-243.2C896 128 901.12 112.63999999999999 911.36 107.51999999999998c12.8-7.68 28.16-2.56 33.28 7.68 51.2 79.36 76.8 174.08 76.8 271.36C1024 665.6 793.6 896 512 896z m174.08-307.2h-348.16c-17.92 0-30.72-12.8-30.72-30.72v-348.16c0-17.92 12.8-30.72 30.72-30.72h348.16c17.92 0 30.72 12.8 30.72 30.72v348.16c0 17.92-12.8 30.72-30.72 30.72z m-20.48-350.72c0-5.12-2.56-7.68-7.68-7.68h-291.84c-5.12 0-7.68 2.56-7.68 7.68v291.84c0 5.12 2.56 7.68 7.68 7.68h291.84c5.12 0 7.68-2.56 7.68-7.68v-291.84z"  horiz-adv-x="1024" />

    
    <glyph glyph-name="shipin1" unicode="&#58878;" d="M179.796 526.829c-10.762 0-19.489-8.725-19.489-19.487 0-10.766 8.727-19.489 19.489-19.489 10.764 0 19.489 8.723 19.489 19.489 0 10.762-8.726 19.487-19.489 19.487z m769.18 57.106a19.409 19.409 0 0 1-19.888-0.743L705.996 435.827V546.32c0 43.053-34.904 77.953-77.955 77.953H140.818c-43.053 0-77.953-34.901-77.953-77.953v-389.776c0-43.055 34.901-77.955 77.953-77.955H628.04c43.051 0 77.955 34.901 77.955 77.955v93.93l222.94-149.59a19.454 19.454 0 0 1 19.964-0.877 19.47 19.47 0 0 1 10.239 17.15V566.826a19.473 19.473 0 0 1-10.162 17.109z m-281.96-180.688a19.547 19.547 0 0 1-0.4-3.903v-112.063c0-1.321 0.14-2.624 0.4-3.894v-126.845c0-21.527-17.452-38.98-38.976-38.98H140.818c-21.525 0-38.978 17.452-38.978 38.98V546.32c0 21.525 17.452 38.978 38.978 38.978H628.04c21.523 0 38.976-17.452 38.976-38.978v-143.073z m253.146-249.929L705.996 297.52v91.471l214.166 142.055v-377.728z"  horiz-adv-x="1024" />

    
    <glyph glyph-name="fenxiang1" unicode="&#58906;" d="M826.207793 186.485086a157.242543 157.242543 0 0 1-125.794035-63.68323l-356.15436 205.594626A157.242543 157.242543 0 0 1 354.480163 383.038265a157.242543 157.242543 0 0 1-1.965532 20.048425L724.393246 618.90208A157.242543 157.242543 0 1 1 668.96525 736.833987a157.242543 157.242543 0 0 1 10.220765-54.641783L323.031655 476.597578A157.242543 157.242543 0 1 1 299.052167 265.106358l372.271721-214.636072A157.242543 157.242543 0 0 1 668.96525 29.242543a157.242543 157.242543 0 1 1 157.242543 157.242543z m0 628.970173a78.621272 78.621272 0 1 0-78.621272-78.621272 78.621272 78.621272 0 0 0 78.621272 78.621272zM197.23762 304.416994a78.621272 78.621272 0 1 0 78.621272 78.621271 78.621272 78.621272 0 0 0-78.621272-78.621271z m628.970173-353.795722a78.621272 78.621272 0 1 0 78.621271 78.621271 78.621272 78.621272 0 0 0-78.621271-78.621271z"  horiz-adv-x="1024" />

    
    <glyph glyph-name="wangyiyunyinle4" unicode="&#59374;" d="M627.086668 890.885037c28.132297 7.672445 58.822075 7.672445 86.954372 0 33.24726-7.672445 63.937038-23.017334 89.511853-43.477186 10.229926-7.672445 17.902371-15.344889 23.017334-28.132297 7.672445-17.902371 5.114963-38.362223-5.114963-53.707112-7.672445-12.787408-23.017334-23.017334-40.919704-25.574815-12.787408-2.557482-25.574815 0-38.362223 7.672445-5.114963 2.557482-10.229926 10.229926-17.902371 12.787407-17.902371 10.229926-35.804741 20.459852-56.264593 17.902371-15.344889 0-28.132297-7.672445-35.804742-17.902371-10.229926-10.229926-12.787408-23.017334-10.229926-35.804741 7.672445-25.574815 12.787408-53.707112 20.459853-79.281927 51.14963-2.557482 99.741779-15.344889 143.218965-40.919704 40.919704-25.574815 79.281927-58.822075 109.971705-97.184298 25.574815-33.24726 46.034667-71.609483 56.264593-112.529187 12.787408-43.477186 17.902371-89.511853 12.787408-132.989039-2.557482-38.362223-10.229926-74.166964-23.017334-109.971705-33.24726-84.39689-92.069335-161.121336-171.351261-209.713485-56.264593-35.804741-122.759113-58.822075-189.253633-66.49452-46.034667-5.114963-92.069335-5.114963-138.104002 2.557482-94.626816 15.344889-181.581188 61.379556-250.633189 130.431558-66.49452 66.49452-112.529187 153.448891-132.989039 245.518225-7.672445 69.052001-7.672445 138.104002 7.672445 207.156004 17.902371 81.839409 61.379556 161.121336 117.644149 222.500892 48.592149 51.14963 107.414224 89.511853 171.351262 117.64415 7.672445 2.557482 12.787408 5.114963 20.459852 7.672444 15.344889 2.557482 30.689778 0 43.477186-10.229926 17.902371-12.787408 25.574815-33.24726 23.017334-53.707112-2.557482-20.459852-17.902371-38.362223-35.804741-46.034667-63.937038-25.574815-122.759113-69.052001-163.678818-122.759113C205.102218 522.607698 179.527402 463.785623 171.854958 402.406067c-7.672445-61.379556 0-122.759113 20.459852-181.581188 30.689778-84.39689 94.626816-156.006373 173.908743-196.926077 48.592149-25.574815 102.299261-38.362223 156.006373-38.362223 43.477186 0 89.511853 7.672445 130.431558 23.017334 35.804741 12.787408 71.609483 33.24726 99.741779 58.822074 28.132297 23.017334 51.14963 53.707112 66.494519 84.396891 7.672445 15.344889 17.902371 33.24726 20.459853 51.14963 15.344889 51.14963 17.902371 107.414224 2.557481 158.563854-12.787408 43.477186-38.362223 81.839409-71.609482 109.971706-15.344889 12.787408-30.689778 25.574815-48.592149 35.804741-15.344889 7.672445-30.689778 15.344889-48.592149 17.902371 12.787408-46.034667 23.017334-92.069335 35.804741-135.546521 2.557482-10.229926 5.114963-23.017334 5.114963-33.24726 2.557482-46.034667-15.344889-94.626816-46.034667-130.431557-28.132297-33.24726-69.052001-58.822075-112.529187-66.49452-46.034667-10.229926-97.184298 0-138.104002 25.574815-38.362223 25.574815-66.49452 63.937038-81.839409 104.856743-7.672445 23.017334-12.787408 48.592149-12.787407 74.166964-2.557482 56.264593 12.787408 109.971705 43.477185 156.006373 35.804741 53.707112 94.626816 92.069335 158.563855 109.971705-5.114963 17.902371-10.229926 35.804741-12.787408 53.707112-12.787408 38.362223-10.229926 81.839409 7.672445 115.086668 10.229926 20.459852 23.017334 38.362223 40.919704 51.149631C583.609483 870.425185 604.069335 883.212592 627.086668 890.885037m-148.333928-414.312006c-17.902371-17.902371-28.132297-40.919704-33.24726-63.937038-5.114963-20.459852-5.114963-43.477186 0-66.49452 5.114963-23.017334 17.902371-46.034667 38.362223-61.379556 15.344889-10.229926 35.804741-15.344889 56.264594-10.229926 35.804741 5.114963 63.937038 38.362223 63.937038 74.166964-2.557482 7.672445-2.557482 17.902371-5.114963 25.574815-12.787408 48.592149-25.574815 99.741779-38.362223 148.333928-30.689778-7.672445-58.822075-23.017334-81.839409-46.034667z"  horiz-adv-x="1024" />

    
    <glyph glyph-name="fenxiang2" unicode="&#59267;" d="M984.119127 378.885202a34.45955 34.45955 0 0 1-34.45955-34.45955v-325.830403a75.913366 75.913366 0 0 0-75.856502-75.856502H146.513224a75.913366 75.913366 0 0 0-75.856502 75.856502V703.009686a75.913366 75.913366 0 0 0 75.856502 75.572182h237.065785a34.45955 34.45955 0 0 1 0 68.919101H146.513224A144.946195 144.946195 0 0 1 1.737621 703.009686v-684.471301a144.946195 144.946195 0 0 1 144.775603-144.775603h727.289851a144.946195 144.946195 0 0 1 144.775603 144.775603v325.830403a34.45955 34.45955 0 0 1-34.459551 34.516414z m-723.309375-201.980731a34.45955 34.45955 0 0 1 27.692741-40.089081 34.118367 34.118367 0 0 1 6.255034-0.56864 34.45955 34.45955 0 0 1 34.118367 28.431973 881.391141 881.391141 0 0 0 122.541801 290.290437c55.385482 83.874318 122.484937 150.575725 199.478717 198.227711a599.40284 599.40284 0 0 0 247.699343 84.613549L786.460056 622.035429a34.45955 34.45955 0 1 1 49.471632-47.993169l173.719351 179.235153 0.341183 0.398048 0.511776 0.568639 0.568639 0.625503 0.511776 0.625504 0.568639 0.682367 0.511776 0.625504 0.568639 0.796095 0.341184 0.511775 0.341183 0.56864 0.341184 0.511775 0.511776 0.909823 0.284319 0.511776 0.398048 0.739231 0.28432 0.625503 0.398047 0.85296 0.28432 0.739231 0.341184 0.796095 0.284319 0.796095V774.089617v2.103966 1.080415 2.160829V784.836902c0 0.511776 0 1.023551-0.398047 1.478463l-0.398048 1.251007-0.28432 0.909823v0.398047l-0.341183 0.909823v0.511776l-0.398048 0.966687c-0.341184 0.682367-0.682367 1.364735-1.023551 1.990238l-0.796095 1.364735-0.511776 0.796095v0.398048l-0.284319 0.398047V797.06265l-0.56864 0.682368-0.28432 0.341183-0.739231 0.796096-1.137279 1.137278-1.137279 1.080415-1.194142 1.023551-1.194143 0.909823-1.080415 0.796096h-0.341184l-0.568639 0.341183h-0.454912l-0.511775 0.28432H1002.429318l-0.625504 0.341184-0.852959 0.454911-0.682367 0.341184-0.852959 0.398048-0.739232 0.341183-0.739231 0.28432-0.852959 0.341184h-1.137279L742.049315 894.129404a34.482296 34.482296 0 1 1-21.722026-65.450401l101.78646-33.720319a653.935363 653.935363 0 0 1-207.496533-83.135087c-85.295917-52.940332-159.787684-126.579141-220.688969-218.812458a940.415915 940.415915 0 0 1-133.061631-316.106668z m0 0"  horiz-adv-x="1024" />

    
    <glyph glyph-name="yinyue" unicode="&#59087;" d="M179.2-128C81.454545-128 0-48.872727000000054 0 51.200000000000045s79.127273 179.2 179.2 179.2c39.563636 0 76.8-13.963636 109.381818-37.236364l9.309091-6.981818V761.018182c0 34.909091 27.927273 62.836364 60.509091 62.836363l598.109091 69.818182h4.654545C993.745455 896 1024 868.072727 1024 833.163636v-672.581818c0-48.872727-18.618182-93.090909-53.527273-125.672727-32.581818-32.581818-79.127273-51.2-125.672727-51.2-97.745455 0-179.2 79.127273-179.2 179.2 0 97.745455 79.127273 179.2 179.2 179.2 39.563636 0 79.127273-13.963636 109.381818-37.236364l9.309091-6.981818V609.745455l-605.090909-65.163637v-493.381818c-2.327273-100.072727-81.454545-179.2-179.2-179.2z m0 295.563636c-65.163636 0-118.690909-53.527273-118.690909-118.690909s53.527273-118.690909 118.690909-118.690909 118.690909 53.527273 118.690909 118.690909c-2.327273 67.490909-53.527273 118.690909-118.690909 118.690909z m665.6 111.709091c-65.163636 0-118.690909-53.527273-118.690909-118.690909s53.527273-118.690909 118.690909-118.690909 118.690909 53.527273 118.690909 118.690909-53.527273 118.690909-118.690909 118.690909z m-488.727273 325.818182l605.090909 65.163636V835.490909l-598.109091-69.818182h-6.981818v-160.581818z"  horiz-adv-x="1024" />

    
    <glyph glyph-name="yunpan2" unicode="&#58928;" d="M1104.808229-54.710857c10.927543-0.109714 21.796571-0.146286 36.220342-0.146286 121.1904 0 219.428571 98.238171 219.428572 219.428572 0 106.605714-76.580571 197.295543-180.267886 215.954285l-42.912914 7.716572 15.067428 40.916114A291.898514 291.898514 0 0 1 1170.285714 530.285714c0 161.579886-130.991543 292.571429-292.571428 292.571429-132.381257 0-247.266743-88.693029-282.024229-214.403657l-14.7456-53.343086-43.293257 34.486857A163.693714 163.693714 0 0 1 435.2 625.371429C344.312686 625.371429 270.628571 551.687314 270.628571 460.8c0-12.763429 1.448229-25.307429 4.278858-37.493029l8.462628-36.337371-36.5056-7.7312C146.293029 357.961143 73.142857 268.726857 73.142857 164.571429c0-121.1904 98.238171-219.428571 219.428572-219.428572 2.0992 0 4.1984 0.029257 6.290285 0.087772l37.595429 1.053257L1067.885714-54.857143l36.922515 0.146286zM1433.6 164.571429c0-161.579886-130.991543-292.571429-292.571429-292.571429H263.314286c-147.843657 16.120686-263.314286 140.865829-263.314286 292.571429 0 127.049143 81.598171 237.407086 198.253714 277.035885-0.512 6.363429-0.768 12.763429-0.768 19.192686C197.485714 592.091429 303.908571 698.514286 435.2 698.514286a237.0048 237.0048 0 0 0 105.954743-24.868572C597.591771 806.209829 728.7808 896 877.714286 896c201.976686 0 365.714286-163.7376 365.714285-365.714286 0-29.9008-3.598629-59.3408-10.620342-87.822628C1350.582857 403.653486 1433.6 292.768914 1433.6 164.571429z"  horiz-adv-x="1433" />

    
    </font>
</defs>
</svg>
