<?xml version="1.0" standalone="no"?>
<!DOCTYPE svg PUBLIC "-//W3C//DTD SVG 1.1//EN" "http://www.w3.org/Graphics/SVG/1.1/DTD/svg11.dtd" >
<!--
2013-9-30: Created.
-->
<svg>
<metadata>
Created by iconfont
</metadata>
<defs>

<font id="iconfont" horiz-adv-x="1024" >
  <font-face
    font-family="iconfont"
    font-weight="500"
    font-stretch="normal"
    units-per-em="1024"
    ascent="896"
    descent="-128"
  />
    <missing-glyph />
    
    <glyph glyph-name="zhaoxiangji" unicode="&#983377;" d="M898.048 637.952q23.552 1.024 46.592-9.216t40.96-27.136 28.672-39.424 10.752-46.08l0-390.144q0-24.576-10.752-47.104t-28.672-40.448-40.96-28.16-47.616-10.24l-697.344 0q-24.576 0-48.64 10.24t-42.496 27.648-29.696 40.448-11.264 48.64l0 381.952q0 22.528 10.752 45.568t28.672 41.472 39.936 30.208 44.544 11.776l63.488 0 13.312 83.968q3.072 20.48 18.432 32.768t34.816 12.288l456.704 0q19.456 0 34.304-10.752t16.896-34.304l14.336-83.968 54.272 0zM548.864 183.296q40.96 0 77.824 15.872t63.488 42.496 42.496 62.976 15.872 77.312-15.872 77.312-42.496 62.976-63.488 42.496-77.824 15.872-77.312-15.872-63.488-42.496-43.008-62.976-15.872-77.312 15.872-77.312 43.008-62.976 63.488-42.496 77.312-15.872z"  horiz-adv-x="1026" />

    
    <glyph glyph-name="biaoqian" unicode="&#58998;" d="M591.354 622.778l-469.222-325.715 238.714-343.846 469.19 325.722 71.84 294.138-310.522 49.702zM682.016 430.97c-19.302 27.731-12.403 65.811 15.283 84.992 27.642 19.219 65.696 12.288 84.947-15.283 19.264-27.686 12.403-65.773-15.354-84.992-27.686-19.334-65.658-12.403-84.877 15.283z"  horiz-adv-x="1024" />

    
    <glyph glyph-name="gamebar" unicode="&#58880;" d="M152.704 64h-2.688c-31.616 0.832-55.424 18.368-70.848 52.288-15.552 34.432-17.664 70.656-18.496 101.824 0 1.92 0 4.032 0 6.080v2.88c1.408 72.128 14.848 144.192 41.088 220.032 22.528 65.344 49.856 118.72 83.648 163.2 28.416 37.632 56.96 62.592 89.728 78.272 38.336 18.496 72.768 20.16 105.792 5.376 12.992-5.888 26.048-11.2 39.104-16.448 9.92-4.032 19.776-8 29.568-12.16 43.136-18.496 87.232-17.6 132.608 2.688 8 3.52 16.064 6.72 24.192 10.112 10.944 4.544 21.952 9.152 32.768 14.208 38.592 18.048 78.208 15.296 121.088-8.576 35.584-19.84 65.792-49.856 95.104-94.464 40.448-60.864 70.016-132.864 90.56-219.84 13.696-57.984 19.2-112.512 16.96-166.656-1.472-33.024-7.040-59.392-17.536-83.136-19.584-44.288-51.456-53.568-74.752-53.568v0c-8.512 0-17.664 1.216-27.2 3.584-23.808 5.824-46.656 17.216-71.808 35.712-16.576 12.288-32.832 24.832-49.152 37.376-16.32 12.608-32.704 25.216-49.28 37.504-31.168 23.040-69.248 47.936-114.688 57.344-71.68 14.592-136.768 0.128-192.256-42.944-19.968-15.488-39.040-33.216-57.472-50.368-8.448-7.808-16.896-15.616-25.408-23.296-24.576-22.016-55.168-45.44-95.872-53.248-12.672-2.624-24-3.776-34.752-3.776zM335.488 676.224c-15.040 0-30.848-4.096-48.32-12.608-28.736-13.76-54.080-36.032-79.744-70.016-32-42.176-58.048-93.056-79.616-155.584-25.216-73.152-38.144-142.272-39.488-211.584v-7.488c0.896-35.52 3.968-64.512 16-91.328 11.072-24.384 25.408-35.52 46.4-36.032l2.048-13.824v13.824c8.832 0 18.752 1.088 29.568 3.072 33.984 6.592 60.8 27.264 82.56 46.72 8.448 7.616 16.768 15.232 25.024 22.976 18.944 17.536 38.464 35.712 59.392 51.968 61.824 48 134.848 64.32 214.656 48.192 50.688-10.56 91.904-37.248 125.504-62.144 16.768-12.416 33.28-25.28 49.792-37.888 16.128-12.48 32.256-24.896 48.64-36.992 22.080-16.32 41.792-26.24 61.952-31.232 7.424-1.728 14.336-2.688 20.608-2.688v0c22.656 0 38.336 11.776 49.536 37.12 9.088 20.48 13.952 43.776 15.168 73.152 2.176 51.584-3.136 103.68-16.192 159.232-19.776 83.648-48.128 152.768-86.72 210.944-26.816 40.768-53.888 67.904-85.504 85.504-35.2 19.648-65.28 22.080-96 7.744-11.072-5.248-22.528-9.984-33.92-14.656-7.936-3.328-15.744-6.592-23.488-10.048-52.224-23.296-104.512-24.32-154.688-2.752-9.536 4.16-19.264 8.192-28.928 11.968-13.504 5.504-26.944 10.944-40.192 16.96-11.2 5.056-22.336 7.488-34.048 7.488zM725.824 318.464c-11.392 0-21.632 4.288-29.248 12.032-7.616 7.616-11.712 17.792-11.584 28.48 0.448 22.080 18.624 39.808 40.576 39.808h0.064c22.016 0 39.936-18.048 39.936-40.256 0.128-22.080-17.344-39.808-39.744-40.064zM725.696 385.024v-13.76c-6.976 0-12.928-5.824-13.056-12.672-0.064-3.264 1.28-6.336 3.584-8.768 2.496-2.432 5.76-3.84 9.216-3.84 7.36 0.064 12.736 5.504 12.736 12.48 0 6.912-5.632 12.736-12.352 12.736v13.824zM327.104 384.96c-21.76 0-41.92 8.384-57.088 23.552-15.040 15.040-23.296 35.072-23.232 56.32 0.128 43.84 35.84 79.744 79.616 80.256h0.832c43.776 0 79.616-35.904 80-79.744 0.128-21.504-8.064-41.664-23.040-56.832-15.168-15.232-35.392-23.552-57.088-23.552zM327.232 531.264l-0.512-13.76c-28.736-0.256-52.224-24-52.288-52.736 0-13.888 5.312-26.944 15.168-36.736 20.16-20.16 55.552-19.648 75.008 0 9.792 9.792 15.104 22.976 15.040 36.992-0.192 28.864-23.744 52.48-52.416 52.48v13.76zM804.928 398.272c-22.464 0.128-40.32 18.112-40.192 40.192 0 22.016 18.112 40 40.32 40h1.344c21.76-0.576 39.296-18.944 38.912-41.088-0.384-21.952-18.176-39.104-40.384-39.104zM805.056 464.704v-13.824c-6.784 0-12.736-5.888-12.736-12.544-0.064-6.912 5.504-12.48 12.544-12.48 7.36 0 12.736 4.992 12.864 12.032 0.128 6.976-5.312 12.8-12.16 12.992l-0.512 13.824zM644.224 398.272c-11.2 0-21.504 4.224-29.184 12.096-7.552 7.808-11.648 17.92-11.328 28.736 0.576 21.696 18.752 39.296 40.576 39.296h0.128c10.624 0 20.608-4.16 28.16-11.776 7.616-7.68 11.84-17.856 11.712-28.672-0.064-22.272-17.728-39.616-40.064-39.68zM644.288 450.88c-6.848 0-12.8-5.76-12.992-12.48-0.064-3.2 1.152-6.336 3.52-8.768 7.488-7.616 21.888-1.92 21.952 8.448 0 3.52-1.28 6.656-3.776 9.152-2.304 2.368-5.376 3.712-8.576 3.712l-0.128 0zM725.248 477.824c-22.080 0.128-40.128 18.048-40.256 40.064 0 10.624 4.16 20.672 11.84 28.288 7.744 7.808 17.92 12.032 28.608 12.032h0.96c21.888-0.512 39.552-18.816 39.232-40.96-0.192-22.144-17.984-39.424-40.384-39.424zM725.376 544.448v-13.824c-3.328 0-6.528-1.344-9.024-3.904-2.496-2.496-3.84-5.632-3.84-8.832 0-6.848 5.76-12.48 12.736-12.48 7.168 0 12.672 5.184 12.736 12.032 0 7.040-5.44 12.928-12.288 13.12l-0.32 13.888z"  horiz-adv-x="1024" />

    
    <glyph glyph-name="gongzhonghao" unicode="&#58979;" d="M127.040672 30.915959c-7.060658 0-13.81433 2.762866-18.82842 7.776956s-7.776956 11.767763-7.776956 18.82842l0 99.872489c-0.102328 0.716299-0.102328 1.330269-0.102328 2.046567 0 1.023284 0 2.455881 0 4.502448 0 22.102928 14.632957 44.205856 46.047767 69.68562 22.307585 18.009793 53.620066 37.963825 90.560608 57.610872C289.026481 318.867992 347.967623 343.733786 394.015389 358.059758c-15.758569 25.172779-30.596183 57.303887-45.84311 99.463176-10.744479 29.470571-13.507345 81.146398-14.121315 109.286699-0.818627 31.926451 0.102328 75.620666 5.218747 93.937444 12.381733 44.308184 35.303288 77.053263 68.150695 97.416608 27.526332 16.986509 61.49935 25.275107 103.760967 25.275107 42.261617 0 76.132307-8.18627 103.658639-25.172779 32.949735-20.261017 55.87129-53.006096 68.150695-97.211952 7.981613-28.344959 13.098031-139.98521-8.595583-202.81483-14.018987-40.624363-29.368242-73.778755-46.252423-100.179474 50.652543-16.781853 112.35655-47.07105 156.664735-71.936844 35.712601-20.056361 66.820426-40.010393 89.741981-57.610872 31.926451-24.558809 46.45708-42.875587 48.605976-61.090037 0.306985-2.251224 0.409313-3.683821 0.511642-4.502448 0.204657-1.637254 0.204657-3.274508 0.102328-4.911762l0-100.384131c0-14.735285-11.870091-26.605376-26.605376-26.605376L127.040672 30.915959zM153.441391 162.817228c0.102328-1.023284 0.204657-2.046567 0.204657-3.069851l0-75.620666 716.912561 0.102328L870.558609 159.235735c0 0.102328 0 0.102328 0 0.204657-1.637254 2.660538-8.902568 12.688718-36.4289 32.847407-22.0006 16.065554-50.8572 33.973019-83.295293 51.880484C683.195363 281.313481 615.453982 309.658439 578.206455 316.309783c-9.618867 1.739582-17.395823 8.493255-20.568002 17.805136-3.069851 9.209553-0.920955 19.44239 5.730389 26.503048 22.102928 23.740182 42.466274 62.420306 60.578395 114.812431 17.60048 50.959528 13.098031 151.855301 7.674628 171.195363-16.372539 58.531828-52.392126 83.49995-120.54282 83.49995-68.253023 0-104.374938-25.070451-120.645148-83.704607-1.637254-5.935045-4.297792-35.098631-3.274508-78.383532 1.023284-41.749975 5.116419-76.336964 10.949136-92.402518 20.465674-56.280604 39.703408-92.91416 60.476067-115.324073 6.651344-7.060658 8.80024-17.293495 5.730389-26.503048s-10.846807-16.065554-20.465674-17.805136c-40.726691-7.572299-113.379834-35.917258-176.721095-69.07165-87.593085-45.84311-111.947237-76.132307-113.789148-83.602278C153.441391 163.226541 153.441391 163.021885 153.441391 162.817228zM870.865594 158.724093 870.865594 158.724093 870.865594 158.724093zM565.415409 201.497352l-33.973019 89.434996c-2.967523 7.674628-10.232837 12.791046-18.521435 12.893375-8.288598 0.102328-15.656241-4.911762-18.726092-12.58639l-35.405616-89.434996c-2.251224-5.62806-1.739582-12.074748 1.330269-17.395823l35.405616-60.987709c3.581493-6.139702 10.130509-9.925852 17.293495-9.925852 0.102328 0 0.102328 0 0.204657 0 7.162986 0.102328 13.712002 3.990806 17.293495 10.232837l33.973019 60.987709C567.052663 189.831918 567.461977 195.97162 565.415409 201.497352z"  horiz-adv-x="1024" />

    
    <glyph glyph-name="16pxbiaoqian" unicode="&#59003;" d="M422.4 704l384-384L576 89.6l-384 384L192 704 422.4 704M448 768 128 768l0-320 448-448 320 320L448 768 448 768zM320 576m-64 0a1 1 0 1 0 128 0 1 1 0 1 0-128 0Z"  horiz-adv-x="1024" />

    
    <glyph glyph-name="faxian" unicode="&#58938;" d="M515.413333 721.92c-187.733333 0-339.057778-152.462222-339.057777-339.057778S327.68 42.666667 515.413333 42.666667s339.057778 152.462222 339.057778 339.057777-152.462222 340.195556-339.057778 340.195556z m0-645.12c-168.391111 0-304.924444 136.533333-304.924444 304.924444s136.533333 304.924444 304.924444 304.924445 304.924444-136.533333 304.924445-304.924445S683.804444 76.8 515.413333 76.8zM634.88 529.635556l-167.253333-86.471112c-3.413333-1.137778-5.688889-4.551111-6.826667-6.826666L367.502222 258.844444c-3.413333-6.826667-2.275556-14.791111 3.413334-20.48 3.413333-3.413333 7.964444-4.551111 12.515555-4.551111 2.275556 0 5.688889 1.137778 7.964445 2.275556l175.217777 87.608889c3.413333 1.137778 5.688889 4.551111 7.964445 7.964444L659.911111 508.017778c3.413333 6.826667 2.275556 14.791111-3.413333 19.342222-6.826667 4.551111-14.791111 5.688889-21.617778 2.275556z m-91.022222-178.631112l-121.742222-61.44 65.991111 125.155556L605.297778 475.022222l-61.44-124.017778z"  horiz-adv-x="1024" />

    
    <glyph glyph-name="weixin" unicode="&#58910;" d="M535.9 781.7c-262.5 0-470.2-153.3-470.2-342.3 0-107.1 64.2-202.6 171.1-265.4 24.2-14.2 27-120.9-109.1-185.3 0 0 192.7-30.4 314.9 124 30.2-4.3 61.4-13.6 93.4-13.6 262.5 0 422.4 151.2 422.4 340.3-0.1 189.1-160 342.3-422.5 342.3z"  horiz-adv-x="1024" />

    
    <glyph glyph-name="biaoqian1" unicode="&#58936;" d="M400.975984-23.389733l408.337029 408.337029-19.166753 270.634555c-0.212964 3.194459-5.153727 8.135222-8.348186 8.348186L511.163519 683.09679 102.826489 274.759761l298.149495-298.149494z m-340.827465 255.641895c-23.468625 23.468625-23.468625 61.546574 0.085185 85.100384l427.75934 427.759339 298.106901-21.083428c33.052001-2.385196 61.802131-31.135326 64.144734-64.144734L871.328108 361.776821 443.568769-65.982518c-23.511217-23.511217-61.589167-23.596403-85.100384-0.085186L60.148519 232.252162zM581.910134 455.693912m-63.889177-63.889178a90.352941 90.352941 0 1 1 127.778355 127.778355 90.352941 90.352941 0 1 1-127.778355-127.778355Z"  horiz-adv-x="1024" />

    
    <glyph glyph-name="12" unicode="&#58882;" d="M-4044.352 384c0-300.082 243.264-543.346 543.346-543.346s543.346 243.264 543.346 543.346c0 300.082-243.264 543.346-543.346 543.346-300.082 0-543.346-243.264-543.346-543.346zM-1798.449 140.522l-181.731 181.732-85.070-29.14-56.798-16.228-64.912 16.228-51.389 24.341h-64.912l-40.571-29.751-59.504-8.114-37.866 10.818-56.798 24.341-62.567 7.503v-203.561l277.999-277.998c211.835 0.613 395.042 122.486 484.116 299.828zM357.369 309.179c89.475 0 82.91 57.287 172.383 57.287 89.536 0 89.536-57.287 179.073-57.287l-6.070 16.432-51.238 152.097c-23.087 68.526-88.885 110.435-157.753 106.418l-66.573 197.622c17.849 9.219 26.88 30.206 20.266 49.833l-2.947 8.75c-7.298 21.66-30.773 33.302-52.432 26.009l-85.143-28.684c-21.662-7.298-33.303-30.773-26.010-52.432l2.947-8.751c6.61-19.625 26.498-30.869 46.289-27.41l66.573-197.622c-57.261-38.471-84.289-111.654-61.204-180.18l18.199-54.023 3.639-8.054zM708.828-57.115c-49.91 0-76.010 16.699-99.030 31.423-21.695 13.876-40.432 25.869-80.053 25.869-39.573 0-58.289-11.981-79.969-25.857-23.004-14.734-49.085-31.435-98.979-31.435-49.91 0-75.994 16.699-98.997 31.423-21.678 13.885-40.413 25.869-80.004 25.869-9.738 0-17.617 7.888-17.617 17.617s7.879 17.618 17.617 17.618c49.913 0 75.996-16.699 98.997-31.423 21.679-13.885 40.414-25.869 80.004-25.869 39.589 0 58.307 11.981 79.986 25.869 23.005 14.726 49.068 31.423 98.962 31.423 49.93 0 76.028-16.699 99.049-31.423 21.694-13.885 40.431-25.869 80.037-25.869 39.607 0 58.345 11.994 80.038 25.869 23.019 14.726 49.104 31.423 99.030 31.423 9.738 0 17.618-7.888 17.618-17.618s-7.881-17.617-17.618-17.617c-39.606 0-58.343-11.994-80.037-25.869-23.024-14.727-49.105-31.425-99.033-31.425zM708.828 74.649c-49.91 0-76.010 16.688-99.030 31.418-21.695 13.885-40.432 25.869-80.053 25.869-39.573 0-58.289-11.981-79.969-25.857-23.004-14.726-49.085-31.423-98.979-31.423-49.91 0-75.994 16.688-98.997 31.423-21.678 13.876-40.413 25.857-80.004 25.857-9.738 0-17.617 7.888-17.617 17.617s7.879 17.617 17.617 17.617c49.913 0 75.996-16.688 98.997-31.422 21.679-13.876 40.414-25.857 80.004-25.857 39.589 0 58.307 11.981 79.986 25.869 23.005 14.726 49.068 31.417 98.962 31.417 49.93 0 76.028-16.688 99.049-31.422 21.694-13.876 40.431-25.857 80.037-25.857 39.607 0 58.345 11.981 80.038 25.869 23.019 14.726 49.104 31.417 99.030 31.417 9.738 0 17.618-7.888 17.618-17.617s-7.881-17.617-17.618-17.617c-39.606 0-58.343-11.981-80.037-25.869-23.024-14.732-49.105-31.42-99.033-31.42zM708.828 206.412c-49.91 0-76.010 16.688-99.030 31.418-21.695 13.883-40.432 25.869-80.053 25.869-39.573 0-58.289-11.984-79.969-25.857-23.004-14.727-49.085-31.423-98.979-31.423-49.91 0-75.994 16.688-98.997 31.423-21.678 13.875-40.413 25.857-80.004 25.857-9.738 0-17.617 7.888-17.617 17.617s7.879 17.617 17.617 17.617c49.913 0 75.996-16.688 98.997-31.422 21.679-13.876 40.414-25.857 80.004-25.857 39.589 0 58.307 11.981 79.986 25.869 23.005 14.726 49.068 31.417 98.962 31.417 49.93 0 76.028-16.688 99.049-31.422 21.694-13.876 40.431-25.857 80.037-25.857 39.607 0 58.345 11.981 80.038 25.869 23.019 14.726 49.104 31.417 99.030 31.417 9.738 0 17.618-7.888 17.618-17.617s-7.881-17.617-17.618-17.617c-39.606 0-58.343-11.984-80.037-25.869-23.024-14.732-49.105-31.42-99.033-31.42zM-411.168 378.85c-2.959 0.002-5.476 1.889-6.418 4.525-1.236 3.595 0.637 7.476 4.186 8.705l178.023 61.866c3.549 1.236 7.417-0.637 8.666-4.192 1.222-3.549-0.652-7.429-4.201-8.659l-178.023-61.866c-0.662-0.24-1.427-0.379-2.224-0.379-0.002 0-0.005 0-0.007 0zM-1034.576 470.713c-0.006 0-0.016 0-0.022 0-4.138 0-7.843 1.856-10.326 4.78-11.232 13.216-28.284 20.579-45.522 19.469-7.681-0.372-13.941 5.291-14.381 12.799-0.438 7.503 5.291 13.942 12.785 14.381 25.942 1.47 51.129-9.342 67.834-29.006 4.878-5.728 4.174-14.314-1.554-19.185-2.349-2.013-5.424-3.237-8.786-3.237-0.007 0-0.018 0-0.027 0z"  horiz-adv-x="1024" />

    
    <glyph glyph-name="tongxunlu" unicode="&#58982;" d="M869.436 25.367H107.929l-3.207 4.268c-14.096 18.802-16.407 41.445-6.663 65.484 29.671 73.157 166.552 150.696 306.827 174.339l3.685 7.704-13.659 36.844c-39.145 32.544-71.543 84.192-89.47 142.638-11.264 8.61-35.459 30.618-35.459 60.612 0 21.415 8.141 41.914 21.946 55.76 9.849 109.178 90.699 185.041 197.93 185.041 107.252 0 188.102-75.863 197.93-185.041 13.826-13.857 21.967-34.356 21.967-55.76 0-29.983-24.216-52.002-35.48-60.612-17.907-58.436-50.305-110.094-89.47-142.638l-13.638-36.844 3.998-8.37c151.581-27.151 311.137-119.443 324.109-188.196 2.894-15.293 0.5-37.021-27.318-53.709l-2.521-1.52z m-750.493 21.321h744.455c16.345 10.806 16.387 22.196 14.929 29.952-10.473 55.49-156.599 145.803-312.199 172.08l-5.476 0.927-12.597 26.475 18.781 50.753 2.29 1.843c37.666 30.389 68.919 80.475 85.743 137.422l1.041 3.55 3.04 2.145c14.242 10.057 29.483 27.276 29.483 45.422 0 16.98-6.705 32.971-17.948 42.768l-3.29 2.884-0.333 4.383c-7.267 99.767-80.059 169.446-177.004 169.446S320.142 667.057 312.854 567.28l-0.333-4.373-3.29-2.884c-11.223-9.786-17.927-25.777-17.927-42.768 0-18.156 15.221-35.365 29.463-45.422l3.04-2.145 1.041-3.55c16.845-56.947 48.098-107.044 85.764-137.422l2.27-1.843 18.802-50.753-12.368-25.933-5.539-0.875C266.652 226.023 141.972 146.63 117.819 87.101c-6.205-15.333-5.851-28.607 1.124-40.413zM959.238 513.627c0-2.56-2.74-4.635-6.116-4.635H764.525c-3.376 0-6.11 2.075-6.11 4.635v10.597c0 2.56 2.735 4.635 6.11 4.635h188.597c3.376 0 6.116-2.075 6.116-4.635v-10.597M941.827 295.083c0-2.559-1.908-4.635-4.257-4.635H806.372c-2.345 0-4.248 2.076-4.248 4.635v10.598c0 2.56 1.903 4.635 4.248 4.635H937.57c2.349 0 4.257-2.075 4.257-4.635v-10.598M958.393 404.356c0-2.558-2.427-4.634-5.422-4.634h-167.28c-2.996 0-5.422 2.076-5.422 4.634v10.596c0 2.56 2.426 4.637 5.422 4.637h167.28c2.995 0 5.422-2.077 5.422-4.637v-10.596"  horiz-adv-x="1024" />

    
    <glyph glyph-name="tongxunlu1" unicode="&#58628;" d="M460.762 733.596c75.413 0 137.517-82.067 137.517-177.441 0-59.887-35.487-130.862-70.977-166.35-13.307-13.307-22.18-35.487-22.18-55.451 0-26.618 13.307-51.013 35.487-64.321v0 0l228.454-137.517c8.873-4.436 13.307-13.307 15.527-22.18s2.218-17.745-4.436-24.398c-8.873-11.089-24.398-17.745-44.362-17.745h-554.502c-19.964 0-37.706 6.655-44.362 17.745-4.436 6.655-6.655 15.527-4.436 24.398 2.218 8.873 8.873 17.745 15.527 22.18l228.454 137.517c26.618 17.745 42.142 39.924 42.142 64.321 0 26.618-19.964 46.579-28.833 55.451-33.269 33.269-59.887 106.464-59.887 166.35 2.218 99.811 57.668 177.441 130.862 177.441M460.762 777.959c-97.593 0-173.007-97.593-173.007-221.799 0-70.977 31.051-153.042 73.195-197.405 6.655-6.655 15.527-15.527 15.527-24.398 0-11.089-11.089-19.964-22.18-26.618l-228.454-137.517c-17.745-11.089-28.833-26.618-35.487-46.579-15.527-51.013 22.18-99.811 90.937-99.811h554.502c68.758 0 106.464 48.796 90.937 99.811-6.655 19.964-17.745 35.487-35.487 46.579l-228.454 137.517c-8.873 6.655-15.527 15.527-15.527 28.833 0 8.873 4.436 17.745 8.873 24.398 46.579 42.142 86.501 124.209 86.501 195.187 0 124.209-84.286 221.799-181.876 221.799v0zM939.855 556.154h-217.363c-19.964 0-35.487-8.873-35.487-22.18s15.527-22.18 35.487-22.18h217.363c19.964 0 35.487 11.089 35.487 22.18s-15.527 22.18-35.487 22.18v0zM935.417 423.076h-186.313c-22.18 0-39.924-11.089-39.924-22.18 0-13.307 17.745-22.18 39.924-22.18h186.313c22.18 0 39.924 11.089 39.924 22.18 0 11.089-17.745 22.18-39.924 22.18v0zM937.636 289.994h-124.209c-19.964 0-37.706-11.089-37.706-22.18s17.745-22.18 37.706-22.18h124.209c19.964 0 37.706 8.873 37.706 22.18 0 11.089-17.745 22.18-37.706 22.18v0z"  horiz-adv-x="1040" />

    
    <glyph glyph-name="xiangce" unicode="&#58632;" d="M837.308 701.359h-651.698c-31.755 0-57.503-25.766-57.503-57.503v-519.096c0-31.765 25.748-57.513 57.503-57.513h651.698c31.763 0 57.502 25.747 57.502 57.513l-0 519.096c0.001 31.738-25.738 57.503-57.502 57.503M855.818 255.461l-196.954 171.412-108.416-111.626 49.268-73.104-226.418 197.789-206.201-174.139v358.241c0 21.161 17.158 38.334 38.334 38.334h612.053c21.188 0 38.334-17.174 38.334-38.334l0-368.572z"  horiz-adv-x="1024" />

    
    <glyph glyph-name="xiangce1" unicode="&#58633;" d="M837.308 701.359h-651.698c-31.755 0-57.503-25.766-57.503-57.503v-519.096c0-31.765 25.748-57.513 57.503-57.513h651.698c31.763 0 57.502 25.747 57.502 57.513l-0 519.096c0.001 31.738-25.738 57.503-57.502 57.503M855.818 255.461l-196.954 171.412-108.416-111.626 49.268-73.104-226.418 197.789-206.201-174.139v358.241c0 21.161 17.158 38.334 38.334 38.334h612.053c21.188 0 38.334-17.174 38.334-38.334l0-368.572z"  horiz-adv-x="1024" />

    
    <glyph glyph-name="xindepengyou" unicode="&#58803;" d="M795.136 199.68h-30.208v-45.568h-46.08v-30.72h46.08v-45.568h30.208v45.568h46.08v30.72h-46.08zM0 896v-1024h1024V896H0z m534.016-877.056H205.824c-39.424 0-71.68 24.064-71.68 63.488v17.408c0 36.352 26.624 68.096 60.928 80.384L340.48 245.76s39.424 12.288 50.176 24.064c7.168 8.192 9.216 34.816 0.512 52.224-9.216 17.408-82.944 113.664-82.944 194.048 0 130.048 85.504 235.52 190.976 235.52 105.472 0 190.976-105.472 190.976-235.52 0-83.968-82.944-176.64-89.6-199.68-6.656-23.04-7.168-40.448 0.512-48.128 11.776-11.776 43.008-23.552 43.008-23.552l33.28-12.8c-27.136-22.016-44.032-55.296-44.032-93.184 0-60.416 44.544-110.08 102.912-118.272 5.12-1.024 9.728-1.024 14.848-1.024h-217.088z m246.272 12.8c-59.392 0-107.008 48.128-107.008 107.008s48.128 107.008 107.008 107.008 107.008-48.128 107.008-107.008-48.128-107.008-107.008-107.008z"  horiz-adv-x="1024" />

    
    <glyph glyph-name="weibiaoti-" unicode="&#58900;" d="M512-46.080c-79.852 0-155.054 17.838-221.655 48.886l-194.273-87.204c-0.696-0.328-1.434-0.266-2.13-0.471-1.762-0.651-3.797-1.046-5.919-1.087-0.123-0.040-1.393 0.165-2.703 0.329-0.922 0.123-1.843-0.102-2.765 0.164-0.389 0.061-0.635 0.328-0.983 0.451-1.475 0.471-2.765 1.29-4.116 2.089-0.922 0.532-1.905 1.024-2.724 1.72-1.147 0.922-2.068 2.15-2.99 3.379-0.676 0.881-1.372 1.679-1.905 2.662-0.225 0.43-0.594 0.696-0.799 1.167-0.512 1.147-0.512 2.376-0.799 3.564-0.225 0.922-0.512 1.741-0.594 2.744-0.045 0.505-0.070 1.092-0.070 1.685 0 1.448 0.152 2.861 0.442 4.222 0.058 0.359-0.044 0.892 0.058 1.383l0.512 1.946 0.061 0.164 51.323 191.898c-62.198 75.428-99.492 169.021-99.492 270.868 0 248.852 220.058 450.56 491.52 450.56s491.54-201.728 491.54-450.56-220.078-450.56-491.54-450.56zM512 814.080c-248.852 0-450.56-183.398-450.56-409.6 0-90.522 32.666-173.875 87.368-241.664l-1.475-5.816h0.102c8.819-2.413 15.193-10.355 15.193-19.786 0-1.878-0.253-3.698-0.726-5.426l-43.097-161.075 163.103 73.196c2.422 1.099 5.251 1.74 8.231 1.74 7.997 0 14.916-4.616 18.238-11.329l5.931 2.503c58.055-26.497 125.92-41.943 197.393-41.943 0.106 0 0.211 0 0.317 0 248.816-0 450.544 183.398 450.544 409.6s-201.728 409.6-450.56 409.6zM798.74 404.48c-0.003-0-0.007-0-0.010-0-22.622 0-40.96 18.338-40.96 40.96 0 22.618 18.333 40.954 40.949 40.96 22.622-0 40.961-18.338 40.961-40.96 0-22.622-18.338-40.96-40.96-40.96zM512 424.96c-22.622-0-40.96 18.338-40.96 40.96s18.338 40.96 40.96 40.96c22.622 0 40.96-18.338 40.96-40.96 0-22.622-18.338-40.96-40.96-40.96z"  horiz-adv-x="1024" />

    
    <glyph glyph-name="pengyouquan" unicode="&#58883;" d="M865.11 797.982c-15.836 0-31.444-0.905-46.827-2.714-37.779-4.298-73.747-13.573-107.681-27.373 0 0 280.058-277.118 287.524-287.299V776.038c-8.37 2.941-16.965 5.43-25.562 7.69-34.385 9.274-70.354 14.252-107.454 14.252zM1157.611 677.633c-11.312 11.312-23.073 21.489-35.064 31.219-29.634 23.526-61.984 42.529-95.465 56.781 0 0 2.037-393.845 0-406.289l209.026 209.026c-3.846 7.917-8.144 15.836-12.669 23.526-17.872 30.539-39.589 59.496-65.83 85.737zM1249.455 535.34S972.337 255.282 962.156 247.816h295.442c2.941 8.37 5.43 16.965 7.69 25.562 9.274 34.385 14.252 70.129 14.252 107.227 0 15.836-0.905 31.444-2.714 46.827-4.298 38.006-13.799 73.974-27.373 107.906zM838.415 216.825l209.026-209.026c7.917 3.846 15.836 8.144 23.526 12.669 30.765 17.645 59.721 39.589 85.964 65.83 11.086 11.086 21.489 23.073 31.219 35.064 23.526 29.634 42.529 61.757 56.781 95.465 0 0-393.845-2.037-406.515 0zM731.189 282.427v-295.442c8.37-2.941 16.965-5.43 25.562-7.69 34.158-9.274 70.129-14.252 107.227-14.252 15.836 0 31.444 0.905 46.827 2.714 37.779 4.298 73.747 13.573 107.681 27.373 0 0-279.833 277.118-287.299 287.299zM701.78 405.716L492.754 196.69c3.846-7.917 8.144-15.836 12.669-23.526 17.645-30.765 39.589-59.721 65.83-85.964 11.086-11.312 23.073-21.489 35.064-31.219 29.634-23.526 61.757-42.529 95.465-56.781 0 0.226-2.037 394.074 0 406.515zM463.799 489.192c-9.274-34.158-14.252-70.129-14.252-107.227 0-15.836 0.905-31.444 2.714-46.827 4.298-37.779 13.573-73.747 27.373-107.681 0 0 276.891 280.058 287.299 287.299H471.491c-2.941-8.37-5.43-16.739-7.69-25.562zM656.084 740.974c-30.765-17.645-59.721-39.589-85.964-65.83-11.312-11.312-21.489-23.073-31.219-35.064a412.333 412.333 0 0 1-56.781-95.691s393.845 2.037 406.515 0L679.609 753.415c-7.917-3.846-15.836-8.144-23.526-12.441z"  horiz-adv-x="1755" />

    
    <glyph glyph-name="tongxunlu2" unicode="&#58635;" d="M730.4533333333333 535.8250666666667h174.76266666666666v-43.690666666666665H730.4533333333333zM687.8549333333334 404.75306666666665H905.216v-43.690666666666665H687.8549333333334zM730.4533333333333 273.68106666666665h174.76266666666666v-43.690666666666665H730.4533333333333zM556.7829333333334 287.88053333333335c-8.738133333333334 4.369066666666667-14.199466666666666 13.1072-14.199466666666666 24.029866666666663v10.922666666666666c0 7.645866666666667 3.2768 15.291733333333333 9.8304 20.753066666666665 48.05973333333333 37.13706666666667 78.6432 100.48853333333334 78.6432 172.57813333333334 0 113.59573333333333-77.55093333333332 205.34613333333334-173.6704 205.34613333333334S283.7162666666667 628.6677333333333 283.7162666666667 515.072c0-70.99733333333333 30.583466666666666-133.25653333333332 76.45866666666667-170.3936 6.5536-4.369066666666667 9.8304-12.014933333333332 9.8304-20.753066666666665v-14.199466666666666c0-9.8304-5.461333333333333-19.6608-14.199466666666666-24.029866666666663C252.04053333333337 234.35946666666666 118.78399999999999 160.08533333333344 118.78399999999999 103.28746666666666v-55.7056h677.2053333333333v55.7056c0 56.797866666666664-134.34879999999998 132.16426666666666-239.2064 184.5930666666667z m-99.39626666666666-196.608H162.47466666666668v12.014933333333332c2.1845333333333334 7.645866666666667 20.753066666666665 48.05973333333333 212.992 144.1792 24.029866666666663 12.014933333333332 38.22933333333334 36.0448 38.22933333333334 62.2592v14.199466666666666c0 21.845333333333333-9.8304 41.50613333333333-26.2144 54.61333333333334-38.22933333333334 30.583466666666666-60.074666666666666 80.82773333333333-60.074666666666666 136.53333333333333 0 89.56586666666666 57.89013333333333 161.65546666666665 129.97973333333331 161.65546666666665S587.3663999999999 604.6378666666667 587.3663999999999 515.072c0-56.797866666666664-22.9376-108.1344-62.2592-137.6256-16.384-13.1072-27.30666666666667-33.86026666666667-27.30666666666667-55.7056v-10.922666666666666c0-26.2144 15.291733333333333-50.24426666666667 38.22933333333334-62.2592C731.5455999999999 151.34720000000004 751.2064 110.9333333333334 752.2986666666666 102.1952v-12.014933333333332H457.38666666666666z"  horiz-adv-x="1024" />

    
    <glyph glyph-name="xiangce2" unicode="&#58626;" d="M279.144116 439.56655c49.558719 0 89.734744 40.176025 89.734744 89.734744s-40.176025 89.733721-89.734744 89.73372-89.733721-40.176025-89.73372-89.73372 40.173978-89.734744 89.73372-89.734744z m594.489736 295.375287H148.28065c-41.298592 0-74.7781-33.478486-74.778101-74.779123v-550.870286c0-41.299615 33.479509-74.7781 74.778101-74.778101h725.353202c41.299615 0 74.779124 33.478486 74.779124 74.778101V660.162714c0 41.300638-33.478486 74.779124-74.779124 74.779123z m13.710257-628.140137c0-6.884804-5.579065-12.464893-12.462846-12.464892h-727.847c-6.883781 0-12.462846 5.580089-12.462846 12.464892V661.409101c0 6.883781 5.580089 12.463869 12.462846 12.463869h727.845976c6.884804 0 12.462846-5.580089 12.462846-12.463869l0.001024-554.607401zM408.760173 317.42779199999995l-71.039963 72.285327-150.803611-148.310838v-87.24197H833.75254V353.570967L643.068639 547.996075 408.760173 317.42779199999995z"  horiz-adv-x="1024" />

    
    <glyph glyph-name="emoji-copy" unicode="&#58634;" d="M316.26581333333337 457.03623111111114a56.506595555555556 56.506595555555556 0 0 1 39.10314666666667 16.165546666666668c10.19448888888889 10.19448888888889 16.238364444444443 24.758044444444447 16.238364444444443 39.175964444444446a56.506595555555556 56.506595555555556 0 0 1-16.238364444444443 39.10314666666667 56.506595555555556 56.506595555555556 0 0 1-39.10314666666667 16.238364444444443 56.506595555555556 56.506595555555556 0 0 1-39.175964444444446-16.238364444444443 56.506595555555556 56.506595555555556 0 0 1-16.165546666666668-39.10314666666667c0-14.345102222222222 6.043875555555556-28.98147555555556 16.165546666666668-39.175964444444446 10.19448888888889-10.19448888888889 24.758044444444447-16.165546666666668 39.175964444444446-16.165546666666668M705.1855644444445 457.03623111111114a56.506595555555556 56.506595555555556 0 0 1 39.175964444444446 16.165546666666668c10.121671111111112 10.19448888888889 16.165546666666668 24.758044444444447 16.165546666666668 39.175964444444446a56.506595555555556 56.506595555555556 0 0 1-16.165546666666668 39.10314666666667 56.506595555555556 56.506595555555556 0 0 1-39.175964444444446 16.238364444444443 56.506595555555556 56.506595555555556 0 0 1-39.175964444444446-16.238364444444443 56.506595555555556 56.506595555555556 0 0 1-16.165546666666668-39.10314666666667c0-14.345102222222222 6.043875555555556-28.98147555555556 16.165546666666668-39.175964444444446 10.19448888888889-10.19448888888889 24.758044444444447-16.165546666666668 39.175964444444446-16.165546666666668M760.3814399999999 321.88643555555564l-0.6553599999999999 0.21845333333333333-0.5825422222222223 0.29127111111111115a16.384 16.384 0 0 1-13.325653333333332 0 22.282239999999998 22.282239999999998 0 0 1-12.379022222222224-14.05383111111111 307.1453866666667 307.1453866666667 0 0 0-33.49617777777778-66.99235555555556c-38.95751111111111-58.61831111111111-111.55683555555557-95.0272-189.3262222222222-95.0272-75.00231111111111 0-142.5772088888889 34.879715555555556-195.37009777777774 100.85262222222222l-0.43690666666666667 0.7281777777777777-0.5097244444444444 0.6553599999999999c-12.815928888888887 19.29671111111111-26.06876444444444 39.321600000000004-32.91363555555556 65.97290666666667-4.660337777777778 8.883768888888888-12.961564444444443 18.131626666666666-26.360035555555555 14.05383111111111-8.738133333333334-4.805973333333333-18.568533333333335-18.859804444444443-14.345102222222222-33.05927111111111 3.2768-6.407964444444444 6.407964444444444-13.1072 9.684764444444445-20.097706666666667 10.121671111111112-21.26279111111111 20.53461333333333-43.32657777777777 34.51562666666666-61.967928888888885l0.14563555555555557-0.14563555555555557c49.80736-68.44871111111111 138.42659555555556-112.79473777777777 225.7351111111111-112.79473777777777 88.25514666666666 0 176.14620444444444 45.14702222222222 218.6717866666667 112.28501333333334l0.43690666666666667 0.6553599999999999c18.495715555555556 24.539591111111115 37.573973333333335 49.95299555555555 43.690666666666665 80.39082666666667l0.29127111111111115 1.2379022222222222 0.5097244444444444 1.0922666666666667a16.529635555555554 16.529635555555554 0 0 1 0 13.471288888888889 22.063786666666665 22.063786666666665 0 0 1-13.981013333333333 12.233386666666666M510.68928 891.0301866666666c-275.4696533333333 0-508.26808888888894-232.79843555555556-508.26808888888894-508.26808888888894 0-275.54247111111107 232.79843555555556-508.3409066666666 508.26808888888894-508.3409066666666 275.54247111111107 0 508.26808888888894 232.79843555555556 508.26808888888894 508.26808888888894 0 275.54247111111107-232.72561777777779 508.26808888888894-508.26808888888894 508.26808888888894z m324.2575644444444-832.5256533333333a455.32956444444443 455.32956444444443 0 0 0-324.2575644444444-133.98471111111112 455.32956444444443 455.32956444444443 0 0 0-324.1847466666667 133.98471111111112 455.32956444444443 455.32956444444443 0 0 0-133.98471111111112 324.1847466666667c0 122.77077333333334 47.62282666666667 237.89568 133.98471111111112 324.2575644444444a455.32956444444443 455.32956444444443 0 0 0 324.1847466666667 133.98471111111112c122.77077333333334 0 237.89568-47.62282666666667 324.2575644444444-133.98471111111112a455.32956444444443 455.32956444444443 0 0 0 133.98471111111112-324.2575644444444 455.32956444444443 455.32956444444443 0 0 0-133.98471111111112-324.1847466666667z"  horiz-adv-x="1024" />

    
    <glyph glyph-name="weixinzhifu" unicode="&#58927;" d="M512 829.1C229.7 829.1 0 644 0 416.6c0-124.8 68.4-240.8 188-319.5-1.2-11.9-8.5-37.2-13.2-53.2-15.1-51.8-26-89.2 2.4-102.2 4-1.9 8.5-2.8 13.2-2.8 20.6 0 45.3 17.9 87.2 49.6 18.3 13.9 48.4 36.6 59.6 40.3 55.9-16.3 114.7-24.6 174.8-24.6 282.3 0 512 185 512 412.4S794.3 829.1 512 829.1z m0-780c-56.8 0-112.3 7.9-164.9 23.6-2.9 0.9-6.1 1.3-9.3 1.3-20.7 0-45.4-17.9-87.3-49.7-12.2-9.2-29.5-22.3-43.1-31.2 2.9 12.4 7.3 27.4 10.4 38.2 14.8 50.7 24.6 84.2 0.9 99.2C108.3 201 44.9 305.2 44.9 416.6c0 202.6 209.5 367.5 467.1 367.5 172.3 0 323-73.8 403.9-183.3-83.9-39.7-471.2-222.1-501.2-218.7-33.7 3.7-122.5 82.3-122.5 82.3s-32.7 15.9-31.8-14c0 0 93.5-218.8 109.4-220.7 15.9-1.8 15-13.1 83.2 30.9 59.8 38.5 408.2 239.6 494.2 289.1 20.4-41.3 31.8-86.1 31.8-133 0.1-202.7-209.4-367.6-467-367.6z m0 0"  horiz-adv-x="1024" />

    
    <glyph glyph-name="weixinshoucang" unicode="&#58893;" d="M511.99488 891.904C232.05888 891.904 5.12 664.98048 5.12 385.03424c0-279.94624 226.93888-506.88512 506.87488-506.88512S1018.88 105.088 1018.88 385.03424C1018.87488 664.98048 791.93088 891.904 511.99488 891.904zM519.40864 369.62304l280.33024 155.56608v-303.15008l-280.33024-155.5712v303.1552z m-8.448 333.96224l286.70464-152.91392-286.70464-165.63712L224.256 550.67136l286.70464 152.91392z m-6.3744-637.11744L224.256 215.12704v310.0672l280.32512-159.2832v-299.4432z"  horiz-adv-x="1024" />

    
    <glyph glyph-name="weixinshoucang1" unicode="&#58895;" d="M511.99488 890.88C232.05888 890.88 5.12 663.95648 5.12 384.01024s226.93888-506.88512 506.87488-506.88512S1018.88 104.064 1018.88 384.01024C1018.87488 663.95648 791.93088 890.88 511.99488 890.88zM519.40864 368.59392l280.33024 155.5712v-303.15008l-280.33024-155.5712v303.15008z m-8.448 333.96736l286.70464-152.91392-286.70464-165.63712L224.256 549.64736l286.70464 152.91392z m-6.3744-637.11744L224.256 214.10304v310.0672l280.32512-159.2832 0.00512-299.4432z"  horiz-adv-x="1024" />

    
    <glyph glyph-name="icon" unicode="&#58640;" d="M591.6993074645997 763.3687025756835c38.255667846679685 0 129.644206237793-12.751889556884766 129.644206237793-129.644206237793 0-146.64672537231445-36.13035223388672-191.27833758544918-40.38098181152344-197.65428195190432-2.1253147888183594-4.250629577636719-6.375944366455078-8.501259155273438-10.626574768066405-14.877204345703127-2.1253147888183594-2.1253147888183594-4.250629577636719-4.250629577636719-4.250629577636719-8.501259155273438-17.002519134521485-27.629093078613284-70.13539050292968-108.39105752563475 17.002519134521485-170.02518887329103 36.13035223388672-25.503778289794923 78.63664965820311-51.007556579589846 125.39357666015627-78.63665048217773 57.383500946044926-34.00503744506836 114.76700271606447-68.01007571411134 155.14798452758788-102.01511315917969 14.877204345703127-12.751889556884766 10.626573944091797-29.754407867431638 8.501259979248045-36.13035223388672-2.1253147888183594-4.250629577636719-10.626573944091797-21.253148712158204-31.87972348022461-21.253148712158204H234.6464105834961c-21.253148712158204 0-29.754407867431638 17.002519134521485-31.87972265625 21.253148712158204-2.1253147888183594 6.375944366455078-6.375944366455078 23.37846350097656 8.501259155273438 36.13035223388672 40.38098263549804 34.00503744506836 99.88979837036132 70.13539050292968 155.14798452758788 102.01511315917969 46.75692700195312 27.629093078613284 89.26322442626952 53.1328713684082 125.39357748413086 78.63665048217773 85.01259484863282 63.75944613647461 34.00503744506836 144.5214105834961 17.002518310546876 170.02518887329103-2.1253147888183594 2.1253147888183594-4.250629577636719 6.375944366455078-4.250629577636719 8.501259155273438-4.250629577636719 6.375944366455078-8.501259155273438 10.626573944091797-10.626573944091797 14.877204345703127-4.250629577636719 6.375944366455078-42.50629742431641 51.007556579589846-42.50629742431641 197.65428195190432C451.4285264587403 750.6168138427734 542.8170656738281 763.3687025756835 583.1980474853515 763.3687025756835h8.501259979248045m0 42.50629742431641h-4.250629577636719-4.250630401611328C555.5689544067383 805.875 408.9222290344239 797.3737408447266 408.9222290344239 633.7244963378906c0-155.14798452758788 38.255667846679685-210.40617150878907 51.007556579589846-225.28337503051753 2.1253147888183594-2.1253147888183594 4.250629577636719-6.375944366455078 6.375945190429688-8.501259979248045 17.002519134521485-27.629093078613284 59.508815734863276-78.63664965820311 0-123.26826187133788C387.66908032226564 219.2880985107422 260.1501888732911 159.7792819519043 183.6388540039062 93.8945210266113c-53.1328713684082-44.63161221313476-19.127833923339843-131.76952102661133 48.88224179077148-131.76952102661133H940.2509443664551c70.13539050292968 0 102.01511315917969 87.13790963745117 48.88224179077148 131.76952102661133-76.51133486938477 65.88476092529297-204.03022631835938 125.39357666015627-282.6668759765625 182.77707843017575-59.508815734863276 44.63161221313476-14.877204345703127 95.63916879272459 0 123.26826187133788 2.1253147888183594 4.250629577636719 4.250629577636719 6.375944366455078 6.375944366455078 8.501259979248045 12.751889556884766 12.751889556884766 51.007556579589846 70.13539050292968 51.007556579589846 225.28337503051753C765.9751259155273 797.3737408447266 619.3284005432129 805.875 591.6993074645997 805.875z"  horiz-adv-x="1207" />

    
    <glyph glyph-name="gouwu" unicode="&#59261;" d="M810.188868-63.409936h-596.966137c-47.819099 0-82.911338 35.512818-82.911338 82.911338V533.556201c0 47.414893 35.092239 82.911338 82.911338 82.911338h116.077715v49.747008c0 87.074148 51.721988 165.824723 182.406377 165.824722 130.683365 0 182.406376-78.750575 182.406376-165.824722v-49.747008h116.076692c47.820122 0 82.911338-31.609928 82.911338-79.009472v-517.956665c0-47.39852-35.091216-82.911338-82.912361-82.911338zM644.365168 666.21557c0 66.6377-64.273862 99.495038-132.659369 99.495038-68.38653 0-132.660392-32.856315-132.660392-99.495038v-49.747008h265.318738l0.001023 49.747008z m198.989054-165.8237c0 47.625694-18.703991 66.328661-66.329685 66.328661h-82.911338v-72.126714c19.561521-9.343809 33.164331-29.132504 33.164331-52.240804 0-32.04688-25.989931-58.038858-58.038858-58.038858-32.04688 0-58.037834 25.990954-58.037834 58.038858 0 23.108301 13.602809 42.896996 33.16433 52.240804v72.126714H379.046431v-72.126714c19.562545-9.343809 33.165354-29.132504 33.165353-52.240804 0-32.04688-25.990954-58.038858-58.038857-58.038858s-58.038858 25.990954-58.038858 58.038858c0 23.108301 13.602809 42.896996 33.165354 52.240804v72.126714h-82.912361c-47.625694 0-66.328661-18.702967-66.328662-66.328661v-447.724091c0-47.625694 18.702967-66.329684 66.328662-66.329684h530.637475c47.625694 0 66.329684 18.703991 66.329685 66.329684V500.39187z"  horiz-adv-x="1024" />

    
    <glyph glyph-name="pinpaibiaoshi-aliwangwang" unicode="&#59175;" d="M825.536 611.872c-78.336 61.504-179.072 86.72-274.752 110.944-76.288 19.136-104.8 23.168-154.656 53.44-36.64 23.168-118.048 63.52-125.152 54.432-8.16-8.064 17.28-35.296 27.456-68.576 15.264-47.36 3.072-85.696-35.616-114.944-89.536-67.552-206.56-185.536-198.4-348.896 11.2-222.848 216.736-377.12 468.064-360.96 252.352 16.128 422.304 177.44 427.392 400.32 3.04 107.872-44.8 201.664-134.336 274.24z m-297.12-308.544l38.656 40.32 41.728 42.368c4.064 3.008 3.04 5.024-2.048 6.048-3.04 0-27.456 5.024-51.872 10.08l-47.84 10.08c-1.024 55.456 15.264 90.752 42.752 94.784 35.616 4.032 72.224-42.336 85.44-127.04 11.2-71.616-13.216-133.12-46.784-136.128-23.392-3.04-44.8 20.16-60.032 59.488z m315.456-13.12c-21.376-5.024-38.688 22.208-50.88 62.528 13.216 12.096 24.416 23.2 35.616 32.256 19.328 16.16 35.616 32.288 38.656 35.296 3.04 3.04 2.048 5.056-2.048 6.08-3.04 0-23.392 3.008-44.768 7.04-12.192 3.008-26.464 5.024-41.728 8.064 0 48.384 13.248 93.76 41.728 98.816 31.552 6.08 59.04-53.44 67.168-120 8.128-80.64-16.288-123.008-43.744-130.08z"  horiz-adv-x="1024" />

    
    <glyph glyph-name="saoyisao" unicode="&#58926;" d="M537.807232 94.96713699999998l1.791929-5.682974c27.288515-109.896432 101.807153-168.722893 218.026533-171.769172 112.379533-8.498862 201.208002 34.251439 225.629432 101.935148 10.137197 28.030886 16.024963 82.249531 5.452583 125.076628 0.025599 1.817528-4.172634 18.098481-4.607817 19.660019-11.417146 39.883215-26.187759 97.788113-28.338074 116.987349-10.521182 107.208538-4.940604 138.669688 0 163.78229 0.639975 5.27339 2.25271 15.052202 3.839848 20.735176 1.535939 5.708573 5.554979 10.82837 3.839847 14.565821-9.471624 20.63278-34.942611 10.495583-46.948534-5.426985-3.967842-5.247791-13.234674-15.666577-20.939967-37.835296-6.911725-17.458506-16.050562-77.334526-15.973765-169.362867a44.823818 44.823818 0 0 0-23.602262-40.113606c-5.196593-1.715132-20.197597-6.450944-42.878296-7.986882l-516.152283-0.844767c-21.656739 0-37.553707-12.389908-37.553707-29.874012 0-17.509704 16.127359-28.594063 37.784098-28.594064h225.143051c3.02068-11.621938 9.010842-46.02697 15.487384-65.226207zM814.09705 255.063173c37.374514 3.53266 36.606545 20.299993 36.47855 26.16216-0.127995 98.888869 7.321309 160.377625 22.296713 184.440669a116.936152 116.936152 0 0 0 33.406672 40.267199c30.309195 21.759135 65.021415 14.437826 80.380805-7.730893 2.815888-3.993441 3.071878-5.298989 3.891046-11.007562 0.665574-5.119796 0.25599-7.986883-0.793569-13.669857-8.03808-26.955729-8.396466-88.034901-1.075157-183.186318 3.53266-20.658379 10.367588-50.865178 26.878931-94.84423 11.621938-30.974769 29.131642-110.280416 13.797852-164.038279-28.850053-101.115981-127.918115-170.642817-269.250097-157.945722-146.067794 4.53102-236.278608 88.905266-270.581245 253.07154h-199.339276a63.997456 63.997456 0 1 0 0 127.994913h511.928451c2.457502 0 8.703654 0 11.980324 0.48638zM221.327012 512.9217229999999c-37.374514-3.53266-36.632144-20.299993-36.47855-26.16216 0.102396-98.888869-7.321309-160.377625-22.322312-184.440668a116.936152 116.936152 0 0 0-33.406673-40.2672c-30.283596-21.759135-65.021415-14.437826-80.380804 7.730893-2.790289 3.993441-3.071878 5.298989-3.865447 11.007563-0.665574 5.119796-0.25599 7.986883 0.76797 13.669856 8.03808 26.955729 8.396466 88.034901 1.075157 183.186319-3.507061 20.658379-10.341989 50.865178-26.878932 94.84423C8.241082 603.465324-9.243023 682.770972 6.090768 736.528835 34.864024 837.644816 133.983284 907.171652 275.289667 894.474557c146.093393-4.53102 236.278608-88.905266 270.581245-253.071541h199.339276a63.997456 63.997456 0 1 0 0-127.994912H233.281737c-2.431903 0-8.703654 0-11.954725-0.486381z m275.649843 160.377625l-1.791929 5.708573c-27.314114 109.896432-101.832752 168.697294-218.026533 171.769173-112.405132 8.498862-201.208002-34.277037-225.65503-101.960747-10.111598-28.005287-16.024963-82.223932-5.452584-125.05103 0-1.817528 4.172634-18.098481 4.607817-19.660018 11.417146-39.883215 26.187759-97.788113 28.363673-117.012949 10.495583-107.182939 4.940604-138.644089 0-163.756691a176.632979 176.632979 0 0 0-3.839848-20.735175c-1.561538-5.708573-5.580578-10.82837-3.839847-14.565821 9.471624-20.63278 34.917012-10.495583 46.948534 5.426984 3.942243 5.222192 13.234674 15.666577 20.914369 37.835296 6.911725 17.458506 16.076161 77.308927 15.999364 169.362868a44.823818 44.823818 0 0 0 23.576662 40.113605c5.222192 1.715132 20.223196 6.450944 42.903895 7.986883l516.152283 0.844766c21.656739 0 37.528108 12.389908 37.528108 29.874013 0 17.509704-16.10176 28.594063-37.758499 28.594063h-225.168649c-2.995081 11.621938-9.010842 46.02697-15.461786 65.226207z"  horiz-adv-x="1049" />

    
    <glyph glyph-name="erweima" unicode="&#58627;" d="M62.996776 411.938306l423.162696 0L486.159472 835.099978 62.996776 835.099978 62.996776 411.938306zM168.788218 729.30956l211.580836 0 0-211.580836L168.788218 517.728724 168.788218 729.30956zM539.055193 835.099978l0-423.162696 423.162696 0L962.217888 835.099978 539.055193 835.099978zM856.426447 517.728724L644.845611 517.728724 644.845611 729.30956l211.580836 0L856.426447 517.728724zM221.682915 570.623421l105.790418 0L327.473333 676.414863 221.682915 676.414863 221.682915 570.623421zM62.996776-64.12011099999995l423.162696 0L486.159472 359.04258500000003 62.996776 359.04258500000003 62.996776-64.12011099999995zM168.788218 253.252167l211.580836 0 0-211.580836L168.788218 41.67133100000001 168.788218 253.252167zM803.531749 676.414863L697.740308 676.414863l0-105.790418 105.790418 0L803.530726 676.414863zM539.055193-64.12011099999995l105.790418 0L644.845611 41.67030799999998 539.055193 41.67030799999998 539.055193-64.12011099999995zM644.845611 253.252167l0-211.580836 105.790418 0L750.636029 253.252167 644.845611 253.252167zM856.426447 41.67030799999998L750.636029 41.67030799999998 750.636029-64.12011099999995l211.580836 0L962.216865 147.46174900000005 856.426447 147.46174900000005 856.426447 41.67030799999998zM856.426447 253.252167l105.790418 0L962.216865 359.04258500000003 856.426447 359.04258500000003 856.426447 253.252167zM539.055193 359.04258500000003l0-105.790418 105.790418 0L644.845611 359.04258500000003 539.055193 359.04258500000003zM221.682915 94.56602799999996l105.790418 0L327.473333 200.356446 221.682915 200.356446 221.682915 94.56602799999996z"  horiz-adv-x="1024" />

    
    <glyph glyph-name="walllet" unicode="&#58636;" d="M932.94868944-122.44517556999995l-811.51390065 0c-63.97408187 0-115.88367956 51.84520756-115.88367958 115.88491817l0 550.59514339c0 42.8454476 23.54202646 79.95150475 58.23592989 99.90625682 0 0.13125724-0.13125724 0.19440912-0.13125726 0.32690366-4.17173842 15.45487253 798.34240238 246.17960682 798.34240237 246.17960689 33.06309942 0 44.28060508-30.97661097 41.99723075-56.34508818l0-174.118371 28.95451289 0c63.97408187 0 115.88491813-51.90959782 115.88491802-115.88367956L1048.83484596 370.23970353000004l0-231.89490139 0-144.9038211C1048.83360741-70.59996787 996.92277124-122.44517556999995 932.94868944-122.44517556999995M841.06767328 818.58701688l-536.91966714-158.6684523 536.91966714 0 0 166.09808319L841.06767328 818.58701688zM983.785944 312.36163429l-195.74107582-0.15973721 0-115.88491809 195.74107582 0.16221405L983.785944 312.36163429zM984.25029637 133.12919968000006L781.85598565 133.12919968000006c-31.62670347 0-57.14377379 25.51954617-57.14377393 57.14625067l0.15478446 127.90482364c0 31.5610749 25.4551559 57.20940256 57.14377385 57.20940248l202.39431077 0-0.1671667 164.71121936c0 31.56231333-25.52202292 57.14748808-57.14625069 57.14748811l-799.86052349 0c-31.56355166 0-57.14748808-25.52078451-57.14748814-57.14748811l0-542.73211586c0-31.5610749 25.58393639-57.14625064 57.14748814-57.14625058l799.86052349 0c31.5610749 0 57.14625064 25.51954617 57.14625069 57.14625058l0 142.83466893L984.25029637 133.12919968000006z"  horiz-adv-x="1055" />

    
    <glyph glyph-name="yaoyiyao" unicode="&#58629;" d="M425.206358 640.383536L538.283821 671.2287650000001C543.738331 672.7174210000001 546.948859 678.324903 545.452869 683.753704 543.957907 689.182505 538.32281 692.37832 532.866248 690.890683L419.789811 660.0454540000001C414.334275 658.557818 411.122723 652.948294 412.61871 647.519494 414.114701 642.090693 419.750822 638.895899 425.206358 640.383536L425.206358 640.383536ZM826.059526 187.13019699999995L819.893958 209.51417600000002C835.735227 226.44280500000002 842.666232 250.891299 836.071774 274.83846900000003 830.523893 294.97822900000006 816.553123 310.557061 798.987054 318.88966400000004 816.494638 336.253251 824.392186 362.220013 817.39141 387.633378 811.063726 410.602403 794.032232 427.782206 773.131483 435.346997 787.235642 452.460432 793.080053 475.87973 786.753395 498.848757 780.425712 521.818805 763.397296 538.997586 742.49347 546.561355 756.598653 563.6758110000001 762.443064 587.09409 756.114355 610.0631149999999 748.186026 638.84587 723.462195 658.545568 695.354434 661.603544L674.517301 737.240212C665.522899 769.886533 631.640498 789.096138 598.832376 780.145814L315.290174 702.800968C282.48308 693.852686 263.178874 660.132245 272.17225 627.487965L280.569486 597.004179C252.638206 580.351227 230.79759 557.201478 215.55759 535.8466960000001 197.676523 510.790691 185.043729 455.780813 181.142666 426.319075 177.243655 396.856315 203.202857 340.786611 206.753009 333.348429 210.304187 325.91126899999995 225.073228 302.28776300000004 197.795546 273.175218 170.518889 244.06165 102.726383 203.89444300000002 88.135875 188.70666600000004 73.545367 173.51786600000003 44.136568 122.15101300000003 93.805857 78.15597600000001 143.476173 34.15991699999995 240.134696-44.09772799999996 240.134696-44.09772799999996 240.134696-44.09772799999996 308.934789-94.83052299999997 355.095995-30.675305999999978L401.257202 33.48195399999997 424.947795 73.46333400000003C435.479229 43.22050999999999 467.927203 25.886532999999986 499.396323 34.472350000000006L782.938523 111.81617600000004C815.751773 120.76547700000003 835.053928 154.48591799999997 826.059526 187.13019699999995L826.059526 187.13019699999995ZM780.787909 214.48759800000005L688.354683 189.27129100000002C664.984219 182.89906099999996 640.846266 196.58184500000004 634.440602 219.83675800000003 628.033912 243.09269300000005 641.78408 267.11133400000006 665.155571 273.486629L757.588797 298.701915C780.95721 305.076187 805.096187 291.392381 811.502878 268.137467 817.907517 244.87949100000003 804.157347 220.86186999999995 780.787909 214.48759800000005L780.787909 214.48759800000005ZM792.243818 380.773096C798.801339 356.970912 784.72591 332.387642 760.807533 325.86327800000004L649.06497 295.381534C649.055734 295.381534 649.049578 295.379493 649.043422 295.37745099999995 625.125045 288.85206700000003 600.419683 302.855454 593.863189 326.65968 587.307722 350.46084299999995 601.382123 375.04411400000004 625.301526 381.56949799999995L737.064611 412.055325C760.982989 418.580709 785.687323 404.574259 792.243818 380.773096L792.243818 380.773096ZM761.607856 491.989496C768.165376 468.188333 754.088922 443.604042 730.170544 437.079678L618.426955 406.596914C618.419773 406.59487 584.885203 397.44851 584.878021 397.445448 560.958618 390.921085 536.253256 404.926514 529.697789 428.728698 523.140269 452.530882 537.216722 477.114152 561.135101 483.638515L706.427624 523.271726C730.344974 529.796088 755.04931 515.790659 761.607856 491.989496L761.607856 491.989496ZM730.970869 603.204875C737.528389 579.40371 723.45296 554.8194209999999 699.533557 548.2950579999999L587.789966 517.8143339999999C587.78381 517.812291 587.777654 517.810251 587.768421 517.8082079999999 563.850043 511.282824 539.145707 525.289274 532.589213 549.0904370000001 526.031693 572.892621 540.107122 597.4758899999999 564.025498 604.000254L675.791661 634.488123C699.709011 641.011467 724.413349 627.006038 730.970869 603.204875L730.970869 603.204875ZM311.972936 613.8776700000001C305.227648 638.361902 319.706317 663.651723 344.311125 670.362934L591.543277 737.804838C616.148086 744.51605 641.563478 730.108336 648.306715 705.624105L661.562325 657.509224 632.896389 649.689178C625.77659 660.53657 612.200851 666.089934 598.970893 662.481626L381.761122 603.2303999999999C375.405734 601.4966959999999 370.070246 597.898597 366.171235 593.1977870000001 356.174379 599.672122 334.980178 611.2352530000001 313.155979 609.584251L311.972936 613.8776700000001 311.972936 613.8776700000001ZM320.611298 451.657904L412.160064 119.325829 326.159178-1.9497310000000425C326.159178-1.9497310000000425 302.384448-38.32892800000002 271.674611-16.812821999999983 240.964773 4.703283000000056 240.964771 4.703283000000056 240.964771 4.703283000000056L116.761793 112.06734700000004C116.761793 112.06734700000004 92.270876 138.26894600000003 114.984665 159.41135399999996 137.698454 180.553762 137.698453 180.553762 137.698453 180.553762 137.698453 180.553762 196.905954 227.34335 213.78354 242.41166899999996 230.661125 257.477944 267.881285 285.94111699999996 244.475934 343.63936 221.070585 401.337602 219.788016 411.449854 219.574596 428.580648 219.362203 445.710419 234.730461 496.23901 245.504043 517.112888 245.504043 517.112888 263.294818 546.0998480000001 290.110776 563.41851 299.621283 569.495662 309.234395 573.0702779999999 316.528624 574.639598 330.667667 577.168682 343.495413 573.271422 354.41572 567.51487 355.979429 566.908381 358.362955 565.729094 361.370322 564.109746 361.778693 563.890224 362.198349 563.661515 362.629293 563.425658 362.948395 563.251062 363.266474 563.076466 363.596862 562.8937020000001 363.912888 562.718085 364.238147 562.537363 364.563406 562.3556209999999 364.879432 562.177962 365.201613 561.998261 365.526874 561.814477 365.866498 561.623546 366.203045 561.434654 366.551902 561.236576 366.934621 561.020118 367.330678 560.79345 367.724685 560.566782 368.307483 560.233926 368.902597 559.891883 369.512072 559.539629 369.847592 559.345634 370.183112 559.1526590000001 370.527867 558.952538 370.944445 558.709533 371.367179 558.4634659999999 371.794019 558.2133140000001 372.117227 558.024424 372.445565 557.8324700000001 372.774928 557.638477 373.224341 557.375051 373.670675 557.1136690000001 374.129322 556.8430960000001 374.346845 556.715467 374.572578 556.5796700000001 374.793179 556.4510210000001 375.733046 555.895581 376.693434 555.323806 377.67537 554.738758 377.994472 554.548848 378.312549 554.359957 378.634731 554.165962 379.145706 553.860675 379.660786 553.5513040000001 380.180995 553.2398900000001 380.519594 553.036706 380.862296 552.830458 381.204998 552.6242110000001 382.991362 551.5490689999999 384.830053 550.43615 386.714917 549.288515 387.071984 549.0710369999999 387.429051 548.853558 387.789197 548.634037 388.335059 548.3011819999999 388.881946 547.967307 389.434989 547.630368 389.839256 547.382259 390.247626 547.132107 390.65497 546.882976 429.906718 522.835744 485.158776 486.82616 485.158776 486.82616 477.529027 443.641818 455.63711 424.96519 407.868075 423.892091 404.924323 423.826746 402.037002 423.859418 399.208168 423.977858 388.532061 424.006446 362.458968 430.61147 362.458968 430.61147 339.711318 437.940405 324.715518 448.957286 320.611298 451.657904L320.611298 451.657904ZM508.60209 73.97486600000002C483.99728 67.26263400000005 458.58189 81.66830600000003 451.837627 106.15253600000005L373.334128 391.128352C387.660939 388.617646 408.976214 388.511459 408.976214 388.511459L459.667454 204.50195199999996C464.16363 188.17981299999997 481.105856 178.57194700000002 497.51043 183.04609000000005L603.157198 211.86764200000005C603.20337 211.68998399999998 603.241334 211.514366 603.290586 211.338749 604.697307 206.22850900000003 606.666307 201.42049299999996 609.07959 196.93818199999998 593.323483 191.369501 584.320872 174.56135200000006 588.811918 158.25452800000005 593.518435 141.17274399999997 611.249698 131.11869000000002 628.417656 135.802142 641.468056 139.36246400000005 650.426544 150.41304000000002 651.910221 163.01149399999997 663.505672 159.85039400000005 676.073826 159.63495699999999 688.509618 163.02885100000003L787.523963 190.037061C788.209368 190.222888 788.878355 190.44036600000004 789.554526 190.64559199999997 791.95447 168.60468000000003 778.01243 147.46227199999998 755.83732 141.41472799999997L508.60209 73.97486600000002 508.60209 73.97486600000002ZM147.545506 659.621728C150.532353 658.765086 153.563321 658.7946959999999 156.357271 659.557403 161.651716 661.002157 166.087354 665.074013 167.720834 670.707019 185.014998 730.3452139999999 230.192218 778.576493 288.570664 799.728091 297.027414 802.791172 301.387123 812.098855 298.307931 820.5141610000001 295.228738 828.929467 285.890608 833.2586220000001 277.419494 830.203709 209.292494 805.5203779999999 156.576846 749.256679 136.406649 679.698185 133.910256 671.093989 138.897912 662.104866 147.545506 659.621728L147.545506 659.621728ZM301.306066 764.6486620000001C254.335301 747.574025 217.912386 708.762742 203.873896 660.826541 201.355956 652.228472 206.318986 643.227096 214.960424 640.720474 217.958558 639.851579 221.005943 639.879149 223.81323 640.644918 229.093312 642.084566 233.519715 646.139066 235.16448 651.753693 246.311547 689.8216669999999 275.218605 720.636266 312.48699 734.1842750000001 320.940661 737.257567 325.290109 746.568313 322.202709 754.980555 319.116334 763.392799 309.758709 767.720932 301.306066 764.6486620000001L301.306066 764.6486620000001ZM944.654088 177.39266099999998C941.560531 177.688758 938.585997 177.10370999999998 935.979814 175.84274200000004 931.044488 173.45456000000001 927.436878 168.63735399999996 926.871522 162.80218200000002 920.900906 101.01881100000003 885.413754 45.34015999999997 831.93985 13.858830000000012 824.194158 9.299945999999977 821.629019-0.6448589999999967 826.211382-8.35463500000003 830.795797-16.061346999999955 840.772134-18.607790000000023 848.536294-14.05298700000003 910.935853 22.681524999999965 952.350528 87.63620800000001 959.315392 159.698261 960.178306 168.61387000000002 953.613603 176.539083 944.654088 177.39266099999998L944.654088 177.39266099999998ZM889.508739 165.89691700000003C890.394226 174.80946200000005 883.850045 182.74896999999999 874.895659 183.63113799999996 871.785685 183.93540299999995 868.794733 183.352397 866.178293 182.083261 861.254253 179.70324500000004 857.653824 174.90646100000004 857.074102 169.08660499999996 853.155598 129.62799199999995 830.43873 94.047238 796.311102 73.905437 788.569515 69.33736199999998 786.015662 59.38847199999998 790.607261 51.684822000000054 795.197832 43.98219400000005 805.195717 41.43983700000001 812.937304 46.01097400000003 855.949546 71.39269000000002 884.573413 116.209653 889.508739 165.89691700000003L889.508739 165.89691700000003Z"  horiz-adv-x="1024" />

    
    <glyph glyph-name="qicheqianlian-" unicode="&#58630;" d="M908.629333 152.23466699999994H257.877333c-19.285333 0-37.376 7.509333-50.858666 21.162666-13.482667 13.653333-20.992 31.573333-20.821334 50.858667l2.389334 479.232c0 19.114667-6.656 31.914667-39.765334 37.205333h-0.170666l-95.573334 16.384c-9.216 1.536-15.530667 10.410667-13.994666 19.626667 1.536 9.216 10.410667 15.530667 19.626666 13.994667l95.402667-16.384c45.397333-7.168 68.437333-31.061333 68.437333-70.997334L220.16 223.914667c0-10.069333 3.754667-19.456 10.922667-26.453334 7.168-7.168 16.554667-11.093333 26.624-11.093333h650.752c9.386667 0 17.066667-7.68 17.066666-17.066667s-7.509333-17.066667-16.896-17.066666zM859.989333 250.19733299999996l-602.624 1.877334c-18.944 0.170667-36.693333 7.509333-50.005333 20.992-13.312 13.482667-20.48 31.232-20.48 50.176l1.877333 353.962666L870.570667 626.346667c30.890667-1.194667 55.125333-26.282667 55.125333-57.173334V315.733333c0-36.181333-29.525333-65.536-65.706667-65.536zM257.706667 286.20799999999997l602.453333-1.877333c17.408 0 31.573333 14.165333 31.573333 31.402666V569.173333c0 12.458667-9.898667 22.698667-22.357333 23.04h-0.682667l-645.632 48.128-1.536-317.44c0-9.728 3.754667-18.944 10.581334-25.941333 6.485333-6.826667 15.701333-10.752 25.6-10.752zM324.096 95.91466700000001m-63.658667 0a63.658667 63.658667 0 1 1 127.317334 0 63.658667 63.658667 0 1 1-127.317334 0ZM324.096 15.189333000000033c-44.544 0-80.725333 36.181333-80.725333 80.725334s36.181333 80.725333 80.725333 80.725333c44.544 0 80.725333-36.181333 80.725333-80.725333s-36.181333-80.725333-80.725333-80.725334z m0 127.317334c-25.770667 0-46.592-20.821333-46.592-46.592s20.821333-46.592 46.592-46.592 46.592 20.821333 46.592 46.592-20.821333 46.592-46.592 46.592zM812.714667 95.91466700000001m-63.658667 0a63.658667 63.658667 0 1 1 127.317333 0 63.658667 63.658667 0 1 1-127.317333 0ZM812.714667 15.189333000000033c-44.544 0-80.725333 36.181333-80.725334 80.725334s36.181333 80.725333 80.725334 80.725333 80.725333-36.181333 80.725333-80.725333-36.181333-80.725333-80.725333-80.725334z m0 127.317334c-25.770667 0-46.592-20.821333-46.592-46.592s20.821333-46.592 46.592-46.592 46.592 20.821333 46.592 46.592-20.821333 46.592-46.592 46.592zM710.314667 478.037333H362.496c-9.386667 0-17.066667 7.68-17.066667 17.066667s7.68 17.066667 17.066667 17.066667h347.818667c9.386667 0 17.066667-7.68 17.066666-17.066667s-7.68-17.066667-17.066666-17.066667zM710.314667 379.904H362.496c-9.386667 0-17.066667 7.68-17.066667 17.066667s7.68 17.066667 17.066667 17.066666h347.818667c9.386667 0 17.066667-7.68 17.066666-17.066666s-7.68-17.066667-17.066666-17.066667z"  horiz-adv-x="1024" />

    
    <glyph glyph-name="erweima1" unicode="&#58631;" d="M62.996776 411.938306l423.162696 0L486.159472 835.099978 62.996776 835.099978 62.996776 411.938306zM168.788218 729.30956l211.580836 0 0-211.580836L168.788218 517.728724 168.788218 729.30956zM539.055193 835.099978l0-423.162696 423.162696 0L962.217888 835.099978 539.055193 835.099978zM856.426447 517.728724L644.845611 517.728724 644.845611 729.30956l211.580836 0L856.426447 517.728724zM221.682915 570.623421l105.790418 0L327.473333 676.414863 221.682915 676.414863 221.682915 570.623421zM62.996776-64.12011099999995l423.162696 0L486.159472 359.04258500000003 62.996776 359.04258500000003 62.996776-64.12011099999995zM168.788218 253.252167l211.580836 0 0-211.580836L168.788218 41.67133100000001 168.788218 253.252167zM803.531749 676.414863L697.740308 676.414863l0-105.790418 105.790418 0L803.530726 676.414863zM539.055193-64.12011099999995l105.790418 0L644.845611 41.67030799999998 539.055193 41.67030799999998 539.055193-64.12011099999995zM644.845611 253.252167l0-211.580836 105.790418 0L750.636029 253.252167 644.845611 253.252167zM856.426447 41.67030799999998L750.636029 41.67030799999998 750.636029-64.12011099999995l211.580836 0L962.216865 147.46174900000005 856.426447 147.46174900000005 856.426447 41.67030799999998zM856.426447 253.252167l105.790418 0L962.216865 359.04258500000003 856.426447 359.04258500000003 856.426447 253.252167zM539.055193 359.04258500000003l0-105.790418 105.790418 0L644.845611 359.04258500000003 539.055193 359.04258500000003zM221.682915 94.56602799999996l105.790418 0L327.473333 200.356446 221.682915 200.356446 221.682915 94.56602799999996z"  horiz-adv-x="1024" />

    
    <glyph glyph-name="jiantou-" unicode="&#58952;" d="M665.49117202 202.37485276999996l-195.13112019 181.70519902 195.13112019 181.70324656-55.75249116 51.91846723-250.88361327-233.62171379 250.88361327-233.62431648 55.75249116 51.91911746z m-55.75249116-51.91911746"  horiz-adv-x="1024" />

    
    <glyph glyph-name="biaoqing" unicode="&#58884;" d="M512 825.830973A441.830973 441.830973 0 1 0 70.169027 384 442.298767 442.298767 0 0 0 512 825.830973m0 70.169027a512 512 0 1 1 512-512A512 512 0 0 1 512 896zM265.472819 567.842851a70.169027 67.830059 90 1 1 135.660118 0 70.169027 67.830059 90 1 1-135.660118 0ZM638.772042 571.585199a70.169027 67.830059 90 1 1 135.660119 0 70.169027 67.830059 90 1 1-135.660119 0ZM704.730927 308.919141v-32.745546a182.907264 182.907264 0 1 0-365.58063 0v32.745546h365.58063m70.169027 70.169027H268.98127v-102.914573a253.076291 253.076291 0 1 1 505.918684 0v102.914573z"  horiz-adv-x="1024" />

    
    <glyph glyph-name="sousuo" unicode="&#58901;" d="M222.0032 673.9968c-151.3472-151.3472-151.3472-397.312-0.2048-548.6592C366.592-19.456 597.8112-25.6 749.9776 106.496l143.5648-143.5648c10.8544-10.8544 28.672-10.8544 39.5264 0 10.8544 10.8544 10.8544 28.672 0 39.5264l-143.5648 143.5648c131.8912 151.9616 125.7472 383.1808-19.0464 527.9744-151.1424 151.3472-397.312 151.1424-548.4544 0zM730.9312 164.864c-129.6384-129.6384-340.1728-129.6384-469.6064-0.2048-129.4336 129.4336-129.4336 340.1728 0.2048 469.6064 129.4336 129.4336 340.1728 129.4336 469.6064 0 129.2288-129.2288 129.2288-339.968-0.2048-469.4016z"  horiz-adv-x="1024" />

    
    <glyph glyph-name="shezhi" unicode="&#58637;" d="M64 421.3c1.2 10 5.1 19.9 11.9 28.4 6.8 8.5 15.5 14.5 25.1 17.8l86.3 30.7c4.2 11.7 8.9 23.3 14.4 34.6l-39.3 82.8c-4.3 9.1-6.3 19.5-5.1 30.2s5.3 20.5 11.5 28.4l52.9 52.9c8 6.2 17.7 10.4 28.4 11.5s21.1-0.8 30.2-5.1l82.8-39.3c11.4 5.4 22.9 10.2 34.7 14.4l30.7 86.3c3.4 9.5 9.4 18.3 17.8 25.1 8.5 6.8 18.3 10.7 28.4 11.9h74.4c10-1.2 19.9-5.1 28.4-11.9 8.5-6.8 14.5-15.5 17.8-25.1l30.7-86.3c11.7-4.2 23.3-8.9 34.7-14.4l82.8 39.3c9.1 4.3 19.5 6.3 30.2 5.1 10.8-1.2 20.5-5.3 28.4-11.5l52.9-52.9c6.2-8 10.4-17.7 11.5-28.4s-0.8-21.1-5.1-30.2l-39.3-82.8c5.4-11.3 10.2-22.9 14.4-34.6l86.3-30.7c9.5-3.4 18.3-9.4 25.1-17.8s10.7-18.3 11.9-28.4v-74.5c-1.2-10-5.1-19.9-11.9-28.4-6.8-8.5-15.5-14.5-25.1-17.8l-86.3-30.7c-4.2-11.7-8.9-23.3-14.4-34.7l39.3-82.8c4.3-9.1 6.3-19.5 5.1-30.2-1.2-10.8-5.3-20.5-11.5-28.4l-52.9-52.9c-8-6.2-17.7-10.4-28.4-11.5-10.8-1.2-21.1 0.8-30.2 5.1l-82.8 39.3c-11.4-5.4-22.9-10.2-34.7-14.4L595.4-27c-3.4-9.5-9.4-18.3-17.8-25.1-8.5-6.8-18.3-10.7-28.4-11.9h-74.4c-10 1.2-19.9 5.1-28.4 11.9-8.5 6.8-14.5 15.5-17.8 25.1l-30.7 86.3c-11.7 4.2-23.3 8.9-34.7 14.4l-82.8-39.3c-9.1-4.3-19.5-6.3-30.2-5.1s-20.5 5.3-28.4 11.5l-52.9 52.9c-6.2 8-10.4 17.7-11.5 28.4-1.2 10.8 0.8 21.1 5.1 30.2l39.3 82.8c-5.4 11.4-10.2 22.9-14.4 34.7L101 300.6c-9.5 3.4-18.3 9.4-25.1 17.8-6.8 8.5-10.7 18.3-11.9 28.4v74.5z m56.1-6.6c-1.8-20.3-1.8-41.1 0-61.3l112.3-39.9 4.2-13.5c5.3-17.6 12.5-34.7 21.2-51.2l6.6-12.5-51.1-107.6c13.3-15.5 27.8-30.1 43.4-43.4l107.6 51.1 12.5-6.6c16.5-8.7 33.6-15.9 51.2-21.2l13.5-4.2 39.9-112.3c10.1-0.9 20.3-1.4 30.6-1.4s20.5 0.5 30.6 1.4l39.9 112.3 13.5 4.2c17.6 5.3 34.7 12.5 51.2 21.2l12.5 6.6 107.6-51.1c15.5 13.3 30.1 27.8 43.4 43.4l-51.1 107.6 6.6 12.5c8.7 16.5 15.9 33.6 21.2 51.2l4.2 13.5 112.3 39.9c1.8 20.2 1.8 41 0 61.3l-112.3 39.9-4.2 13.5c-5.3 17.5-12.5 34.7-21.2 51.1l-6.6 12.5 51.1 107.6c-13.3 15.5-27.8 30.1-43.4 43.4l-107.6-51.1-12.5 6.6c-16.5 8.7-33.6 15.9-51.2 21.2l-13.5 4.2-39.9 112.3c-10.1 0.9-20.3 1.4-30.6 1.4s-20.5-0.5-30.6-1.4l-39.9-112.3-13.5-4.2c-17.6-5.3-34.7-12.5-51.2-21.2l-12.5-6.6-107.6 51.1c-15.5-13.3-30.1-27.8-43.4-43.4l51.1-107.6-6.6-12.5c-8.7-16.4-15.9-33.6-21.2-51.1l-4.2-13.5-112.3-39.9zM512 510c69.5 0 126-56.5 126-126s-56.5-126-126-126-126 56.5-126 126 56.5 126 126 126m0 56c-100.5 0-182-81.5-182-182s81.5-182 182-182 182 81.5 182 182-81.5 182-182 182z"  horiz-adv-x="1024" />

    
    <glyph glyph-name="sousuo-copy" unicode="&#58899;" d="M918.528 22.52800000000002l-173.056 173.056c53.76 64 86.016 146.432 86.016 236.544 0 203.264-164.864 368.128-368.128 368.128S96.256 635.392 96.256 432.128s164.864-368.128 368.128-368.128c90.112 0 172.544 32.256 236.544 86.016l173.056-173.056c12.288-12.288 32.768-12.288 45.056 0 12.288 12.8 12.288 33.28-0.512 45.568z m-454.656 115.2c-162.816 0-294.4 131.584-294.4 294.4s131.584 294.4 294.4 294.4 294.4-131.584 294.4-294.4-131.584-294.4-294.4-294.4z"  horiz-adv-x="1024" />

    
    <glyph glyph-name="shezhi3" unicode="&#58661;" d="M899.5 482.6h-85c-23.8 0-35.7 28.7-18.9 45.5l60.1 60.1c10.4 10.4 10.4 27.3 0 37.7L754 727.7c-5.2 5.2-12 7.8-18.9 7.8-6.8 0-13.7-2.6-18.9-7.8l-60.1-60.1c-5.4-5.4-12.1-7.9-18.7-7.9-13.7 0-26.9 10.6-26.9 26.7v85c0.1 14.8-11.8 26.7-26.6 26.7H440.1c-14.7 0-26.7-11.9-26.7-26.7v-85c0-16.1-13.2-26.7-26.9-26.7-6.6 0-13.2 2.4-18.7 7.9l-60.1 60.1c-5.2 5.2-12 7.8-18.9 7.8-6.9 0-13.7-2.6-18.9-7.8L168.3 626c-10.4-10.4-10.4-27.3 0-37.7l60.1-60.1c16.8-16.8 4.9-45.5-18.9-45.5h-85c-14.7 0-26.7-11.9-26.7-26.7v-143.9c0-14.7 11.9-26.7 26.7-26.7h85c23.8 0 35.7-28.7 18.9-45.5l-60.1-60.1c-10.4-10.4-10.4-27.3 0-37.7L270 40.299999999999955c5.2-5.2 12-7.8 18.9-7.8 6.9 0 13.7 2.6 18.9 7.8l60.1 60.1c5.4 5.4 12.1 7.9 18.7 7.9 13.7 0 26.9-10.6 26.9-26.7v-85c0-14.7 11.9-26.7 26.7-26.7h143.9c14.7 0 26.7 11.9 26.7 26.7v85c0 16.1 13.2 26.7 26.9 26.7 6.6 0 13.2-2.4 18.7-7.9l60.1-60.1c5.2-5.2 12-7.8 18.9-7.8 6.8 0 13.7 2.6 18.9 7.8L855.7 142c10.4 10.4 10.4 27.3 0 37.7l-60.1 60.1c-16.8 16.8-4.9 45.5 18.9 45.5h85c14.7 0 26.7 11.9 26.7 26.7V455.9c0 14.7-11.9 26.7-26.7 26.7z m-12.8-157.8h-72.2c-26.8 0-50.8-16-61.1-40.8s-4.6-53.1 14.3-72.1l51.1-51.1-83.7-83.7-51.1 51.2c-12.5 12.5-29.1 19.4-46.6 19.4-16.9 0-33.1-6.4-45.5-18-13.4-12.5-20.8-29.7-20.8-48.2v-72.2H452.8v72.2c0 18.6-7.4 35.7-20.8 48.2-12.4 11.6-28.6 18-45.5 18-17.5 0-34-6.9-46.6-19.4l-51.1-51.1-83.7 83.7 51.1 51.1c19 19 24.6 47.3 14.3 72.1s-34.2 40.8-61.1 40.8h-72.2V443.2h72.2c26.8 0 50.8 16 61.1 40.8 10.3 24.8 4.6 53.1-14.3 72.1l-51.1 51.1 83.7 83.7 51.1-51.1c12.5-12.5 29.1-19.4 46.6-19.4 16.9 0 33.1 6.4 45.5 18 13.4 12.5 20.8 29.7 20.8 48.2v72.2h118.4v-72.3c0-18.6 7.4-35.7 20.8-48.2 12.4-11.6 28.6-18 45.5-18 17.5 0 34 6.9 46.6 19.4l51.1 51.1 83.7-83.7-51.2-51.1c-19-19-24.6-47.3-14.3-72.1s34.2-40.8 61.1-40.8h72.2v-118.3zM512 541.8c-87.1 0-157.8-70.6-157.8-157.8 0-87.1 70.6-157.8 157.8-157.8 87.1 0 157.8 70.6 157.8 157.8 0 87.1-70.7 157.8-157.8 157.8z m83.7-241.6c-22.4-22.4-52.1-34.7-83.7-34.7s-61.3 12.3-83.7 34.7c-22.3 22.3-34.7 52.1-34.7 83.7s12.3 61.3 34.7 83.7 52.1 34.7 83.7 34.7 61.3-12.3 83.7-34.7c22.3-22.3 34.7-52.1 34.7-83.7s-12.3-61.3-34.7-83.7zM512 581.2c-108.9 0-197.2-88.3-197.2-197.2S403.1 186.79999999999995 512 186.79999999999995 709.2 275.1 709.2 384 620.9 581.2 512 581.2z m125.5-322.7c-33.5-33.5-78.1-52-125.5-52s-92 18.5-125.5 52-52 78.1-52 125.5 18.5 92 52 125.5 78.1 52 125.5 52c47.4 0 92-18.5 125.5-52s52-78.1 52-125.5-18.5-92-52-125.5z"  horiz-adv-x="1024" />

    
    <glyph glyph-name="biaoqing1" unicode="&#58942;" d="M512.03499609 383.96500390999995m-427.44260196 0a427.44260197 427.44260197 0 1 1 854.88520393 0 427.44260197 427.44260197 0 1 1-854.88520393 0ZM774.99583731 329.09108821999996c7.48916987 0 13.57849406-6.85923922 12.31863372-14.27841594-22.18753991-131.44542403-136.48486541-231.46433359-274.15959897-231.46433359s-252.04205222 100.08890175-274.15959897 231.46433359c-1.25986034 7.41917769 4.82946481 14.27841691 12.31863372 14.27841594h523.6819305zM289.94962241 499.52218975a63.13299963 55.08389225 90 1 1 110.16778353 0 63.13299963 55.08389225 90 1 1-110.16778353 0ZM618.84315269 499.52218975a63.13299963 55.08389225 90 1 1 110.16778353 0 63.13299963 55.08389225 90 1 1-110.16778353 0Z"  horiz-adv-x="1024" />

    
    <glyph glyph-name="kanyikan" unicode="&#58946;" d="M328.47357687 663.0319621900001L450.86968156 804.12276844c22.01368781 25.332675 61.5028575 24.92626781 82.90693594-0.94828219l109.32336094-131.94665906 192.77217281-40.77612282c33.93494719-7.17984937 52.56191344-43.8241725 38.33768438-75.45614906l-72.74677219-161.88527531 73.76278875-182.88294656c13.41141563-33.2576025-8.46680344-70.10512969-44.02737656-74.30466375l-194.19459469-22.96197L535.26677469-31.787765629999967c-21.06540563-29.87088094-65.02504781-30.8868975-87.44514188-2.03203218L332.53764219 114.85726406000003l-180.85091344 21.33634313c-34.68002531 4.06406531-56.55824438 39.35370094-44.84019 72.27263156l61.23192 171.842235-62.85754594 176.38044188c-11.17618031 31.42877344 8.26359938 65.43145406 41.04706125 71.66302125l182.20560281 34.68002531zM489.952445 597.1263675l145.29034031 50.12347406c5.0123475 1.76109469 10.36336688-1.42242281 11.24391469-6.70570875L670.53242094 498.91145156l120.49954125-108.30734531c4.06406531-3.65765906 3.72539344-10.16016375-0.74507906-13.34368125L669.24546688 290.01848625 646.35123125 127.65907030999995c-0.81281344-5.62195688-6.70570781-8.94094406-11.92125844-6.70570875l-149.62534406 64.27996969-137.83955438-63.80582812c-5.21555062-2.43843937-11.31164906 0.88054781-12.12446156 6.63797343l-21.60728156 157.82120907-122.32837125 91.23827062c-4.40273719 3.31898719-4.60594125 9.82149187-0.40640625 13.41141563l116.43547594 99.09546375 27.70337906 151.11550125c0.94828219 5.14781625 6.29930156 8.26359938 11.24391469 6.57023906L489.952445 597.1263675z"  horiz-adv-x="1024" />

    
    <glyph glyph-name="piaoliuping" unicode="&#58947;" d="M835.64170347 593.73708693c-7.475472-13.25547627-24.19895147-17.8024128-37.37736-10.3269408l-86.931264-150.28010986c-12.0994752-21.270416-11.48294187-47.78136853 0.53946666-69.66831787 34.52589227-59.2643104 37.37736107-134.6355648 0.53946774-199.1404128L641.74182827 51.34149013000001c-69.05178347 7.475472-132.94009707 23.58241707-188.73640534 47.78136747-2.31200213 1.15600107-4.00746987 1.69546773-6.31947093 2.31200213-66.7397824 28.745888-145.57904 47.16483413-231.35430293 50.0933696-10.3269408 1.15600107-20.73094827 1.15600107-31.05788907 1.15600107-4.00746987 0-7.475472 0-11.48294187-0.53946667l-3.46800213 2.31200107 144.34597227 240.216976c39.68936213 69.05178347 113.9816832 104.7336768 188.1969376 99.57020693 26.51095253-2.31200213 52.40537173 10.3269408 65.58378133 33.3698912l81.6907264 142.18810347c-12.63894293 7.475472-17.26294613 24.19895147-9.78747413 37.37736107 7.475472 13.25547627 24.19895147 17.26294613 37.37736106 9.78747413L825.31476267 631.114448c13.25547627-7.475472 17.8024128-24.19895147 10.3269408-37.37736107zM789.47873707 672.49927787L734.22189653 704.481968c-9.0168064 5.2405376-12.0994752 16.7234784-6.85893866 25.74028587l36.22136 62.73231253c5.2405376 9.0168064 16.7234784 12.0994752 25.7402848 6.85893867l85.77526293-49.47683627c12.02240853-6.93600533 12.63894293-24.1218848 1.15600107-31.90562347l-66.66271574-45.16109973c-6.08827093-4.08453653-13.79494293-4.31573653-20.11441386-0.77066773zM975.36367253 53.96175787000004c-85.46699627-70.82431893-217.6364256-115.67715093-363.75493333-115.67715094-10.0957408 0-20.26854827 0-30.364288 1.15600107-1.69546773 0-3.9304032 0-5.62587093 0.53946667-49.47683627 1.69546773-96.71873707 9.2480064-140.03023574 21.270416-41.61603093 10.9434752-79.84112533 26.51095253-114.67528426 44.31336533-3.39093547 2.31200213-7.86080533 4.6240032-12.9472096 6.93600533-75.91072213 40.8453632-173.16892693 65.58378133-277.7484704 67.35631574 37.68562773 8.63147307 77.0667232 13.25547627 117.52675306 14.950944 9.0168064 0.53946667 17.95654613 0.53946667 26.97335254 0.53946773 10.0957408 0 20.26854827 0 30.36428906-1.15600107 2.23493547 0 3.9304032 0 6.1653376-0.53946666 81.53659307-3.46800213 156.29131413-21.270416 219.87136107-49.47683627 2.23493547-0.53946667 3.9304032-1.15600107 6.16533867-2.31200213 50.63283733-22.426416 107.97047893-37.9938944 169.7779904-46.00883414 28.1293536-3.46800213 56.79817493-5.16347093 86.62299733-5.16346986 53.94670613 0 106.2750112 6.31947093 155.21237973 17.8024128 46.00883413 10.9434752 88.78086507 26.51095253 126.4664928 45.4693664z"  horiz-adv-x="1024" />

    
    <glyph glyph-name="gongzhonghaotubiao" unicode="&#58961;" d="M0 896h1024v-1024H0zM651.117477 278.840048c-0.722501 0.21675-2.023001 0.50575-3.395753 0.794751-6.141254 1.661751-12.282509 3.323502-17.845763 5.274253h-0.07225c-35.258026 12.354759-57.149792 32.729274-57.149792 53.176039 0 8.308756 3.395752 16.111762 10.765258 24.492768 2.890002 2.745502 5.635504 5.563254 8.381006 8.597757 24.131518 27.52727 38.003528 66.759049 38.003528 107.652578 0 80.414309-52.309038 145.872857-116.539335 145.872857S396.652791 559.387003 396.652791 478.972695c0-45.734283 16.473012-87.639314 45.228533-115.166585 0.07225-0.07225 0.07225-0.07225 0.07225-0.1445 5.924504-5.780004 13.00501-15.028011 13.005009-26.371269 0-19.724264-22.036266-39.304029-57.511042-51.225288-0.1445 0-0.36125-0.07225-0.50575-0.1445-5.129754-1.300501-9.609257-2.601002-16.328512-4.768503-78.969308-25.432019-126.220842-71.310802-126.509843-122.75284-0.07225-8.308756 6.430255-15.244761 14.811261-15.244761h486.387356c8.236506 0 14.811261 6.863755 14.811261 15.172511-0.36125 49.274536-44.578283 94.286319-118.995837 120.513088zM510.302124 173.427221l-40.60453 52.525788L510.302124 337.507091l44.000282-111.554082z"  horiz-adv-x="1024" />

    
    <glyph glyph-name="qunliaotubiao" unicode="&#58967;" d="M0 896h1024v-1024H0zM558.203909 290.54455700000005c-0.65025 0.21675-1.806251 0.4335-3.034502 0.7225-5.418754 1.445001-10.909758 2.962252-15.895012 4.696254h-0.07225c-31.356523 10.982008-50.791787 29.116771-50.791787 47.251534 0 7.369505 2.962252 14.377761 9.537007 21.819516 2.601002 2.384252 4.985254 4.985254 7.441755 7.658506 21.458266 24.492768 33.813025 59.389543 33.813025 95.73132 0 71.527552-46.529034 129.688845-103.606576 129.688845s-103.606576-58.161293-103.606576-129.688845c0-40.67678 14.666761-77.957807 40.17103-102.450575 0 0 0.07225-0.07225 0.07225-0.1445 5.274254-5.129754 11.560008-13.36626 11.560008-23.481268 0-17.484513-19.579764-34.896776-51.153037-45.517533-0.1445 0-0.289-0.07225-0.433501-0.07225-4.551753-1.156001-8.525506-2.312002-14.52226-4.190503-70.443802-22.614267-112.493332-63.580047-112.493333-109.53108 0-7.297255 5.852254-13.14951 13.14951-13.14951h432.416567c7.297255 0 13.14951 5.852254 13.149509 13.14951 0 43.928032-39.376279 84.099062-105.701827 107.508079zM745.548296 329.84858499999996c-0.50575 0.1445-1.228251 0.289-2.239752 0.505751-3.757003 0.939251-7.586256 2.023001-10.837508 3.179002l-0.1445 0.1445c-21.747266 7.586256-35.258026 20.157765-35.258025 32.801524 0 5.057504 2.239752 9.898257 6.647004 15.100261 1.878501 1.589501 3.468003 3.468003 5.202004 5.346504 14.955761 16.834262 23.481267 41.11028 23.481267 66.325549 0 49.635786-32.295774 89.951316-71.961052 89.951316-39.520779 0-71.816553-40.31553-71.816553-89.951316 0-28.177521 10.259508-54.04304 27.888521-71.021802 3.757003-3.612503 8.019756-9.320257 8.019755-16.400762 0-12.138009-13.58301-24.276018-35.474776-31.501023-0.1445 0-0.1445-0.1445-0.289-0.1445-3.179002-0.794751-5.852254-1.589501-10.115007-2.817753-4.696253-1.589501-9.320257-3.179002-13.58301-4.913003 5.202004-3.323502 11.343258-6.141254 18.134763-8.525506 3.973753-1.445001 8.164256-2.528752 12.571509-3.612503 0.939251-0.289 1.734001-0.50575 2.384252-0.650251 41.11028-14.522261 69.143301-37.353277 79.041558-63.291046 0.939251-2.528752 3.251252-4.262753 5.996754-4.262753h126.509843c5.129754 0 9.175757 4.262753 9.103507 9.320257-0.07225 30.417272-27.31052 58.161293-73.261554 74.417554z"  horiz-adv-x="1024" />

    
    <glyph glyph-name="shezhi-copy" unicode="&#58638;" d="M912 547.2c11.2-28.8 4.8-62.4-16-84.8-40-43.2-40-112 0-156.8 20.8-22.4 27.2-56 16-84.8-14.4-36.8-35.2-72-59.2-102.4-19.2-24-51.2-35.2-80-28.8-28.8 6.4-57.6 1.6-83.2-12.8s-43.2-38.4-52.8-65.6c-9.6-30.4-35.2-51.2-65.6-56-19.2-1.6-40-3.2-59.2-3.2-19.2 0-40 1.6-59.2 4.8-30.4 4.8-56 25.6-65.6 56-17.6 57.6-76.8 91.2-136 78.4-30.4-6.4-60.8 4.8-80 28.8-24 32-44.8 65.6-59.2 102.4-11.2 28.8-4.8 62.4 16 84.8 40 43.2 40 112 0 156.8-20.8 22.4-27.2 56-16 84.8 14.4 36.8 35.2 72 59.2 102.4 19.2 24 51.2 35.2 81.6 28.8 28.8-6.4 57.6-1.6 83.2 12.8s43.2 38.4 52.8 65.6c9.6 30.4 35.2 51.2 65.6 56 38.4 4.8 78.4 4.8 118.4 0 30.4-4.8 56-25.6 65.6-56 8-27.2 27.2-51.2 52.8-65.6 25.6-14.4 54.4-19.2 83.2-12.8 30.4 6.4 62.4-4.8 80-28.8 22.4-33.6 43.2-67.2 57.6-104z m-59.2-24c-12.8 30.4-30.4 60.8-51.2 86.4-3.2 4.8-9.6 6.4-16 4.8-43.2-9.6-89.6-3.2-128 19.2-40 22.4-68.8 59.2-81.6 102.4-1.6 6.4-6.4 11.2-12.8 11.2-33.6 4.8-67.2 4.8-100.8 0-6.4-1.6-11.2-4.8-12.8-11.2-12.8-43.2-41.6-80-81.6-102.4-38.4-22.4-84.8-28.8-129.6-19.2-6.4 1.6-12.8-1.6-16-4.8-20.8-27.2-38.4-56-51.2-86.4-1.6-6.4-1.6-12.8 3.2-17.6 62.4-68.8 62.4-174.4 0-243.2-4.8-4.8-4.8-11.2-3.2-16 12.8-32 30.4-60.8 49.6-86.4 3.2-4.8 11.2-6.4 16-6.4 91.2 20.8 182.4-33.6 211.2-121.6 1.6-6.4 6.4-9.6 12.8-11.2 16-1.6 33.6-3.2 49.6-3.2 17.6 0 33.6 1.6 51.2 3.2 6.4 1.6 11.2 4.8 12.8 11.2 12.8 43.2 41.6 80 81.6 102.4 38.4 22.4 84.8 28.8 129.6 19.2 6.4-1.6 12.8 1.6 16 4.8 20.8 27.2 38.4 56 51.2 86.4 1.6 4.8 1.6 12.8-3.2 17.6-62.4 68.8-62.4 174.4 0 243.2 4.8 4.8 4.8 11.2 3.2 17.6zM505.6 224c-88 0-160 72-160 160s72 160 160 160 160-72 160-160-70.4-160-160-160z m0 64c52.8 0 96 43.2 96 96s-43.2 96-96 96-96-43.2-96-96 43.2-96 96-96z"  horiz-adv-x="1024" />

    
    <glyph glyph-name="cart-2" unicode="&#58625;" d="M1135.14038001 19.87580226H112.75041831c-30.29899388 0-58.72105995 11.79783799-79.90354173 33.24845299-21.18248334 21.45061498-32.98032133 49.60454786-32.71218969 79.9035433l3.75385875 752.91660436c0 30.03086223-10.45717506 50.14081428-62.4749187 58.45292673h-0.26813167l-150.1543096 25.74073862c-14.47916546 2.41319424-24.40007567 16.35609485-21.98687985 30.83526033 2.41319424 14.47916546 16.35609485 24.40007567 30.83525875 21.98688143l149.88617639-25.74073863c71.32329605-11.26157314 107.52120971-48.80014975 107.52120973-111.54320168L53.4930935 132.49153368999998c0-15.81982843 5.89891978-30.5671271 17.16049292-41.56056859 11.26157314-11.26157314 26.00887183-17.42862458 41.82870024-17.42862461h1022.3899617c14.74729868 0 26.81326991-12.06597121 26.81326834-26.81326989s-11.79783799-26.81326991-26.54513669-26.81326834zM1058.72256225 173.78396750000002l-946.77654204 2.94946068c-29.762729 0.26813323-57.64852866 11.79783799-78.56287876 32.98032133-20.91435011 21.18248334-32.17592326 49.06828299-32.17592325 78.83101199l2.94945909 556.10720602L1075.34679033 764.74842579c48.53201812-1.87692938 86.60685959-41.29243536 86.60685958-89.82445347V276.74692194c0-56.84413058-46.38695551-102.96295444-103.23108766-102.96295444zM112.48228666 230.35996639999996l946.50840882-2.94945909c27.34953477 0 49.60454786 22.25501307 49.60454786 49.33641463V674.92397232c0 19.57368717-15.55169676 35.66164882-35.1253824 36.19791367h-1.0725313l-1014.34598086 75.61341966-2.41319426-498.72681058c0-15.28356354 5.89891978-29.762729 16.62422807-40.75616896 10.18904186-10.72530828 24.66820731-16.89235971 40.21990407-16.89235971zM216.78590406-68.60798671999999m-100.01349535 0a100.01349533 100.01349533 0 1 1 200.02699069 0 100.01349533 100.01349533 0 1 1-200.02699069 0ZM216.78590406-195.43475196000009c-69.9826331 0-126.82676367 56.84413058-126.82676369 126.82676524s56.84413058 126.82676367 126.82676369 126.82676367c69.9826331 0 126.82676367-56.84413058 126.82676366-126.82676367s-56.84413058-126.82676367-126.82676366-126.82676524z m0 200.02699067c-40.4880373 0-73.20022543-32.71218813-73.20022543-73.20022543s32.71218813-73.20022543 73.20022543-73.20022542 73.20022543 32.71218813 73.20022542 73.20022542-32.71218813 73.20022543-73.20022542 73.20022543zM984.44980713-68.60798671999999m-100.01349536 0a100.01349533 100.01349533 0 1 1 200.02698908 0 100.01349533 100.01349533 0 1 1-200.02698908 0ZM984.44980713-195.43475196000009c-69.9826331 0-126.82676367 56.84413058-126.82676526 126.82676524s56.84413058 126.82676367 126.82676526 126.82676367 126.82676367-56.84413058 126.82676364-126.82676367-56.84413058-126.82676367-126.82676364-126.82676524z m0 200.02699067c-40.4880373 0-73.20022543-32.71218813-73.20022544-73.20022543s32.71218813-73.20022543 73.20022544-73.20022542 73.20022543 32.71218813 73.2002254 73.20022542-32.71218813 73.20022543-73.2002254 73.20022543zM823.57019079 531.7411138H277.11576017c-14.74729868 0-26.81326991 12.06597121-26.81326991 26.81326991s12.06597121 26.81326991 26.81326991 26.81326989h546.45443062c14.74729868 0 26.81326991-12.06597121 26.81326834-26.81326989s-12.06597121-26.81326991-26.81326834-26.81326991zM823.57019079 377.56481534H277.11576017c-14.74729868 0-26.81326991 12.06597121-26.81326991 26.81326991s12.06597121 26.81326991 26.81326991 26.81326834h546.45443062c14.74729868 0 26.81326991-12.06597121 26.81326834-26.81326834s-12.06597121-26.81326991-26.81326834-26.81326991z"  horiz-adv-x="1024" />

    
    <glyph glyph-name="yaoyiyao1" unicode="&#59051;" d="M415.744 667.648l124.586667 34.133333c6.144 1.706667 9.557333 7.850667 7.850666 13.994667-1.706667 6.144-7.850667 9.557333-13.994666 7.850667l-124.586667-34.133334c-6.144-1.706667-9.557333-7.850667-7.850667-13.994666 1.706667-5.802667 7.850667-9.557333 13.994667-7.850667zM857.088 166.229333l-6.826667 24.917334c17.408 18.773333 24.917333 45.738667 17.749334 72.362666-6.144 22.186667-21.504 39.594667-40.96 48.810667 19.114667 19.114667 27.989333 48.128 20.138666 76.117333-6.826667 25.258667-25.6 44.373333-48.810666 52.906667 15.701333 18.773333 21.845333 44.714667 15.018666 70.314667-6.826667 25.258667-25.6 44.373333-48.810666 52.906666 15.701333 18.773333 21.845333 44.714667 15.018666 70.314667C771.413333 665.941333 744.106667 687.786667 713.045333 691.2l-22.869333 83.626667c-9.898667 36.181333-47.104 57.344-83.285333 47.445333l-312.32-85.333333C258.389333 727.04 237.226667 689.834667 247.125333 653.653333l9.216-33.792c-30.72-18.432-54.954667-44.032-71.68-67.584-19.797333-27.648-33.450667-88.746667-37.888-121.173333-4.437333-32.768 24.234667-94.549333 28.330667-102.741333 3.754667-8.192 20.138667-34.474667-9.898667-66.56S60.416 185.002667 44.373333 168.277333c-16.042667-16.725333-48.469333-73.728 6.144-122.197333 54.613333-48.810667 161.109333-135.168 161.109334-135.168s75.776-56.32 126.634666 15.018667l50.858667 70.997333 25.941333 44.373333c11.605333-33.450667 47.445333-52.565333 81.92-43.008l312.32 85.674667c36.522667 8.533333 57.685333 46.08 47.786667 82.261333z m-49.834667 30.037334l-101.717333-27.989334c-25.6-7.168-52.224 8.192-59.392 33.792-7.168 25.6 8.192 52.224 33.792 59.392l101.717333 27.989334c25.6 7.168 52.224-8.192 59.392-33.792 7.168-25.6-8.192-52.224-33.792-59.392z m12.629334 183.978666c7.168-26.282667-8.192-53.589333-34.474667-60.757333l-123.221333-33.792c-26.282667-7.168-53.589333 8.192-60.757334 34.474667-7.168 26.282667 8.192 53.589333 34.474667 60.757333l123.221333 33.792c26.282667 7.509333 53.589333-7.850667 60.757334-34.474667z m-33.792 123.221334c7.168-26.282667-8.192-53.589333-34.474667-60.757334l-123.221333-33.792-36.864-10.24c-26.282667-7.168-53.589333 8.192-60.757334 34.474667-7.168 26.282667 8.192 53.589333 34.474667 60.757333l160.085333 44.032c26.282667 7.509333 53.589333-8.192 60.757334-34.474666z m-33.792 123.221333c7.168-26.282667-8.192-53.589333-34.474667-60.757333l-123.221333-33.792c-26.282667-7.168-53.589333 8.192-60.757334 34.474666-7.168 26.282667 8.192 53.589333 34.474667 60.757334l123.221333 33.792c26.282667 7.168 53.589333-8.192 60.757334-34.474667zM290.816 638.293333c-7.509333 26.965333 8.533333 54.954667 35.498667 62.464l272.384 74.752c26.965333 7.509333 54.954667-8.533333 62.464-35.498666l14.677333-53.248-31.402667-8.533334c-7.850667 11.946667-22.869333 18.090667-37.205333 13.994667l-239.274667-65.536c-7.168-2.048-12.970667-5.802667-17.066666-11.264-10.922667 7.168-34.474667 19.797333-58.368 18.090667l-1.706667 4.778666z m9.557333-179.541333l100.693334-367.957333-94.890667-134.144S279.893333-83.626667 246.101333-59.733333l-33.792 23.893333-136.874666 118.784s-26.965333 29.013333-2.048 52.565333S98.986667 158.72 98.986667 158.72s65.194667 51.882667 83.968 68.608c18.432 16.725333 59.733333 48.128 33.792 111.957333s-27.306667 75.093333-27.306667 93.866667c-0.341333 19.114667 16.725333 74.752 28.672 97.962667 0 0 19.456 32.085333 49.152 51.2 10.581333 6.826667 21.162667 10.581333 29.013333 12.288 15.701333 2.730667 29.696-1.365333 41.642667-7.850667 1.706667-0.682667 4.437333-2.048 7.509333-3.754667 0.341333-0.341333 1.024-0.341333 1.365334-0.682666 0.341333-0.341333 0.682667-0.341333 1.024-0.682667 0.341333-0.341333 0.682667-0.341333 1.024-0.682667 0.341333-0.341333 0.682667-0.341333 1.024-0.682666 0.341333-0.341333 0.682667-0.341333 1.024-0.682667 0.341333-0.341333 1.024-0.341333 1.365333-0.682667l2.048-1.024c0.341333-0.341333 0.682667-0.341333 1.024-0.682666 0.341333-0.341333 1.024-0.682667 1.365333-0.682667 0.341333-0.341333 0.682667-0.341333 1.024-0.682667 0.341333-0.341333 1.024-0.682667 1.365334-1.024 0.341333 0 0.341333-0.341333 0.682666-0.341333l3.072-2.048c0.341333-0.341333 0.682667-0.341333 1.024-0.682667 0.682667-0.341333 1.024-0.682667 1.706667-1.024 0.341333-0.341333 0.682667-0.341333 1.024-0.682666 2.048-1.024 4.096-2.389333 6.144-3.754667 0.341333-0.341333 0.682667-0.341333 1.024-0.682667 0.682667-0.341333 1.365333-0.682667 1.706667-1.024 0.341333-0.341333 1.024-0.682667 1.365333-0.682666 43.349333-26.624 104.106667-66.56 104.106667-66.56-8.533333-47.786667-32.426667-68.608-84.992-69.632h-9.557334c-11.605333 0-40.618667 7.509333-40.618666 7.509333-24.234667 8.533333-40.96 20.821333-45.397334 23.552z m207.189334-417.792c-26.965333-7.509333-54.954667 8.533333-62.464 35.498667L358.4 391.850667c15.701333-2.730667 39.253333-2.730667 39.253333-2.730667l55.978667-203.776c5.12-18.090667 23.552-28.672 41.642667-23.893333l116.394666 31.744v-0.682667c1.706667-5.802667 3.754667-10.922667 6.485334-16.042667-17.408-6.144-27.306667-24.917333-22.186667-42.666666 5.12-18.773333 24.576-30.037333 43.690667-24.917334 14.336 4.096 24.234667 16.042667 25.941333 30.037334 12.629333-3.413333 26.624-3.754667 40.277333 0l108.885334 30.037333c0.682667 0.341333 1.365333 0.341333 2.389333 0.682667 2.730667-24.234667-12.629333-47.786667-37.205333-54.613334l-272.384-74.069333zM109.909333 689.152c3.413333-1.024 6.485333-1.024 9.557334 0 5.802667 1.706667 10.581333 6.144 12.629333 12.288 19.114667 65.877333 68.949333 119.466667 133.12 142.677333 9.216 3.413333 13.994667 13.653333 10.581333 22.869334-3.413333 9.216-13.653333 13.994667-22.869333 10.581333-75.093333-27.306667-133.12-89.429333-155.306667-166.570667-2.730667-9.216 2.730667-19.114667 12.288-21.845333zM279.210667 805.205333c-51.882667-18.773333-91.818667-61.781333-107.178667-115.029333-2.730667-9.557333 2.730667-19.456 12.288-22.186667 3.413333-1.024 6.826667-1.024 9.898667 0 5.802667 1.706667 10.581333 6.144 12.629333 12.288 12.288 41.984 44.032 76.117333 85.333333 91.136 9.216 3.413333 13.994667 13.653333 10.581334 22.869334-4.096 9.557333-14.336 14.336-23.552 10.922666zM987.818667 155.306667c-3.413333 0.341333-6.826667-0.341333-9.557334-1.706667-5.461333-2.730667-9.557333-7.850667-9.898666-14.336-6.485333-68.266667-45.738667-130.048-104.448-164.864-8.533333-5.12-11.264-16.042667-6.144-24.576 5.12-8.533333 16.042667-11.264 24.576-6.144 68.608 40.618667 114.346667 112.64 121.856 192.170667 0.682667 9.898667-6.485333 18.432-16.384 19.456zM927.061333 142.677333c1.024 9.898667-6.144 18.773333-16.042666 19.797334-3.413333 0.341333-6.826667-0.341333-9.557334-1.706667-5.461333-2.730667-9.557333-7.850667-9.898666-14.336-4.437333-43.690667-29.354667-82.944-66.901334-105.472-8.533333-5.12-11.264-16.042667-6.144-24.576 5.12-8.533333 16.042667-11.264 24.576-6.144 46.762667 27.648 78.506667 77.482667 83.968 132.437333z"  horiz-adv-x="1024" />

    
    <glyph glyph-name="xiaochengxu" unicode="&#59203;" d="M635.733333 640c81.066667 0 149.333333-64 149.333334-136.533333 0-25.6-8.533333-46.933333-21.333334-68.266667-17.066667-29.866667-46.933333-51.2-85.333333-64-8.533333-4.266667-17.066667-4.266667-25.6-4.266667-17.066667 0-29.866667 12.8-29.866667 29.866667 0 17.066667 12.8 29.866667 29.866667 29.866667h4.266667c25.6 8.533333 42.666667 21.333333 55.466666 38.4 8.533333 12.8 12.8 25.6 12.8 38.4 0 46.933333-42.666667 81.066667-93.866666 81.066666-17.066667 0-34.133333-4.266667-51.2-12.8-25.6-17.066667-42.666667-42.666667-42.666667-68.266666v-238.933334c0-46.933333-25.6-93.866667-72.533333-119.466666-25.6-12.8-51.2-21.333333-76.8-21.333334-81.066667 0-149.333333 64-149.333334 136.533334 0 25.6 8.533333 46.933333 21.333334 68.266666 17.066667 29.866667 46.933333 51.2 85.333333 64 8.533333 4.266667 17.066667 4.266667 25.6 4.266667 17.066667 0 29.866667-12.8 29.866667-29.866667 0-17.066667-12.8-29.866667-29.866667-29.866666h-4.266667c-25.6-8.533333-42.666667-21.333333-55.466666-38.4-8.533333-12.8-12.8-25.6-12.8-38.4 0-46.933333 42.666667-81.066667 93.866666-81.066667 17.066667 0 34.133333 4.266667 51.2 12.8 25.6 17.066667 42.666667 42.666667 42.666667 68.266667V503.466667c0 46.933333 25.6 93.866667 72.533333 119.466666 21.333333 8.533333 51.2 17.066667 76.8 17.066667zM55.466667 384c0-251.733333 204.8-456.533333 456.533333-456.533333S968.533333 132.266667 968.533333 384 763.733333 840.533333 512 840.533333 55.466667 635.733333 55.466667 384zM0 384C0 665.6 230.4 896 512 896s512-230.4 512-512-230.4-512-512-512S0 102.4 0 384z"  horiz-adv-x="1024" />

    
    <glyph glyph-name="xiaochengxu1" unicode="&#58639;" d="M512 768c-211.7 0-384-172.3-384-384s172.3-384 384-384 384 172.3 384 384-172.3 384-384 384z m0-717.4c-183.8 0-333.4 149.6-333.4 333.4S328.2 717.4 512 717.4 845.4 567.8 845.4 384 695.8 50.60000000000002 512 50.60000000000002zM702.9 561.1c-24.9 14.2-54.6 17.1-81.6 8.1-26.4-8.8-48-28.3-59.5-53.6L418 277.1l-1.6-3c-5.6-12.9-16.5-22.9-29.8-27.4-13.5-4.5-27.9-3.1-40.5 4.1-19.8 11.3-29.4 35.4-22.7 57.2 7.1 23 28.3 26.5 75.1 29l3.5 0.2c14 0.8 24.7 12.7 23.9 26.6-0.8 14-12.7 24.6-26.6 23.9l-3.4-0.2c-45.7-2.4-102.6-5.5-120.8-64.7-13.6-44.3 5.7-93.1 46-116 15.4-8.8 32.7-13.3 50-13.3 10.7 0 21.3 1.7 31.6 5.1 26.4 8.8 48 28.3 59.5 53.6L606 490.9l1.6 3c5.6 12.9 16.5 22.9 29.8 27.4 13.5 4.5 27.9 3.1 40.5-4.1 19.8-11.3 29.4-35.4 22.7-57.2-7.1-23.2-28.5-26.6-75.7-29.1l-2.8-0.1c-14-0.7-24.7-12.6-24-26.6 0.7-14 12.6-24.8 26.6-24l2.8 0.1c46 2.4 103.2 5.3 121.5 64.7 13.5 44.4-5.8 93.2-46.1 116.1z"  horiz-adv-x="1024" />

    
    <glyph glyph-name="qunliao" unicode="&#58765;" d="M0 896h1024v-1024H0V896zM371.390171 378.221714c26.945829-42.788571-17.788343-62.171429-36.483657-72.952685C254.551771 259.554743 219.428571 242.424686 219.428571 220.174629v-30.383543c0-9.771886 7.314286-18.241829 18.241829-18.241829h395.088457c10.942171 0 18.241829 8.455314 18.241829 18.241829V220.16c0 22.250057-35.1232 39.394743-115.5072 85.0944-18.666057 10.766629-63.400229 30.164114-36.4544 72.952686 23.917714 35.5328 42.5984 50.000457 42.554514 109.421714 0.043886 56.378514-41.6768 115.477943-103.336229 115.477943-67.744914 0-109.4656-59.099429-109.421714-115.477943-0.043886-59.421257 18.6368-73.888914 42.554514-109.421714zM561.386057 317.001143c7.416686 4.213029 15.623314 8.821029 24.707657 13.999543 12.829257 7.387429 43.534629 20.6848 25.029486 50.0736-16.427886 24.400457-29.242514 34.333257-29.213257 75.117714-0.029257 38.751086 28.598857 79.316114 75.117714 79.316114 42.364343 0 70.992457-40.565029 70.9632-79.316114 0.029257-40.784457-12.770743-50.717257-29.213257-75.117714-18.505143-29.3888 12.214857-42.7008 25.044114-50.0736 55.178971-31.407543 79.301486-43.183543 79.301486-58.441143v-20.874972a12.258743 12.258743 0 0 0-12.507429-12.507428H669.696a49.269029 49.269029 0 0 1-9.669486 13.560686c-1.565257 8.543086 1.1264 7.504457-98.640457 64.263314z"  horiz-adv-x="1024" />

    
    <glyph glyph-name="xindepengyou1" unicode="&#58766;" d="M0 896h1024v-1024H0V896zM568.027429 216.356571c0 20.655543 4.856686 40.170057 13.502171 57.475658a123.757714 123.757714 0 0 1-15.008914 3.584c-13.560686 2.165029-14.101943 40.667429-14.101943 40.667428s40.126171 40.667429 49.342171 95.451429c23.873829 0 38.517029 58.031543 14.6432 78.628571 1.082514 21.7088 30.368914 169.208686-118.769371 169.208686-149.138286 0.541257-119.851886-146.973257-118.769372-168.667429-23.844571-20.597029-9.216-78.628571 14.6432-78.628571 8.689371-54.769371 49.3568-95.451429 49.3568-95.451429s-0.541257-38.5024-14.101942-40.667428C384.292571 270.906514 219.428571 196.608 219.428571 114.688h398.218972a128.643657 128.643657 0 0 0-49.634743 101.653943zM697.153829 110.401829c-14.511543 0-28.233143 2.7648-41.194058 8.2944a106.715429 106.715429 0 0 0-33.938285 22.791314 106.773943 106.773943 0 0 0-22.791315 33.938286 103.877486 103.877486 0 0 0-8.2944 41.179428 103.862857 103.862857 0 0 0 8.2944 41.194057 103.760457 103.760457 0 0 0 22.791315 33.674972 108.865829 108.865829 0 0 0 33.938285 22.528 103.862857 103.862857 0 0 0 41.194058 8.309028 103.862857 103.862857 0 0 0 41.194057-8.2944 105.749943 105.749943 0 0 0 33.660343-22.528 105.706057 105.706057 0 0 0 22.542628-33.6896 103.862857 103.862857 0 0 0 8.2944-41.194057 103.862857 103.862857 0 0 0-8.2944-41.179428 108.895086 108.895086 0 0 0-22.528-33.938286 103.570286 103.570286 0 0 0-33.6896-22.791314 103.804343 103.804343 0 0 0-41.179428-8.2944z m52.3264 123.318857h-38.326858V269.458286c0 4.827429-1.565257 8.981943-4.681142 12.434285a15.316114 15.316114 0 0 1-11.907658 5.178515c-4.827429 0-8.630857-1.726171-11.410285-5.178515a19.309714 19.309714 0 0 1-4.139886-12.434285v-35.752229h-33.674971c-4.827429 0-8.967314-1.726171-12.434286-5.178514-3.452343-3.452343-5.178514-7.606857-5.178514-12.434286 0-4.827429 1.726171-8.455314 5.178514-10.883657 3.452343-2.413714 7.606857-3.627886 12.434286-3.627886h33.674971v-36.776228c0-4.827429 1.389714-8.981943 4.154514-12.434286 2.7648-3.452343 6.5536-5.178514 11.395657-5.178514 4.827429 0 8.8064 1.726171 11.922286 5.178514 3.101257 3.452343 4.651886 7.606857 4.651886 12.434286V201.581714h38.341486v-1.024c4.827429 0 8.981943 1.375086 12.434285 4.139886 3.452343 2.7648 5.178514 6.568229 5.178515 11.410286 0 4.827429-1.726171 8.967314-5.178515 12.434285a16.969143 16.969143 0 0 1-12.434285 5.163886z"  horiz-adv-x="1024" />

    
    <glyph glyph-name="biaoqing-" unicode="&#59157;" d="M512-123.392C230.912-123.392 2.56 104.96 2.56 386.048S230.912 896 512 896s509.44-228.352 509.44-509.44-228.352-509.952-509.44-509.952z m0 946.688c-240.64 0-436.736-196.096-436.736-436.736S271.36-50.176 512-50.176s436.736 196.096 436.736 436.736S752.64 823.296 512 823.296zM369.664 402.944c-30.208 0-54.784 24.576-54.784 54.784V530.432c0 30.208 24.576 54.784 54.784 54.784 30.208 0 54.784-24.576 54.784-54.784v-72.704c0-30.208-24.576-54.784-54.784-54.784z m286.72 0c-30.208 0-54.784 24.576-54.784 54.784V530.432c0 30.208 24.576 54.784 54.784 54.784 30.208 0 54.784-24.576 54.784-54.784v-72.704c0-30.208-24.576-54.784-54.784-54.784zM520.704 56.32c-137.216 0-248.32 111.104-248.32 248.32v24.064h496.64v-24.064c0-137.216-111.616-248.32-248.32-248.32z m0 61.44c87.552 0 159.744 65.536 169.984 149.504H350.72c9.728-83.968 82.432-149.504 169.984-149.504z"  horiz-adv-x="1024" />

    
    <glyph glyph-name="weixinzhifu1" unicode="&#58892;" d="M175.4 63.2l19 48.7c13.8 35.4 25.1 74.1 26.1 88.9-71.5 58.7-110.8 135.8-110.8 217.8 0 173.5 178.9 314.6 398.8 314.6s398.8-141.1 398.8-314.6S728.4 104 508.5 104c-50.5 0-99.6 7.3-146.1 21.7-16.6-2.1-83.1-24.2-137.9-44.5l-49.1-18z m183.9 63.5z m149.2 559.5c-194 0-351.8-120-351.8-267.6 0-69.4 35-135.3 98.7-185.6 8.3-6.5 22.6-17.8-0.3-90.7 100 35 111.7 31.3 118.4 29.2 42.8-13.6 88.2-20.5 135-20.5 194 0 351.8 120 351.8 267.6S702.5 686.2 508.5 686.2zM796 514.1l-107-26.5c-2.5-0.6-4.9-1.6-7.1-2.8L428 341.7c-10-5.6-22.5-4.7-31.5 2.5l-106.8 84.9c-5.2 4.1-11.7 6.3-18.4 6.1l-25.1-0.7 138.6-153.7c9.2-10.2 24.5-12.3 36.2-4.9l375 238.2z"  horiz-adv-x="1024" />

    
    <glyph glyph-name="iconfontyoujiantou" unicode="&#58641;" d="M400.556838 647.806291l-73.857125-73.28305L518.758937 384.014326 326.700737 193.498248l73.857125-73.30454 265.957281 263.820618L400.556838 647.806291 400.556838 647.806291zM400.556838 647.806291"  horiz-adv-x="1024" />

    
    <glyph glyph-name="wo" unicode="&#58970;" d="M825.912889 78.506667v11.377777c0 2.389333-3.982222 10.581333-7.224889 13.169778a551.537778 551.537778 0 0 1-28.785778 21.703111 736.711111 736.711111 0 0 1-82.403555 50.119111 668.074667 668.074667 0 0 1-140.231111 54.954667c-22.016 5.745778-33.564444 22.897778-36.522667 42.097778-1.422222 9.102222-0.853333 18.232889 0.938667 28.416l3.271111 18.631111 16.014222 10.097778c41.244444 25.969778 69.12 85.617778 69.12 160.426666 0 120.32-36.693333 178.176-114.688 178.176s-114.716444-57.856-114.716445-178.204444c0-74.183111 27.420444-133.461333 68.181334-159.800889l15.473778-9.984 3.356444-18.119111c1.792-9.813333 2.56-18.460444 1.792-26.88-1.848889-20.138667-11.832889-38.542222-35.953778-44.856889a668.16 668.16 0 0 1-139.975111-54.784 734.236444 734.236444 0 0 1-82.375111-50.062222 458.524444 458.524444 0 0 1-30.520889-23.125333c-1.934222-1.479111-5.774222-9.358222-5.774222-12.003556v-11.320889h641.024z m-411.335111 231.907555c-40.277333 37.688889-66.56 101.262222-66.56 179.057778 0 127.431111 42.097778 220.871111 157.383111 220.871111 115.256889 0 157.383111-93.44 157.383111-220.871111 0-77.795556-26.282667-141.368889-66.56-179.057778l-6.883556 1.848889c2.759111-0.824889 4.636444-1.507556 6.371556-2.332444a149.504 149.504 0 0 0-22.016-16.981334c-1.991111-11.235556-1.536-20.309333 4.323556-21.845333 3.84-0.995556 7.623111-1.991111 11.377777-3.072l7.025778-11.178667c3.214222 1.991111 6.343111 4.124444 9.386667 6.314667 142.506667-44.145778 240.526222-127.630222 240.526222-127.630222 12.288-9.585778 22.243556-30.208 22.243556-45.681778v-53.987556H142.222222v53.987556c0 15.644444 9.813333 36.209778 22.556445 45.937778 0 0 97.735111 83.256889 240.184889 127.374222 2.503111-1.792 5.034667-3.527111 7.623111-5.176889l5.973333 9.244445c4.693333 1.336889 9.415111 2.645333 14.222222 3.868444 5.12 1.365333 5.12 10.922667 2.929778 22.727111a150.044444 150.044444 0 0 0-20.593778 16.071111c1.792 0.853333 3.697778 1.564444 5.632 2.161778l-6.172444-1.649778z m174.762666 1.848889a673.564444 673.564444 0 0 1 0.768-0.227555l-0.768 0.227555z"  horiz-adv-x="1024" />

    
    </font>
</defs>
</svg>
